<svg width="137" height="24" viewBox="0 0 137 24" fill="none" xmlns="http://www.w3.org/2000/svg">
<path d="M46.4671 3.61229V17.2299H53.7039C53.9503 17.2299 54.1513 17.4309 54.1513 17.6773V18.7862C54.1513 19.0326 53.9503 19.2336 53.7039 19.2336H44.6644C44.4179 19.2336 44.2169 19.0326 44.2169 18.7862V3.61229C44.2169 3.36588 44.4179 3.16486 44.6644 3.16486H46.0131C46.2596 3.16486 46.4606 3.36588 46.4606 3.61229H46.4671Z" fill="#101010"/>
<path d="M59.0276 18.6434C58.1198 18.0858 57.413 17.3336 56.9072 16.3933C56.4079 15.453 56.155 14.409 56.155 13.2548C56.155 12.1005 56.4079 11.063 56.9072 10.1162C57.413 9.17595 58.1198 8.42374 59.0276 7.86607C59.9355 7.30839 60.9795 7.02956 62.1662 7.02956C63.2686 7.02956 64.2412 7.28245 65.0842 7.78177C65.9272 8.28108 66.5887 8.99438 67.062 9.91519C67.5354 10.836 67.7689 11.893 67.7689 13.0862C67.7689 13.4234 67.7624 13.6763 67.7429 13.8513H58.4051C58.5154 14.9667 58.8979 15.881 59.5529 16.5943C60.2078 17.3076 61.0833 17.6578 62.1856 17.6578C63.0286 17.6578 63.7484 17.4438 64.3385 17.0223C64.8378 16.6656 65.2139 16.1923 65.4603 15.6087C65.5382 15.4206 65.7262 15.2974 65.9272 15.3168L67.1009 15.4401C67.3992 15.4725 67.5743 15.7773 67.477 16.0561C67.1398 16.9834 66.5692 17.7551 65.7521 18.3711C64.7795 19.1038 63.5798 19.4735 62.1597 19.4735C60.9795 19.4735 59.9355 19.1946 59.0212 18.637L59.0276 18.6434ZM65.5641 12.1524C65.4214 11.1602 65.0648 10.3626 64.4877 9.75956C63.9105 9.15001 63.1259 8.85172 62.1143 8.85172C61.1027 8.85172 60.2921 9.1565 59.6631 9.75956C59.0341 10.3691 58.6386 11.1667 58.4764 12.1524H65.5641Z" fill="#101010"/>
<path d="M71.718 7.56774L75.1288 16.9444L78.5397 7.56774C78.6046 7.39265 78.7732 7.26945 78.9612 7.26945H80.3813C80.6991 7.26945 80.9131 7.58719 80.8028 7.88548L76.4647 18.9547C76.3998 19.1297 76.2312 19.24 76.0432 19.24H74.2145C74.0265 19.24 73.8643 19.1297 73.793 18.9547L69.4548 7.88548C69.3381 7.58719 69.5586 7.26945 69.8763 7.26945H71.2965C71.4845 7.26945 71.6531 7.38617 71.718 7.56774Z" fill="#101010"/>
<path d="M85.1735 18.6434C84.2657 18.0858 83.5589 17.3336 83.0531 16.3933C82.5537 15.453 82.3008 14.409 82.3008 13.2548C82.3008 12.1005 82.5537 11.063 83.0531 10.1162C83.5589 9.17595 84.2657 8.42374 85.1735 7.86607C86.0814 7.30839 87.1254 7.02956 88.312 7.02956C89.4144 7.02956 90.3871 7.28245 91.2301 7.78177C92.0731 8.28108 92.7345 8.99438 93.2079 9.91519C93.6813 10.836 93.9147 11.893 93.9147 13.0862C93.9147 13.4234 93.9082 13.6763 93.8888 13.8513H84.551C84.6612 14.9667 85.0438 15.881 85.6988 16.5943C86.3537 17.3076 87.2291 17.6578 88.3315 17.6578C89.1745 17.6578 89.8943 17.4438 90.4844 17.0223C90.9837 16.6656 91.3598 16.1923 91.6062 15.6087C91.684 15.4206 91.8721 15.2974 92.0731 15.3168L93.2468 15.4401C93.5451 15.4725 93.7202 15.7773 93.6229 16.0561C93.2857 16.9834 92.7151 17.7551 91.898 18.3711C90.9253 19.1038 89.7257 19.4735 88.3056 19.4735C87.1254 19.4735 86.0814 19.1946 85.167 18.637L85.1735 18.6434ZM91.71 12.1524C91.5673 11.1602 91.2107 10.3626 90.6335 9.75956C90.0564 9.15001 89.2718 8.85172 88.2602 8.85172C87.2486 8.85172 86.438 9.1565 85.809 9.75956C85.18 10.3691 84.7844 11.1667 84.6223 12.1524H91.71Z" fill="#101010"/>
<path d="M110.587 17.7162C109.595 16.5619 109.102 15.0056 109.102 13.0602V3.58628C109.102 3.33986 109.303 3.13884 109.549 3.13884H110.879C111.125 3.13884 111.326 3.33986 111.326 3.58628V13.0602C111.326 14.4155 111.631 15.4855 112.247 16.2701C112.863 17.0547 113.784 17.4438 115.009 17.4438C116.235 17.4438 117.162 17.0547 117.772 16.2701C118.388 15.4855 118.692 14.4155 118.692 13.0602V3.58628C118.692 3.33986 118.893 3.13884 119.14 3.13884H120.489C120.735 3.13884 120.936 3.33986 120.936 3.58628V13.0602C120.936 15.0056 120.437 16.5619 119.438 17.7162C118.44 18.8769 116.961 19.454 114.996 19.454C113.031 19.454 111.559 18.8769 110.567 17.7162H110.587Z" fill="#101010"/>
<path d="M128.795 18.7213C128.114 18.2349 127.576 17.567 127.181 16.724V23.5523C127.181 23.7987 126.98 23.9997 126.733 23.9997H125.404C125.157 23.9997 124.956 23.7987 124.956 23.5523V7.691C124.956 7.44458 125.157 7.24356 125.404 7.24356H126.733C126.98 7.24356 127.181 7.44458 127.181 7.691V9.73364C127.583 8.89064 128.121 8.22273 128.795 7.73639C129.476 7.25005 130.3 7.00363 131.272 7.00363C132.29 7.00363 133.198 7.27598 133.989 7.82069C134.781 8.36539 135.39 9.11112 135.818 10.0579C136.253 11.0046 136.467 12.0681 136.467 13.2288C136.467 14.3896 136.253 15.453 135.818 16.3998C135.39 17.3465 134.774 18.0987 133.989 18.637C133.198 19.1817 132.29 19.454 131.272 19.454C130.254 19.454 129.476 19.2141 128.795 18.7213ZM128.127 16.2312C128.756 17.0353 129.619 17.4373 130.702 17.4373C131.785 17.4373 132.667 17.0353 133.302 16.2312C133.931 15.4271 134.249 14.422 134.249 13.2288C134.249 12.0357 133.931 11.0306 133.302 10.2265C132.673 9.42238 131.804 9.02034 130.702 9.02034C129.599 9.02034 128.756 9.42238 128.127 10.2265C127.498 11.0306 127.181 12.0357 127.181 13.2288C127.181 14.422 127.498 15.4271 128.127 16.2312Z" fill="#101010"/>
<path d="M98.9467 17.3076H102.429C102.675 17.3076 102.876 17.5086 102.876 17.755V18.7926C102.876 19.039 102.675 19.24 102.429 19.24H97.2283C96.9819 19.24 96.7808 19.039 96.7808 18.7926V5.10362H95.0624C94.816 5.10362 94.615 4.90259 94.615 4.65618V3.61865C94.615 3.37223 94.816 3.17121 95.0624 3.17121H97.6238C98.3696 3.17121 98.9532 3.77428 98.9532 4.50055V17.3076H98.9467Z" fill="#101010"/>
<path d="M28.4205 0.000289917C25.9175 0.000289917 23.5052 0.862739 21.5598 2.43201C21.4561 2.3931 21.3523 2.35419 21.2486 2.32177C20.8076 2.17911 20.3277 2.42552 20.1851 2.86647C20.0424 3.30743 20.2888 3.78728 20.7298 3.92994C22.8827 4.6238 24.9059 5.81047 26.5659 7.36677C26.728 7.51592 26.9355 7.59373 27.143 7.59373C27.37 7.59373 27.5905 7.50295 27.7591 7.32786C28.0768 6.99067 28.0574 6.45245 27.7202 6.1347C26.4427 4.94154 24.9707 3.94291 23.3885 3.1907C24.8799 2.2245 26.6178 1.69925 28.4205 1.69925C29.3348 1.69925 30.0741 2.43849 30.0741 3.35282V17.7875C30.0741 17.8523 30.0611 17.9107 30.0546 17.9691C26.5659 14.2275 22.0916 11.5688 17.0919 10.2719C16.3462 10.0838 15.5486 10.0773 14.7964 10.2719C9.79031 11.5688 5.31595 14.2339 1.83373 17.9626C1.83373 17.8977 1.81427 17.8394 1.81427 17.781V3.33985C1.81427 2.42552 2.55351 1.68628 3.46784 1.68628C5.26407 1.68628 7.00194 2.21153 8.49339 3.17773C6.93061 3.92346 5.47157 4.90912 4.17466 6.12173C3.83746 6.43948 3.81801 6.97121 4.13575 7.3149C4.30435 7.48998 4.52483 7.58076 4.75179 7.58076C4.95929 7.58076 5.1668 7.50295 5.32891 7.3538C8.22104 4.65622 11.9886 3.17773 15.9442 3.17773C16.2814 3.17773 16.6186 3.1907 16.9493 3.21016C17.4162 3.22961 17.8182 2.88593 17.8442 2.41904C17.8701 1.95215 17.5199 1.55659 17.053 1.52417C16.6834 1.49823 16.3138 1.49174 15.9377 1.49174C14.0053 1.49174 12.1053 1.81597 10.3156 2.43201C8.38964 0.862739 5.97737 0.000289917 3.47432 0.000289917C1.6327 0.000289917 0.134766 1.49823 0.134766 3.33985V17.7745C0.134766 20.3294 2.20983 22.4045 4.76476 22.4045H27.1366C29.6915 22.4045 31.7665 20.3294 31.7665 17.7745V3.33985C31.7665 1.49823 30.2686 0.000289917 28.427 0.000289917H28.4205Z" fill="#101010"/>
<path d="M11.1456 20.725C12.1699 20.725 13.0002 19.1166 13.0002 17.1326C13.0002 15.1485 12.1699 13.5401 11.1456 13.5401C10.1213 13.5401 9.29102 15.1485 9.29102 17.1326C9.29102 19.1166 10.1213 20.725 11.1456 20.725Z" fill="white"/>
<path d="M20.8465 20.725C21.8707 20.725 22.7011 19.1166 22.7011 17.1326C22.7011 15.1485 21.8707 13.5401 20.8465 13.5401C19.8222 13.5401 18.9919 15.1485 18.9919 17.1326C18.9919 19.1166 19.8222 20.725 20.8465 20.725Z" fill="white"/>
<path d="M17.8378 2.45144C17.7924 2.89887 17.4033 3.2231 16.9494 3.20365C16.6187 3.18419 16.2815 3.17122 15.9443 3.17122C11.9887 3.17122 8.22116 4.65619 5.32903 7.34729C5.16692 7.49644 4.95941 7.57425 4.75191 7.57425C4.52495 7.57425 4.29799 7.48347 4.13587 7.30839C3.81813 6.9647 3.83758 6.43297 4.17478 6.11522C5.47169 4.90909 6.93073 3.92344 8.49351 3.17122C7.00206 2.20502 5.26419 1.67977 3.46796 1.67977C2.55363 1.67977 1.81439 2.41901 1.81439 3.33334V17.768C1.81439 17.8329 1.82736 17.8912 1.83385 17.9496C5.31606 14.2145 9.79043 11.5493 14.7965 10.2589C15.5487 10.0643 16.3463 10.0708 17.0921 10.2589C22.0917 11.5558 26.566 14.2145 30.0547 17.9561C30.0547 17.8912 30.0742 17.8329 30.0742 17.7745V3.33982C30.0742 2.4255 29.3349 1.68626 28.4206 1.68626C26.6244 1.68626 24.88 2.21799 23.3886 3.17771C24.9643 3.93641 26.4363 4.92855 27.7203 6.12171C28.064 6.43945 28.0769 6.97119 27.7592 7.31487C27.5906 7.48995 27.3701 7.58074 27.1432 7.58074C26.9357 7.58074 26.7281 7.50292 26.566 7.35378C24.8995 5.79748 22.8828 4.6108 20.7299 3.91695C20.2954 3.77429 20.0555 3.32037 20.1852 2.8859C19.4265 2.68488 18.6419 2.54222 17.8378 2.44495V2.45144Z" fill="white"/>
</svg>
