<svg width="24" height="24" viewBox="0 0 24 24" fill="none" xmlns="http://www.w3.org/2000/svg">
<path fill-rule="evenodd" clip-rule="evenodd" d="M11.6402 1.70475C11.8639 1.58283 12.1342 1.58283 12.3579 1.70475L22.1071 7.01783C22.3482 7.1492 22.4982 7.4018 22.4982 7.67633V9.00024C22.4982 9.41442 22.1624 9.75018 21.7483 9.75018H20.9984V18.0112H21.7482C22.1624 18.0112 22.4982 18.3469 22.4982 18.7611V21.7609C22.4982 22.1751 22.1624 22.5108 21.7482 22.5108H2.24982C1.83564 22.5108 1.49988 22.1751 1.49988 21.7609V18.7611C1.49988 18.3469 1.83564 18.0112 2.24982 18.0112H2.99973V9.75018H2.24985C1.83567 9.75018 1.49991 9.41442 1.49991 9.00024V7.67633C1.49991 7.4018 1.64992 7.1492 1.89098 7.01783L11.6402 1.70475ZM5.99948 18.0112H4.4996V9.75018H5.99948V18.0112ZM2.99976 19.5111H7.49936V19.5111H9.74934V19.5111H14.249V19.5111H16.4987V19.5111H20.9983V21.0109H2.99976V19.5111ZM19.4985 18.0112H17.9986V9.75018H19.4985V18.0112ZM16.4987 18.0112H14.249V9.75018H16.4987V18.0112ZM12.7491 18.0112V9.75018H11.2492V18.0112H12.7491ZM9.74934 18.0112V9.75018H7.49936V18.0112H9.74934ZM20.9983 8.12171V8.25023H16.4987V8.2503H14.249V8.25023H9.74934V8.2503H7.49936V8.25023H2.99979V8.12171L11.9991 3.21733L20.9983 8.12171Z" fill="black"/>
</svg>
