<svg width="25" height="25" viewBox="0 0 25 25" fill="none" xmlns="http://www.w3.org/2000/svg">
<path fill-rule="evenodd" clip-rule="evenodd" d="M3.18303 6.29578C2.76887 6.29578 2.43312 6.63152 2.43312 7.04568C2.43312 7.45985 2.76887 7.79559 3.18303 7.79559H6.95404C6.93977 7.85338 6.93221 7.9138 6.93221 7.976V9.25967H3.18497C2.7708 9.25967 2.43506 9.59542 2.43506 10.0096C2.43506 10.4237 2.7708 10.7595 3.18497 10.7595H22.679C23.0932 10.7595 23.4289 10.4237 23.4289 10.0096C23.4289 9.59542 23.0932 9.25967 22.679 9.25967H18.9638V9.25933V7.79559H22.6771C23.0912 7.79559 23.427 7.45985 23.427 7.04568C23.427 6.63152 23.0912 6.29578 22.6771 6.29578H3.18303ZM12.1825 9.25967H8.43251V7.976C8.43251 7.9138 8.42494 7.85338 8.41068 7.79559H12.1825V9.25933V9.25967ZM17.4635 9.25967H13.6828V9.25933V7.79559H17.4635V9.25933V9.25967ZM3.18301 12.9482C2.76885 12.9482 2.43311 13.2839 2.43311 13.6981C2.43311 14.1122 2.76885 14.448 3.18301 14.448C4.70618 14.448 6.18265 16.0385 6.18265 18.2568C6.18265 18.6709 6.51839 19.0067 6.93256 19.0067C7.34672 19.0067 7.68246 18.6709 7.68246 18.2568C7.68246 15.5051 5.80148 12.9482 3.18301 12.9482ZM9.18273 16.0088C9.18273 13.938 10.8615 12.2593 12.9323 12.2593C15.0031 12.2593 16.6818 13.938 16.6818 16.0088V18.2615C16.6818 18.6756 16.3461 19.0114 15.9319 19.0114C15.5177 19.0114 15.182 18.6756 15.182 18.2615V16.0088C15.182 14.7663 14.1748 13.7591 12.9323 13.7591C11.6898 13.7591 10.6825 14.7663 10.6825 16.0088V18.2585C10.6825 18.6727 10.3468 19.0085 9.93264 19.0085C9.51848 19.0085 9.18273 18.6727 9.18273 18.2585V16.0088ZM19.6842 18.2586C19.6842 17.1319 19.9714 16.1643 20.4741 15.4982C20.9588 14.8558 21.674 14.448 22.6804 14.448C23.0946 14.448 23.4303 14.1122 23.4303 13.6981C23.4303 13.2839 23.0946 12.9482 22.6804 12.9482C21.2019 12.9482 20.044 13.5781 19.2769 14.5948C18.5277 15.5876 18.1844 16.9003 18.1844 18.2586C18.1844 18.6728 18.5201 19.0085 18.9343 19.0085C19.3484 19.0085 19.6842 18.6728 19.6842 18.2586Z" fill="currentColor"/>
</svg>
