<svg width="25" height="24" viewBox="0 0 25 24" fill="none" xmlns="http://www.w3.org/2000/svg">
<path d="M16.5062 20.0115C16.0849 20.0115 15.7379 19.6645 15.7379 19.2432V18.4439C14.5792 18.6546 13.5197 18.7661 12.5036 18.7661C11.4874 18.7661 10.3597 18.6422 9.31259 18.4005L9.25682 19.237C9.25682 19.6645 8.90984 20.0053 8.48851 20.0053C6.11542 19.8628 3.89104 18.8529 2.2243 17.1613C2.0694 17.0064 1.98885 16.7896 2.00124 16.5789C2.17473 13.7411 2.34822 10.8104 3.91582 7.52647C4.34955 6.5413 7.23071 4.58954 9.49227 4.01951C9.55423 4.00711 9.61619 3.99472 9.67815 3.99472C10.0313 3.99472 10.3349 4.23637 10.4217 4.57715C10.5208 4.99229 10.273 5.41362 9.86404 5.51275C8.07957 5.89071 6.45001 6.87589 5.26037 8.27619C4.15128 10.8228 3.58124 13.5243 3.55645 16.3001C4.70892 17.3844 6.12782 18.1093 7.66444 18.3944L7.71401 17.9358C6.68546 17.5021 5.75605 16.9631 4.93817 16.3125C4.60978 16.046 4.55402 15.5566 4.81425 15.2282C4.96296 15.0423 5.18602 14.937 5.42147 14.937C5.59496 14.937 5.76225 14.9927 5.89856 15.1042C7.70161 16.4798 9.93839 17.2357 12.2123 17.2357C12.3053 17.2357 12.4044 17.2357 12.5036 17.2357C12.5965 17.2357 12.6894 17.2357 12.7886 17.2357C15.0501 17.2357 17.2931 16.4798 19.1023 15.1042C19.2449 14.9927 19.4183 14.937 19.5918 14.937C19.8273 14.937 20.0441 15.0423 20.1867 15.2282C20.4469 15.5689 20.3911 16.0522 20.0627 16.3125C19.2387 16.9631 18.3093 17.4959 17.2931 17.8925C17.2745 17.973 17.2807 18.351 17.2807 18.351C18.8483 18.1093 20.2734 17.403 21.4259 16.3311C21.4259 13.5428 20.8558 10.8352 19.7405 8.28859C18.5509 6.88208 16.9151 5.89691 15.1307 5.51275C14.92 5.46319 14.7527 5.33927 14.6474 5.15338C14.5421 4.9737 14.5173 4.76923 14.5668 4.57095C14.6536 4.23017 14.9572 3.98853 15.3104 3.98853C15.3785 3.98853 15.4405 3.99472 15.5024 4.01331C17.764 4.58335 20.5212 6.31824 21.0727 7.52028C22.6527 10.8104 22.8262 13.7349 22.9997 16.5727C23.0059 16.7958 22.9253 17.0126 22.7766 17.1613C21.1161 18.8467 18.8979 19.8566 16.5372 20.0053H16.5124L16.5062 20.0115Z" fill="currentColor"/>
<path d="M18.5633 8.48066C18.774 8.08412 18.6129 7.59463 18.2225 7.38396C16.438 6.52891 14.4801 6.10758 12.5036 6.16334C10.527 6.11377 8.56286 6.52891 6.7846 7.38396C6.38805 7.59463 6.25174 8.09031 6.4624 8.49306C6.67307 8.87721 7.14397 9.03211 7.53432 8.83384C9.08953 8.10271 10.7934 7.74333 12.5097 7.7929C14.2261 7.74333 15.93 8.10271 17.4852 8.83384C17.8817 9.00733 18.3464 8.85862 18.5819 8.49306H18.5757L18.5633 8.48066Z" fill="currentColor"/>
<path d="M10.0685 13.4685C10.6323 13.4685 11.0847 13.01 11.0847 12.4461C11.0847 11.8823 10.6262 11.4238 10.0685 11.4238C9.51086 11.4238 9.05235 11.8823 9.05235 12.4461C9.05235 13.01 9.51086 13.4685 10.0685 13.4685Z" fill="currentColor"/>
<path d="M14.9138 13.4685C15.4777 13.4685 15.93 13.01 15.93 12.4461C15.93 11.8823 15.4715 11.4238 14.9138 11.4238C14.3562 11.4238 13.8977 11.8823 13.8977 12.4461C13.8977 13.01 14.3562 13.4685 14.9138 13.4685Z" fill="currentColor"/>
</svg>
