<svg width="25" height="24" viewBox="0 0 25 24" fill="none" xmlns="http://www.w3.org/2000/svg">
<path d="M18.9042 9.37015C18.4464 9.37015 18.086 9.74028 18.086 10.1883C18.086 10.6364 18.4561 11.0065 18.9042 11.0065C20.2581 11.0065 21.3685 12.1072 21.3685 13.4708V20.0357C21.3685 20.4838 20.9983 20.8539 20.5503 20.8539C20.4042 20.8539 20.2678 20.8149 20.1412 20.7468L17.6769 19.3247C17.5503 19.2565 17.4139 19.2175 17.2678 19.2175H12.3393C10.9854 19.2175 9.87497 18.1169 9.87497 16.7533V15.1072C9.87497 14.6494 9.50484 14.289 9.05679 14.289C8.60874 14.289 8.23861 14.6591 8.23861 15.1072V16.7533C8.23861 19.013 10.0795 20.8539 12.3393 20.8539H17.0438L19.3133 22.1688C19.6834 22.3831 20.112 22.5 20.5405 22.5C21.8944 22.5 23.0048 21.3994 23.0048 20.0357V13.4708C23.0048 11.2111 21.1639 9.37015 18.9042 9.37015Z" fill="currentColor"/>
<path d="M4.4594 14.6299C4.88797 14.6299 5.31654 14.513 5.68667 14.2987L7.95615 12.9838H12.6607C14.9204 12.9838 16.7613 11.1429 16.7613 8.88314V5.60068C16.7613 3.34094 14.9204 1.50004 12.6607 1.50004H6.09576C3.83602 1.4903 1.99512 3.3312 1.99512 5.59094V12.1559C1.99512 13.5098 3.09576 14.6201 4.4594 14.6201V14.6299ZM3.64122 5.60068C3.64122 4.24679 4.74187 3.1364 6.1055 3.1364H12.6704C14.0243 3.1364 15.1347 4.23705 15.1347 5.60068V8.88314C15.1347 10.237 14.0341 11.3474 12.6704 11.3474H7.74186C7.59576 11.3474 7.45939 11.3864 7.33277 11.4546L4.86849 12.8766C4.74187 12.9448 4.6055 12.9838 4.4594 12.9838C4.01135 12.9838 3.64122 12.6137 3.64122 12.1656V5.60068Z" fill="currentColor"/>
<path d="M6.09576 8.05522C6.54763 8.05522 6.91394 7.68891 6.91394 7.23704C6.91394 6.78517 6.54763 6.41886 6.09576 6.41886C5.64389 6.41886 5.27758 6.78517 5.27758 7.23704C5.27758 7.68891 5.64389 8.05522 6.09576 8.05522Z" fill="currentColor"/>
<path d="M9.38796 8.05522C9.83983 8.05522 10.2061 7.68891 10.2061 7.23704C10.2061 6.78517 9.83983 6.41886 9.38796 6.41886C8.93609 6.41886 8.56978 6.78517 8.56978 7.23704C8.56978 7.68891 8.93609 8.05522 9.38796 8.05522Z" fill="currentColor"/>
<path d="M12.6704 8.05522C13.1223 8.05522 13.4886 7.68891 13.4886 7.23704C13.4886 6.78517 13.1223 6.41886 12.6704 6.41886C12.2186 6.41886 11.8522 6.78517 11.8522 7.23704C11.8522 7.68891 12.2186 8.05522 12.6704 8.05522Z" fill="currentColor"/>
</svg>
