<svg width="25" height="24" viewBox="0 0 25 24" fill="none" xmlns="http://www.w3.org/2000/svg">
<path fill-rule="evenodd" clip-rule="evenodd" d="M12.1411 1.70393C12.3648 1.58201 12.6352 1.58201 12.8589 1.70393L22.6089 7.01745C22.85 7.14883 23 7.40144 23 7.676V9.00002C23 9.41423 22.6642 9.75002 22.25 9.75002H21.5V18.0118H22.25C22.6642 18.0118 23 18.3476 23 18.7618V21.7618C23 22.176 22.6642 22.5118 22.25 22.5118H2.75C2.33579 22.5118 2 22.176 2 21.7618V18.7618C2 18.3476 2.33579 18.0118 2.75 18.0118H3.5V9.75002H2.75C2.33579 9.75002 2 9.41423 2 9.00002V7.676C2 7.40144 2.15002 7.14883 2.3911 7.01745L12.1411 1.70393ZM5 18.0118H6.5V9.75002H5V18.0118ZM8 19.5118H3.5V21.0118H21.5V19.5118H17H14.75H10.25H8ZM10.25 18.0118H8V9.75002H10.25V18.0118ZM11.75 18.0118H13.25V9.75002H11.75V18.0118ZM14.75 18.0118H17V9.75002H14.75V18.0118ZM18.5 18.0118H20V9.75002H18.5V18.0118ZM21.5 8.25002H17H14.75H10.25H8H3.5V8.12141L12.5 3.21663L21.5 8.12141V8.25002Z" fill="currentColor"/>
</svg>
