<svg width="25" height="25" viewBox="0 0 25 25" fill="none" xmlns="http://www.w3.org/2000/svg">
<path fill-rule="evenodd" clip-rule="evenodd" d="M3.93417 12.2593C3.93417 7.28844 7.96386 3.25876 12.9347 3.25876C17.9056 3.25876 21.9353 7.28844 21.9353 12.2593C21.9353 17.2302 17.9056 21.2599 12.9347 21.2599C7.96386 21.2599 3.93417 17.2302 3.93417 12.2593ZM12.9347 1.75867C7.13538 1.75867 2.43408 6.45996 2.43408 12.2593C2.43408 18.0587 7.13538 22.7599 12.9347 22.7599C18.7341 22.7599 23.4354 18.0587 23.4354 12.2593C23.4354 6.45996 18.7341 1.75867 12.9347 1.75867ZM13.5555 5.08249C13.4165 4.874 13.1825 4.74874 12.9318 4.74865C12.6812 4.74856 12.4471 4.87364 12.3079 5.08203L7.80337 11.8246C7.63496 12.0767 7.63486 12.4053 7.80312 12.6575L12.3123 19.4158C12.4515 19.6245 12.686 19.7498 12.9369 19.7496C13.1878 19.7493 13.422 19.6236 13.5609 19.4146L18.0523 12.6542C18.2197 12.4023 18.2194 12.0745 18.0516 11.8229L13.5555 5.08249ZM12.6725 14.6369L10.3435 13.7622L12.9348 17.6461L15.5147 13.763L13.2011 14.6365C13.0308 14.7007 12.8429 14.7009 12.6725 14.6369ZM12.9355 13.1333L16.2802 11.8706L12.9311 6.84962L9.57604 11.8716L12.9355 13.1333Z" fill="currentColor"/>
</svg>
