<svg width="25" height="25" viewBox="0 0 25 25" fill="none" xmlns="http://www.w3.org/2000/svg">
<path fill-rule="evenodd" clip-rule="evenodd" d="M3.93359 12.2593C3.93359 7.28871 7.96303 3.25928 12.9336 3.25928C17.9042 3.25928 21.9336 7.28871 21.9336 12.2593C21.9336 17.2298 17.9042 21.2593 12.9336 21.2593C7.96303 21.2593 3.93359 17.2298 3.93359 12.2593ZM12.9336 1.75928C7.1346 1.75928 2.43359 6.46029 2.43359 12.2593C2.43359 18.0583 7.1346 22.7593 12.9336 22.7593C18.7326 22.7593 23.4336 18.0583 23.4336 12.2593C23.4336 6.46029 18.7326 1.75928 12.9336 1.75928ZM8.43359 7.77457C8.01938 7.77457 7.68359 8.11035 7.68359 8.52457C7.68359 8.93878 8.01938 9.27457 8.43359 9.27457H17.4336C17.8478 9.27457 18.1836 8.93878 18.1836 8.52457C18.1836 8.11035 17.8478 7.77457 17.4336 7.77457H8.43359ZM7.68359 12.2684C7.68359 11.8542 8.01938 11.5184 8.43359 11.5184H17.4336C17.8478 11.5184 18.1836 11.8542 18.1836 12.2684C18.1836 12.6826 17.8478 13.0184 17.4336 13.0184H8.43359C8.01938 13.0184 7.68359 12.6826 7.68359 12.2684ZM8.43359 15.2623C8.01938 15.2623 7.68359 15.5981 7.68359 16.0123C7.68359 16.4265 8.01938 16.7623 8.43359 16.7623H17.4336C17.8478 16.7623 18.1836 16.4265 18.1836 16.0123C18.1836 15.5981 17.8478 15.2623 17.4336 15.2623H8.43359Z" fill="currentColor"/>
</svg>
