<svg width="24" height="24" viewBox="0 0 24 24" fill="none" xmlns="http://www.w3.org/2000/svg">
<path d="M12 22.6668C11.8528 22.6668 11.7142 22.637 11.5844 22.5773L3.15147 18.8179C2.84844 18.6836 2.66663 18.4225 2.66663 18.1316V13.9769C2.66663 13.6859 2.84844 13.4249 3.15147 13.2906L6.04325 12.0002L3.15147 10.7097C2.84844 10.5755 2.66663 10.3144 2.66663 10.0235V5.86869C2.66663 5.57779 2.84844 5.31671 3.15147 5.18245L11.5844 1.42301C11.7142 1.36333 11.8528 1.3335 12 1.3335C12.1471 1.3335 12.2857 1.36333 12.4155 1.42301L20.8484 5.18245C21.1515 5.31671 21.3333 5.57779 21.3333 5.86869V10.0235C21.3333 10.3144 21.1515 10.5755 20.8484 10.7097L17.9567 12.0002L20.8484 13.2906C21.1515 13.4249 21.3333 13.6859 21.3333 13.9769V18.1316C21.3333 18.4225 21.1515 18.6836 20.8484 18.8179L12.4155 22.5773C12.2857 22.637 12.1471 22.6668 12 22.6668ZM12 21.0258L19.5324 17.6617V15.2449L12.4069 18.4225C12.2857 18.4822 12.1385 18.5121 11.9913 18.5121C11.8441 18.5121 11.7056 18.4822 11.5757 18.4225L4.45018 15.2449V17.6617L11.9913 21.0258H12ZM12 16.871L18.4848 13.9769L16 12.8729L12.4155 14.4692C12.2857 14.5288 12.1471 14.5587 12 14.5587C11.8528 14.5587 11.7142 14.5288 11.5844 14.4692L7.99996 12.8729L5.51511 13.9769L12 16.871ZM12 12.9102L19.5324 9.55354V7.13676L12.4069 10.3144C12.277 10.3741 12.1385 10.4039 11.9913 10.4039C11.8441 10.4039 11.7056 10.3741 11.5757 10.3144L4.45883 7.13676V9.55354L12 12.9102ZM12 8.75541L18.4762 5.86124L12 2.96706L5.51511 5.86124L12 8.75541Z" fill="currentColor"/>
</svg>
