<svg width="24" height="24" viewBox="0 0 24 24" fill="none" xmlns="http://www.w3.org/2000/svg">
<g clip-path="url(#clip0_11123_14490)">
<path fill-rule="evenodd" clip-rule="evenodd" d="M19.3815 1.79954C20.0178 1.9239 20.6341 2.24641 21.1948 2.8071C21.7498 3.36207 22.0787 3.96656 22.2133 4.59296C22.3468 5.2146 22.2788 5.80987 22.1154 6.33753C21.7953 7.37115 21.088 8.21635 20.6132 8.69117L8.67664 20.6277C8.56491 20.7394 8.42075 20.813 8.26473 20.8379L3.21593 21.6448C2.97854 21.6827 2.73734 21.6045 2.56735 21.4345C2.39736 21.2645 2.31918 21.0234 2.35711 20.786L3.16396 15.7372C3.1889 15.5811 3.26248 15.437 3.3742 15.3252L15.3107 3.38873C15.7416 2.95788 16.5838 2.25641 17.6215 1.92508C18.1502 1.75628 18.7522 1.67654 19.3815 1.79954ZM18.0777 3.35379C17.3627 3.58205 16.7211 4.09932 16.3712 4.44922L16.2085 4.61192L19.39 7.79339L19.5527 7.63068C19.9562 7.22716 20.4676 6.5885 20.6827 5.89388C20.7869 5.55742 20.8156 5.22747 20.747 4.90794C20.6793 4.59318 20.5073 4.24055 20.1343 3.86759C19.7671 3.50036 19.414 3.33401 19.0939 3.27145C18.7668 3.20753 18.4253 3.24279 18.0777 3.35379ZM18.3295 8.85387L15.148 5.67241L4.96493 15.8555L8.14639 19.037L18.3295 8.85387ZM6.57728 19.5888L4.41308 17.4246L4.00143 20.0005L6.57728 19.5888Z" fill="white"/>
</g>
<defs>
<clipPath id="clip0_11123_14490">
<rect width="23.9961" height="23.9961" fill="white" transform="translate(0.00195312 0.00195312)"/>
</clipPath>
</defs>
</svg>
