<svg width="25" height="24" viewBox="0 0 25 24" fill="none" xmlns="http://www.w3.org/2000/svg">
<path fill-rule="evenodd" clip-rule="evenodd" d="M9.5 4.125C9.5 3.50368 10.0037 3 10.625 3C11.2463 3 11.75 3.50368 11.75 4.125C11.75 4.74632 11.2463 5.25 10.625 5.25C10.0037 5.25 9.5 4.74632 9.5 4.125ZM10.625 1.5C11.3595 1.5 12.0236 1.80168 12.5 2.28788C12.9764 1.80168 13.6405 1.5 14.375 1.5C15.8247 1.5 17 2.67525 17 4.125C17 4.5276 16.9094 4.90903 16.7474 5.25H22.25C22.6642 5.25 23 5.58579 23 6V10.5C23 10.9142 22.6642 11.25 22.25 11.25H20.75V21.75C20.75 22.1642 20.4142 22.5 20 22.5H12.5H5C4.58579 22.5 4.25 22.1642 4.25 21.75V11.25H2.75C2.33579 11.25 2 10.9142 2 10.5V6C2 5.58579 2.33579 5.25 2.75 5.25H8.25261C8.09063 4.90903 8 4.5276 8 4.125C8 2.67525 9.17525 1.5 10.625 1.5ZM14.375 3C13.7537 3 13.25 3.50368 13.25 4.125C13.25 4.74632 13.7537 5.25 14.375 5.25C14.9963 5.25 15.5 4.74632 15.5 4.125C15.5 3.50368 14.9963 3 14.375 3ZM13.25 6.75H14.375H21.5V9.75H20H13.25V6.75ZM11.75 6.75H10.625H3.5V9.75H5H11.75V6.75ZM11.75 11.25V21H5.75V11.25H11.75ZM19.25 21H13.25V11.25H19.25V21Z" fill="white"/>
</svg>
