<svg width="81" height="61" viewBox="0 0 81 61" fill="none" xmlns="http://www.w3.org/2000/svg">
<path d="M55.2146 58.0551L57.3057 58.4687L61.2444 59.2132C63.774 59.6636 66.0488 60.0246 67.9891 60.2214C71.8251 60.7189 74.2216 60.7894 74.2741 60.3003C74.3266 59.8111 72.0311 58.8754 68.2819 57.7497C66.4015 57.1835 64.1535 56.5638 61.6591 55.9462L57.7336 54.9929L57.1925 54.8681C59.3916 54.4246 61.5429 53.8141 63.627 53.0421C66.0737 52.1564 68.3981 51.0062 70.558 49.6125C73.6203 47.687 76.163 45.0972 77.9996 42.0332C79.1172 40.1194 79.8798 38.0173 80.2547 35.8174C80.4499 34.6004 80.5134 33.3605 80.4443 32.1174C80.3524 30.8035 80.1215 29.4952 79.7553 28.2132C77.8949 22.7467 74.2379 17.944 69.3635 14.5658C64.4571 11.1902 59.0152 8.65912 53.2927 7.09105C47.7843 5.45474 42.4048 4.15261 37.2105 3.08727C28.448 1.16756 19.5309 0.293924 10.6618 0.486242C3.95447 0.740647 0.0759482 1.77694 0.160914 2.02801C0.24588 2.27908 4.26433 1.92964 10.8764 2.21187C19.5945 2.6414 28.2901 3.95249 36.8216 6.12378C41.8512 7.36821 47.2132 8.83339 52.4544 10.5608C57.6169 12.1113 62.5096 14.5065 66.9145 17.6395C70.8454 20.4538 73.7823 24.395 75.2748 28.8586C76.2558 32.545 75.7197 36.3824 73.7825 39.5408C72.2497 42.1094 70.1526 44.3027 67.6308 45.9744C65.7325 47.255 63.7064 48.3557 61.5787 49.2622C59.3102 50.2179 57.5675 50.9 56.1775 51.3961C56.3779 50.7038 56.5774 50.0398 56.7706 49.3865C57.4052 47.1989 57.9273 45.206 58.3037 43.5186C58.6259 42.1586 58.8609 40.7763 59.0073 39.3795C59.0549 39.0724 58.9826 38.7532 58.8044 38.4832C58.7381 38.3933 58.6444 38.3255 58.5377 38.2899C58.431 38.2543 58.317 38.253 58.2131 38.2861C58.0678 38.341 57.9414 38.432 57.846 38.5503C57.7842 38.572 57.726 38.6014 57.6728 38.6379C57.643 38.7302 57.5941 38.8148 57.5291 38.8868C56.8262 40.037 56.2021 41.2334 55.6603 42.4687C54.9538 44.0376 54.1538 45.9277 53.3457 48.0441C52.9443 49.111 52.5294 50.2279 52.0958 51.3772C51.8734 52.028 51.6447 52.6896 51.4097 53.362C51.1197 53.8895 51.011 54.5001 51.0988 55.1093C51.1865 55.7185 51.4664 56.2959 51.8995 56.7615C52.3796 57.2138 52.9822 57.5214 53.6279 57.644L55.2813 57.9926" fill="white"/>
</svg>
