<svg width="25" height="25" viewBox="0 0 25 25" fill="none" xmlns="http://www.w3.org/2000/svg">
<path d="M22.0901 3.43822V9.15134C22.0901 9.62372 21.7069 10.0089 21.2324 10.0089C20.758 10.0089 20.3748 9.62575 20.3748 9.15134V5.50816L11.5528 14.3292C11.3865 14.4955 11.1655 14.5806 10.9465 14.5806C10.7276 14.5806 10.5086 14.4975 10.3403 14.3292C10.0057 13.9947 10.0057 13.4514 10.3403 13.1169L19.1643 4.29377H15.5207C15.0483 4.29377 14.6631 3.91059 14.6631 3.43619C14.6631 2.96179 15.0463 2.58064 15.5187 2.58064H21.2324C21.7069 2.58064 22.0901 2.96381 22.0901 3.43822ZM21.2324 12.8655C20.76 12.8655 20.3748 13.2487 20.3748 13.7231V19.4362C20.3748 20.2228 19.734 20.8655 18.9453 20.8655H5.23283C4.44613 20.8655 3.80339 20.2248 3.80339 19.4362V5.72306C3.80339 4.93644 4.4441 4.29377 5.23283 4.29377H10.9465C11.419 4.29377 11.8042 3.91059 11.8042 3.43619C11.8042 2.96179 11.421 2.57861 10.9465 2.57861H5.23283C3.49925 2.58064 2.09009 3.98966 2.09009 5.72306V19.4362C2.09009 21.1696 3.49925 22.5786 5.23283 22.5786H18.9473C20.6809 22.5786 22.0901 21.1696 22.0901 19.4362V13.7231C22.0901 13.2507 21.7069 12.8655 21.2324 12.8655Z" fill="white"/>
</svg>
