<svg width="16" height="17" viewBox="0 0 16 17" fill="none" xmlns="http://www.w3.org/2000/svg">
<path fill-rule="evenodd" clip-rule="evenodd" d="M8.00406 14.1911C11.1788 14.1911 13.7535 11.6163 13.7535 8.44162C13.7535 5.26691 11.1788 2.69215 8.00406 2.69215C4.82935 2.69215 2.25459 5.26691 2.25459 8.44162C2.25459 11.6163 4.82935 14.1911 8.00406 14.1911ZM8.00406 15.441C11.8687 15.441 15.0034 12.3063 15.0034 8.44162C15.0034 4.57697 11.8687 1.44226 8.00406 1.44226C4.13941 1.44226 1.0047 4.57697 1.0047 8.44162C1.0047 12.3063 4.13941 15.441 8.00406 15.441Z" fill="#101010"/>
<path fill-rule="evenodd" clip-rule="evenodd" d="M8.00406 7.00175C8.34903 7.00175 8.629 7.28173 8.629 7.62669V11.6263C8.629 11.9713 8.34903 12.2513 8.00406 12.2513C7.65909 12.2513 7.37912 11.9713 7.37912 11.6263V7.62669C7.37912 7.28173 7.65909 7.00175 8.00406 7.00175Z" fill="#101010"/>
<path d="M8.00406 5.87685C8.34921 5.87685 8.629 5.59706 8.629 5.25191C8.629 4.90677 8.34921 4.62697 8.00406 4.62697C7.65891 4.62697 7.37912 4.90677 7.37912 5.25191C7.37912 5.59706 7.65891 5.87685 8.00406 5.87685Z" fill="#101010"/>
</svg>

