<svg width="17" height="17" viewBox="0 0 17 17" fill="none" xmlns="http://www.w3.org/2000/svg">
<path fill-rule="evenodd" clip-rule="evenodd" d="M8.49997 14.2494C11.6747 14.2494 14.2494 11.6747 14.2494 8.49997C14.2494 5.32526 11.6747 2.7505 8.49997 2.7505C5.32526 2.7505 2.7505 5.32526 2.7505 8.49997C2.7505 11.6747 5.32526 14.2494 8.49997 14.2494ZM8.49997 15.4993C12.3646 15.4993 15.4993 12.3646 15.4993 8.49997C15.4993 4.63532 12.3646 1.50061 8.49997 1.50061C4.63532 1.50061 1.50061 4.63532 1.50061 8.49997C1.50061 12.3646 4.63532 15.4993 8.49997 15.4993Z" fill="#101010"/>
<path fill-rule="evenodd" clip-rule="evenodd" d="M8.49997 7.0601C8.84494 7.0601 9.12491 7.34008 9.12491 7.68504V11.6847C9.12491 12.0296 8.84494 12.3096 8.49997 12.3096C8.155 12.3096 7.87503 12.0296 7.87503 11.6847V7.68504C7.87503 7.34008 8.155 7.0601 8.49997 7.0601Z" fill="#101010"/>
<path d="M8.49997 5.9352C8.84512 5.9352 9.12491 5.65541 9.12491 5.31026C9.12491 4.96512 8.84512 4.68532 8.49997 4.68532C8.15482 4.68532 7.87503 4.96512 7.87503 5.31026C7.87503 5.65541 8.15482 5.9352 8.49997 5.9352Z" fill="#101010"/>
</svg>
