
<svg xmlns="http://www.w3.org/2000/svg" xmlns:xlink="http://www.w3.org/1999/xlink" version="1.1" viewBox="0 0 41.35 41.35">
  <path fill-rule="evenodd" clip-rule="evenodd" d="M20.67 0C9.25429 0 0 9.25429 0 20.67C0 32.0858 9.25429 41.3401 20.67 41.3401C32.0858 41.3401 41.3401 32.0858 41.3401 20.67C41.3401 9.25429 32.0858 0 20.67 0ZM31.5781 17.5201H27.8634C26.4776 17.5201 25.1781 18.1935 24.3789 19.3256L20.78 24.4241C19.0218 26.9149 16.163 28.3962 13.1142 28.3962H10.0392V23.2781H13.1142C14.5 23.2781 15.7994 22.6047 16.5986 21.4726L20.1976 16.3741C21.9558 13.8833 24.8146 12.402 27.8634 12.402H31.5781V17.5201Z" fill="#FF5500"></path>
</svg>