<svg width="221" height="180" viewBox="0 0 221 180" fill="none" xmlns="http://www.w3.org/2000/svg">
<g clip-path="url(#clip0_10047_1432)">
<path d="M3.33984 98.2075C3.33984 101.238 5.56146 104.416 9.93107 106.931L13.7115 109.078L90.2288 153.309C98.1456 157.825 110.211 158.34 117.023 154.414L200.353 106.33L218.482 95.8272L109.401 32.8728L8.0163 91.4593C4.91094 93.2383 3.35213 95.68 3.35213 98.1952L3.33984 98.2075Z" fill="#FFEEDA" stroke="#101010" stroke-width="1.5" stroke-linejoin="round"/>
<path d="M87.6757 151.837L110.96 138.39C115.759 135.617 115.158 130.783 109.622 127.593C104.086 124.403 95.7153 124.047 90.9161 126.82L67.632 140.267L87.688 151.837H87.6757Z" fill="#FFEEDA" stroke="#101010" stroke-width="1.5" stroke-linejoin="round"/>
<path d="M93.9164 136.977C96.436 138.43 100.526 138.43 103.053 136.977C105.573 135.524 105.573 133.159 103.053 131.706C100.533 130.253 96.4433 130.253 93.9164 131.706C91.3967 133.159 91.3967 135.524 93.9164 136.977Z" fill="#101010" stroke="#101010" stroke-width="1.5" stroke-linejoin="round"/>
<path d="M3.33984 98.2072V119.139C3.33984 122.169 5.56146 125.347 9.93107 127.862L40.0519 145.248L60.1079 156.867L90.2288 174.253C98.1456 178.768 110.211 179.284 117.023 175.357L218.482 116.771V95.8392L200.353 106.342L117.023 154.426C110.211 158.352 98.1579 157.824 90.2288 153.321L60.1079 135.936L40.0519 124.317L13.7115 109.078L9.93107 106.931C5.56146 104.416 3.33984 101.238 3.33984 98.2072Z" fill="#FFEEDA" stroke="#101010" stroke-width="1.5" stroke-linejoin="round"/>
<path d="M3.33984 104.759V112.526C3.33984 115.556 5.56146 118.734 9.93107 121.249L13.7115 123.396L90.2288 167.628C98.1456 172.143 110.211 172.658 117.023 168.732L200.353 120.648L213.965 112.734V104.968L200.353 112.882L117.023 160.965C110.211 164.892 98.1579 164.364 90.2288 159.861L13.7115 115.63L9.93107 113.483C5.56146 110.967 3.33984 107.79 3.33984 104.759Z" fill="#101010" stroke="#101010" stroke-width="1.5" stroke-linejoin="round"/>
<path d="M67.6318 140.255V161.186L87.6756 172.805V151.862L67.6318 140.255Z" fill="#FFEEDA" stroke="#101010" stroke-width="1.5" stroke-linejoin="round"/>
<path d="M75.021 119.151L148.138 76.9569C150.605 75.5336 150.335 73.0306 147.537 71.3865L140.86 67.4849C138.061 65.853 135.017 66.4297 132.55 67.8529L59.4328 110.047C56.9657 111.471 57.2357 113.974 60.0342 115.618L65.4349 118.771C68.2334 120.403 72.5539 120.575 75.021 119.151Z" fill="#A3D1C8" stroke="#101010" stroke-width="1.5" stroke-linecap="round"/>
<mask id="mask0_10047_1432" style="mask-type:luminance" maskUnits="userSpaceOnUse" x="34" y="-29" width="150" height="171">
<path d="M34.6636 141.702L39.4627 55.1785L183.697 -28.0573L178.897 58.4667L34.6636 141.702Z" fill="white"/>
</mask>
<g mask="url(#mask0_10047_1432)">
<path d="M107.413 20.9582C117.588 15.0812 126.818 14.5536 133.495 18.4184L137.816 20.9214C131.138 17.0443 121.908 17.5841 111.733 23.4612C91.5052 35.1294 75.1192 63.5208 75.1806 86.7468C75.2174 98.2801 79.3047 106.415 85.8959 110.243L81.5754 107.74C74.9841 103.912 70.8969 95.7894 70.86 84.2439C70.7987 61.0179 87.1847 32.6264 107.413 20.9582Z" fill="#F4CB97" stroke="#101010" stroke-width="1.5"/>
<path d="M148.519 44.4172C148.58 67.6432 132.194 96.0347 111.966 107.703C91.7383 119.371 75.2418 109.96 75.1805 86.7467C75.1191 63.5207 91.5051 35.1293 111.733 23.4611C131.961 11.7928 148.457 21.1912 148.519 44.4172Z" fill="white" stroke="#101010" stroke-width="1.5" stroke-linejoin="round"/>
<path d="M126.732 63.0966V42.1282C126.708 40.3859 125.579 39.662 124.155 40.5086L106.443 51.1462C102.626 53.5142 99.5574 59.2195 99.5574 63.9678C99.5574 65.5751 99.9011 66.7283 100.429 67.6117C100.871 68.3479 101.583 68.851 102.282 69.1332C102.466 69.2191 102.38 69.1945 102.994 69.2804C103.829 69.4031 104.786 69.1332 104.786 69.1332V81.6602C104.811 82.2492 104.872 82.7645 104.97 83.2307C105.351 84.7521 106.345 85.5128 107.707 85.3779C108.272 85.3165 108.91 85.108 109.573 84.7276L123.701 76.3108C126.524 74.6176 128.794 70.4092 128.794 66.9247C128.794 64.8143 127.984 63.4402 126.72 63.0721L126.732 63.0966Z" fill="#FFEEDA"/>
<path d="M127.051 68.1144C126.99 70.3842 125.505 73.0835 123.676 74.1877L113.955 79.9789C114.728 78.4084 115.194 76.6785 115.194 75.1202C115.194 72.6541 113.992 71.6725 113.992 71.6725L123.676 65.8568C125.542 64.7403 127.051 65.685 127.051 68.004V68.1267V68.1144Z" fill="#EBC28E"/>
<path d="M103.215 66.777C102.098 66.139 101.301 64.9121 101.301 62.8999V62.679C101.387 59.1945 103.682 55.0474 106.456 53.2806L124.167 42.6431C124.634 42.3854 125.002 42.5695 125.002 43.1461V61.6484C125.407 61.5012 125.616 61.4275 125.996 61.3785C126.303 61.3171 126.745 61.3785 126.745 61.3785V42.0909C126.72 40.3487 125.591 39.6248 124.167 40.4714L106.456 51.109C102.638 53.477 99.5699 59.1822 99.5699 63.9305C99.5699 66.6911 100.589 68.4211 102.246 69.0714C102.344 69.1082 102.467 69.1941 102.773 69.0101C103.301 68.691 103.67 67.9672 103.645 67.4028C103.584 66.9856 103.424 66.912 103.203 66.7648L103.215 66.777Z" fill="#190602"/>
<path d="M123.701 63.6851L109.806 72.0282C108.873 72.5926 108.125 73.9914 108.125 75.1447V77.6109C108.149 78.7274 108.935 79.2304 109.868 78.666L110.899 78.0403V75.9299L109.868 76.5557V74.1509L110.432 73.8073C112.175 72.7522 113.476 73.9914 113.476 76.1508C113.476 78.0648 112.077 81.3408 109.72 82.5554C107.634 83.6351 106.517 82.0278 106.517 80.3347V59.4153C106.517 58.4583 105.891 58.0902 105.142 58.5319L103.767 59.3662V61.5011L104.798 60.8753V81.3653C104.737 85.5737 107.192 86.1994 109.757 84.6658L123.75 76.3103C126.573 74.6171 128.843 70.4087 128.843 66.9242C128.807 63.4396 126.524 61.9919 123.701 63.6851ZM127.051 68.1143C126.99 70.3841 125.505 73.0834 123.676 74.1877L113.955 79.9788C114.728 78.4084 115.195 76.6784 115.195 75.1202C115.195 72.654 113.992 71.6725 113.992 71.6725L123.676 65.8567C125.542 64.7402 127.051 65.685 127.051 68.0039V68.1266V68.1143Z" fill="#190602"/>
<path d="M119.969 52.115L109.512 58.3969V56.262L119.969 49.9801C120.436 49.6979 120.816 49.9433 120.816 50.5199C120.816 51.1211 120.436 51.8328 119.969 52.115Z" fill="#190602"/>
<path d="M119.969 62.213L109.512 68.4949V66.36L119.969 60.0781C120.436 59.7959 120.816 60.0413 120.816 60.6179C120.816 61.2191 120.436 61.9308 119.969 62.213Z" fill="#190602"/>
<path d="M121.81 56.0535L109.499 63.452V61.3171L121.81 53.9187C122.277 53.6365 122.657 53.8819 122.657 54.4585C122.657 55.0597 122.277 55.7713 121.81 56.0535Z" fill="#190602"/>
</g>
</g>
<defs>
<clipPath id="clip0_10047_1432">
<rect width="220" height="180" fill="white" transform="translate(0.910889)"/>
</clipPath>
</defs>
</svg>
