<svg width="221" height="180" viewBox="0 0 221 180" fill="none" xmlns="http://www.w3.org/2000/svg">
<g>
<path d="M21.8217 94.2152C21.8217 96.7251 23.6616 99.3569 27.2804 101.44L30.4114 103.218L93.7822 139.85C100.339 143.59 110.331 144.016 115.973 140.765L184.986 100.942L200 92.244L109.661 40.1057L25.6947 88.6265C23.1228 90.0999 21.8318 92.122 21.8318 94.2051L21.8217 94.2152Z" fill="#FFEEDA" stroke="#101010" stroke-width="1.5" stroke-linejoin="round"/>
<path d="M91.6678 138.631L110.951 127.494C114.926 125.197 114.428 121.194 109.843 118.552C105.259 115.91 98.3261 115.615 94.3515 117.912L75.0677 129.049L91.678 138.631H91.6678Z" fill="#FFEEDA" stroke="#101010" stroke-width="1.5" stroke-linejoin="round"/>
<path d="M96.8362 126.324C98.923 127.527 102.31 127.527 104.403 126.324C106.49 125.121 106.49 123.162 104.403 121.959C102.316 120.755 98.929 120.755 96.8362 121.959C94.7494 123.162 94.7494 125.121 96.8362 126.324Z" fill="#101010" stroke="#101010" stroke-width="1.5" stroke-linejoin="round"/>
<path d="M21.8217 94.2151V111.55C21.8217 114.06 23.6616 116.692 27.2804 118.775L52.2263 133.174L68.8364 142.797L93.7822 157.196C100.339 160.935 110.331 161.362 115.973 158.11L200 109.589V92.2539L184.986 100.952L115.973 140.775C110.331 144.026 100.349 143.589 93.7822 139.86L68.8364 125.461L52.2263 115.839L30.4114 103.218L27.2804 101.44C23.6616 99.3567 21.8217 96.7249 21.8217 94.2151Z" fill="#FFEEDA" stroke="#101010" stroke-width="1.5" stroke-linejoin="round"/>
<path d="M21.8217 99.6414V106.074C21.8217 108.583 23.6616 111.215 27.2804 113.298L30.4114 115.077L93.7822 151.708C100.339 155.448 110.331 155.875 115.973 152.623L184.986 112.8L196.259 106.246V99.8141L184.986 106.368L115.973 146.191C110.331 149.442 100.349 149.006 93.7822 145.276L30.4114 108.644L27.2804 106.866C23.6616 104.783 21.8217 102.151 21.8217 99.6414Z" fill="#101010" stroke="#101010" stroke-width="1.5" stroke-linejoin="round"/>
<path d="M75.0676 129.038V146.374L91.6677 155.997V138.651L75.0676 129.038Z" fill="#FFEEDA" stroke="#101010" stroke-width="1.5" stroke-linejoin="round"/>
<path d="M81.1873 111.561L141.742 76.6157C143.786 75.437 143.562 73.3641 141.244 72.0024L135.714 68.7711C133.397 67.4196 130.876 67.8972 128.832 69.0759L68.2773 104.021C66.234 105.2 66.4576 107.273 68.7753 108.634L73.2481 111.246C75.5658 112.597 79.144 112.74 81.1873 111.561Z" fill="#A3D1C8" stroke="#101010" stroke-width="1.5" stroke-linecap="round"/>
<mask id="mask0_10047_1432" style="mask-type:luminance" maskUnits="userSpaceOnUse" x="47" y="-11" width="125" height="142">
<path d="M47.7637 130.237L51.7383 58.5791L171.191 -10.356L167.217 61.3024L47.7637 130.237Z" fill="white"/>
</mask>
<g mask="url(#mask0_10047_1432)">
<path d="M108.014 30.2382C116.441 25.3709 124.085 24.934 129.615 28.1348L133.193 30.2077C127.663 26.9967 120.019 27.4438 111.592 32.3112C94.8394 41.9747 81.2686 65.4882 81.3195 84.7237C81.35 94.2755 84.735 101.013 90.1938 104.183L86.6156 102.11C81.1568 98.9396 77.7717 92.2127 77.7412 82.6508C77.6904 63.4153 91.2612 39.9017 108.014 30.2382Z" fill="#F4CB97" stroke="#101010" stroke-width="1.5"/>
<path d="M142.057 49.6668C142.108 68.9023 128.538 92.4159 111.785 102.079C95.0325 111.743 81.3703 103.949 81.3195 84.7237C81.2687 65.4881 94.8394 41.9746 111.592 32.3111C128.344 22.6476 142.007 30.4312 142.057 49.6668Z" fill="white" stroke="#101010" stroke-width="1.5" stroke-linejoin="round"/>
<path d="M124.014 65.137V47.7712C123.994 46.3282 123.059 45.7287 121.88 46.4298L107.211 55.2398C104.05 57.201 101.508 61.926 101.508 65.8585C101.508 67.1896 101.793 68.1448 102.23 68.8764C102.596 69.4861 103.185 69.9027 103.765 70.1364C103.917 70.2076 103.846 70.1873 104.354 70.2584C105.046 70.36 105.839 70.1364 105.839 70.1364V80.5112C105.859 80.999 105.91 81.4258 105.991 81.8119C106.306 83.0719 107.13 83.7019 108.258 83.5902C108.726 83.5394 109.254 83.3666 109.803 83.0516L121.503 76.0809C123.842 74.6786 125.722 71.1932 125.722 68.3074C125.722 66.5596 125.051 65.4215 124.004 65.1167L124.014 65.137Z" fill="#FFEEDA"/>
<path d="M124.278 69.2924C124.228 71.1723 122.998 73.4078 121.483 74.3223L113.432 79.1185C114.072 77.8179 114.459 76.3851 114.459 75.0946C114.459 73.0522 113.462 72.2392 113.462 72.2392L121.483 67.4227C123.028 66.498 124.278 67.2805 124.278 69.201V69.3026V69.2924Z" fill="#EBC28E"/>
<path d="M104.538 68.1849C103.613 67.6565 102.952 66.6404 102.952 64.9739V64.791C103.023 61.9052 104.924 58.4706 107.221 57.0074L121.89 48.1974C122.276 47.984 122.581 48.1365 122.581 48.6141V63.9375C122.917 63.8155 123.09 63.7546 123.405 63.7139C123.659 63.6631 124.025 63.7139 124.025 63.7139V47.7402C124.004 46.2972 123.069 45.6977 121.89 46.3988L107.221 55.2088C104.06 57.17 101.519 61.895 101.519 65.8275C101.519 68.1138 102.362 69.5465 103.735 70.0851C103.816 70.1156 103.918 70.1867 104.172 70.0343C104.609 69.7701 104.914 69.1706 104.894 68.7032C104.843 68.3577 104.711 68.2967 104.528 68.1748L104.538 68.1849Z" fill="#190602"/>
<path d="M121.503 65.6242L109.996 72.5339C109.224 73.0013 108.604 74.1597 108.604 75.1149V77.1574C108.624 78.0821 109.274 78.4987 110.047 78.0312L110.901 77.513V75.7653L110.047 76.2835V74.2918L110.515 74.0073C111.958 73.1334 113.036 74.1597 113.036 75.9482C113.036 77.5333 111.877 80.2464 109.925 81.2524C108.197 82.1466 107.272 80.8155 107.272 79.4132V62.088C107.272 61.2954 106.753 60.9905 106.133 61.3563L104.995 62.0473V63.8154L105.849 63.2972V80.2668C105.798 83.7521 107.831 84.2704 109.955 83.0002L121.544 76.0803C123.882 74.678 125.763 71.1926 125.763 68.3067C125.732 65.4209 123.841 64.2219 121.503 65.6242ZM124.278 69.2924C124.228 71.1723 122.998 73.4078 121.483 74.3223L113.432 79.1185C114.072 77.8179 114.459 76.3851 114.459 75.0946C114.459 73.0522 113.463 72.2392 113.463 72.2392L121.483 67.4227C123.028 66.498 124.278 67.2805 124.278 69.201V69.3026V69.2924Z" fill="#190602"/>
<path d="M118.413 56.0419L109.752 61.2445V59.4764L118.413 54.2738C118.799 54.04 119.114 54.2433 119.114 54.7209C119.114 55.2188 118.799 55.8082 118.413 56.0419Z" fill="#190602"/>
<path d="M118.413 64.405L109.752 69.6076V67.8396L118.413 62.6369C118.799 62.4032 119.114 62.6064 119.114 63.084C119.114 63.5819 118.799 64.1713 118.413 64.405Z" fill="#190602"/>
<path d="M119.938 59.3038L109.742 65.4311V63.6631L119.938 57.5357C120.324 57.302 120.639 57.5052 120.639 57.9828C120.639 58.4807 120.324 59.0701 119.938 59.3038Z" fill="#190602"/>
</g>
</g>
<defs>

</defs>
</svg>
