<svg width="32" height="33" viewBox="0 0 32 33" fill="none" xmlns="http://www.w3.org/2000/svg">
<path d="M2.22243 29.9389C1.6224 29.9389 1.10194 29.7185 0.661029 29.2778C0.220343 28.8369 0 28.3165 0 27.7164V22.1385C0 21.8783 0.0481133 21.6181 0.14434 21.3578C0.240788 21.0976 0.385239 20.8652 0.577692 20.6608L3.44448 17.4607C3.65938 17.2162 3.92428 17.0921 4.23919 17.0883C4.55387 17.0845 4.82143 17.1929 5.04189 17.4133C5.24367 17.6151 5.35201 17.8679 5.3669 18.1717C5.38179 18.4755 5.28923 18.7385 5.08922 18.9607L2.3001 22.0495H21.701L19.0675 19.0494C18.8675 18.8272 18.7765 18.5685 18.7945 18.2734C18.8127 17.978 18.9212 17.7289 19.1198 17.526C19.3367 17.3046 19.6063 17.1957 19.9285 17.1993C20.2508 17.2031 20.5193 17.3272 20.7342 17.5717L23.4454 20.6608C23.638 20.8608 23.7788 21.0916 23.8677 21.3532C23.9566 21.6149 24.0011 21.8767 24.0011 22.1385V27.7164C24.0011 28.3165 23.7807 28.8369 23.34 29.2778C22.8991 29.7185 22.3786 29.9389 21.7786 29.9389H2.22243ZM2.22243 27.7164H21.7786V24.2719H2.22243V27.7164ZM10.5448 19.7718L5.44457 14.6715C4.99277 14.2197 4.78354 13.6956 4.81688 13.0991C4.85021 12.5029 5.08545 11.9862 5.52258 11.5491L12.4115 4.66009C12.8329 4.24429 13.3549 4.0274 13.9776 4.00939C14.6003 3.99117 15.1302 4.20062 15.5673 4.63775L20.6676 9.73798C21.0898 10.1602 21.3084 10.6677 21.3233 11.2604C21.3379 11.8528 21.1119 12.3824 20.6452 12.8491L13.7116 19.7828C13.2894 20.205 12.769 20.4217 12.1505 20.4328C11.5321 20.4439 10.9968 20.2235 10.5448 19.7718ZM18.9118 11.238L14.0116 6.33783L7.18932 13.1605L12.0895 18.0607L18.9118 11.238Z" fill="#FFF8F3"/>
</svg>
