<svg width="486" height="265" viewBox="0 0 486 265" fill="none" xmlns="http://www.w3.org/2000/svg">
<path d="M242.735 181.212L242.934 181.1L243.134 181.212L364.061 250.733L484.381 181.555L242.934 42.6406L1.48779 181.555L121.808 250.733L242.735 181.212Z" fill="#FFEEDA" stroke="#101010" stroke-width="1.5" stroke-linejoin="round"/>
<path d="M121.816 250.757L121.616 250.646L1.08838 181.356V194.22L121.808 263.629L242.735 194.1L242.934 193.988L243.134 194.1L364.061 263.629L484.788 194.22V181.356L364.26 250.646L364.061 250.757L363.861 250.646L242.934 181.125L122.007 250.646" stroke="#101010" stroke-width="1.5" stroke-linejoin="round"/>
<path d="M162.697 156.985L162.002 157.384L162.402 158.078L163.096 157.679L162.697 156.985ZM162.753 158.669L163.152 159.363L163.847 158.964L163.447 158.27L162.753 158.669ZM162.402 158.078L162.745 158.677L164.126 157.879L163.783 157.28L162.402 158.078Z" fill="#101010"/>
<path d="M160.223 110.941L243.302 159.212L325.982 110.941L243.701 62.7742L160.223 110.941Z" stroke="#101010" stroke-width="1.5" stroke-linecap="round" stroke-linejoin="round"/>
<path d="M281.333 137.45C282.155 137.929 283.257 138.176 284.382 138.176C285.508 138.176 286.609 137.929 287.432 137.45C288.254 136.971 288.581 136.405 288.581 135.918C288.581 135.431 288.262 134.865 287.432 134.386C286.609 133.907 285.508 133.66 284.382 133.66C283.257 133.66 282.155 133.907 281.333 134.386C280.51 134.865 280.183 135.431 280.183 135.918C280.183 136.405 280.502 136.971 281.333 137.45Z" fill="#C69960" stroke="#101010" stroke-width="1.5" stroke-linejoin="round"/>
<path d="M198.429 134.386C197.607 134.865 197.279 135.431 197.279 135.918C197.279 136.405 197.599 136.971 198.429 137.45C199.251 137.929 200.353 138.176 201.478 138.176C202.604 138.176 203.706 137.929 204.528 137.45C205.35 136.971 205.677 136.405 205.677 135.918C205.677 135.431 205.358 134.865 204.528 134.386C203.706 133.907 202.604 133.66 201.478 133.66C200.353 133.66 199.251 133.907 198.429 134.386Z" fill="#C69960" stroke="#101010" stroke-width="1.5" stroke-linejoin="round"/>
<path d="M182.798 77.4891L199.49 87.2486" stroke="#101010" stroke-width="1.5" stroke-linecap="round" stroke-linejoin="round"/>
<path d="M164.764 206.213L181.888 216.22V229.092" stroke="#101010" stroke-width="1.5" stroke-linecap="round" stroke-linejoin="round"/>
<path d="M413.157 210.614L423.91 216.332V229.219" stroke="#101010" stroke-width="1.5" stroke-linecap="round" stroke-linejoin="round"/>
<path d="M303.079 77.4891L286.386 87.2486" stroke="#101010" stroke-width="1.5" stroke-linecap="round" stroke-linejoin="round"/>
<path d="M422.911 146.22L406.211 155.988" stroke="#101010" stroke-width="1.5" stroke-linecap="round" stroke-linejoin="round"/>
<path d="M198.557 137.474L166.313 156.458" stroke="#101010" stroke-width="1.5" stroke-linecap="round" stroke-linejoin="round"/>
<path d="M288.046 137.474L320.282 156.458" stroke="#101010" stroke-width="1.5" stroke-linecap="round" stroke-linejoin="round"/>
<path d="M63.1724 146.077L79.8649 155.836" stroke="#101010" stroke-width="1.5" stroke-linecap="round" stroke-linejoin="round"/>
<path d="M78.8034 155.11C77.9811 155.589 77.6538 156.155 77.6538 156.642C77.6538 157.129 77.9731 157.695 78.8034 158.174C79.6256 158.653 80.7273 158.9 81.8529 158.9C82.9785 158.9 84.0802 158.653 84.9024 158.174C85.7247 157.695 86.052 157.129 86.052 156.642C86.052 156.155 85.7326 155.589 84.9024 155.11C84.0802 154.631 82.9785 154.384 81.8529 154.384C80.7273 154.384 79.6256 154.631 78.8034 155.11Z" fill="#C69960" stroke="#101010" stroke-width="1.5" stroke-linejoin="round"/>
<path d="M166.313 156.458C165.491 155.98 164.389 155.732 163.264 155.732C162.138 155.732 161.036 155.98 160.214 156.458C159.392 156.937 159.064 157.504 159.064 157.991C159.064 158.477 159.384 159.044 160.214 159.523C161.036 160.002 162.138 160.249 163.264 160.249C164.389 160.249 165.491 160.002 166.313 159.523C167.135 159.044 167.463 158.477 167.463 157.991C167.463 157.504 167.143 156.937 166.313 156.458Z" fill="#C69960" stroke="#101010" stroke-width="1.5" stroke-linejoin="round"/>
<path d="M410.25 212.146C411.072 212.625 412.174 212.873 413.3 212.873C414.425 212.873 415.527 212.625 416.349 212.146C417.171 211.668 417.499 211.101 417.499 210.614C417.499 210.127 417.179 209.561 416.349 209.082C415.527 208.603 414.425 208.356 413.3 208.356C412.174 208.356 411.072 208.603 410.25 209.082C409.428 209.561 409.101 210.127 409.101 210.614C409.101 211.101 409.42 211.668 410.25 212.146Z" fill="#C69960" stroke="#101010" stroke-width="1.5" stroke-linejoin="round"/>
<path d="M311.672 208.668C310.85 209.147 310.522 209.713 310.522 210.2C310.522 210.687 310.842 211.253 311.672 211.732C312.494 212.211 313.596 212.458 314.721 212.458C315.847 212.458 316.949 212.211 317.771 211.732C318.593 211.253 318.921 210.687 318.921 210.2C318.921 209.713 318.601 209.147 317.771 208.668C316.949 208.189 315.847 207.942 314.721 207.942C313.596 207.942 312.494 208.189 311.672 208.668Z" fill="#C69960" stroke="#101010" stroke-width="1.5" stroke-linejoin="round"/>
<path d="M40.1182 180.949L123.198 229.22L205.878 180.949L123.597 132.79L40.1182 180.949Z" fill="#FFEEDA" stroke="#101010" stroke-width="1.5" stroke-linecap="round" stroke-linejoin="round"/>
<path d="M40.1182 180.949L123.198 229.22L205.878 180.949L123.597 132.79L40.1182 180.949Z" stroke="#101010" stroke-width="1.5" stroke-linecap="round" stroke-linejoin="round"/>
<path d="M122.934 148.04L66.478 115.458L122.934 82.8755L179.39 115.458L122.934 148.04Z" fill="#FFEEDA" stroke="#101010" stroke-width="1.5" stroke-linejoin="round"/>
<path d="M122.934 213.196V148.04L179.39 115.458V180.622L122.934 213.196Z" fill="#FFEEDA" stroke="#101010" stroke-width="1.5" stroke-linejoin="round"/>
<path d="M173.115 126.318L129.208 151.663V202.343L173.115 176.999V126.318Z" fill="#E6CAAA" stroke="#101010" stroke-width="1.5" stroke-linejoin="round"/>
<path d="M122.934 213.196V148.04L66.478 115.458V180.622L122.934 213.196Z" fill="#FFEEDA" stroke="#101010" stroke-width="1.5" stroke-linejoin="round"/>
<path d="M162.367 169.666C167.545 160.701 167.217 150.821 161.635 147.6C156.053 144.378 147.33 149.034 142.151 158C136.973 166.965 137.301 176.845 142.883 180.067C148.465 183.288 157.188 178.632 162.367 169.666Z" fill="#101010" stroke="#101010" stroke-width="1.5" stroke-linecap="round" stroke-linejoin="round"/>
<path d="M164.077 170.653C169.256 161.688 168.928 151.808 163.346 148.586C157.764 145.365 149.041 150.021 143.862 158.987C138.684 167.952 139.012 177.832 144.594 181.053C150.176 184.275 158.899 179.619 164.077 170.653Z" fill="white" stroke="#101010" stroke-width="1.5" stroke-linecap="round" stroke-linejoin="round"/>
<path d="M164.836 161.27L161.38 157.137C160.789 156.435 159.983 155.892 159.073 155.78C155.8 155.365 151.513 158.27 148.735 163.082C146.26 167.367 145.693 171.932 147.002 174.733C147.609 176.033 148.958 176.823 150.387 176.879L156.215 177.103" fill="#101010"/>
<path d="M164.836 161.27L161.38 157.137C160.789 156.435 159.983 155.892 159.073 155.78C155.8 155.365 151.513 158.27 148.735 163.082C146.26 167.367 145.693 171.932 147.002 174.733C147.609 176.033 148.958 176.823 150.387 176.879L156.215 177.103" stroke="#101010" stroke-width="1.5" stroke-linecap="round" stroke-linejoin="round"/>
<path d="M164.182 171.405C166.766 166.932 166.604 162.003 163.82 160.397C161.037 158.79 156.686 161.114 154.102 165.588C151.519 170.061 151.681 174.989 154.464 176.596C157.248 178.202 161.599 175.878 164.182 171.405Z" fill="white" stroke="#101010" stroke-width="1.5" stroke-linecap="round" stroke-linejoin="round"/>
<path d="M67.3995 147.824C72.6236 138.858 72.2932 128.979 66.6615 125.757C61.0299 122.535 52.2295 127.192 47.0054 136.157C41.7813 145.123 42.1118 155.002 47.7434 158.224C53.3751 161.446 62.1754 156.789 67.3995 147.824Z" fill="#101010" stroke="#101010" stroke-width="1.5" stroke-linecap="round" stroke-linejoin="round"/>
<path d="M69.7169 149.137C74.941 140.172 74.6106 130.292 68.9789 127.07C63.3472 123.849 54.5469 128.505 49.3228 137.471C44.0987 146.436 44.4291 156.316 50.0608 159.538C55.6924 162.759 64.4928 158.103 69.7169 149.137Z" fill="white" stroke="#101010" stroke-width="1.5" stroke-linejoin="round"/>
<path d="M82.4481 82.7676C88.8604 82.1109 93.2028 73.2298 92.1472 62.9312C91.0917 52.6326 85.0378 44.8164 78.6255 45.4731C72.2133 46.1298 67.8709 55.0109 68.9264 65.3095C69.982 75.6081 76.0359 83.4244 82.4481 82.7676Z" fill="#101010" stroke="#101010" stroke-width="1.5" stroke-linecap="round" stroke-linejoin="round"/>
<path d="M85.081 82.4925C91.4932 81.8357 95.8357 72.9547 94.7801 62.6561C93.7245 52.3575 87.6706 44.5412 81.2584 45.198C74.8461 45.8547 70.5037 54.7357 71.5592 65.0343C72.6148 75.3329 78.6687 83.1492 85.081 82.4925Z" fill="white" stroke="#101010" stroke-width="1.5" stroke-linejoin="round"/>
<path d="M109.809 125.456L142.787 106.424C143.905 105.778 143.777 104.653 142.516 103.919L139.498 102.163C138.237 101.429 136.864 101.684 135.754 102.331L102.776 121.363C101.659 122.009 101.786 123.134 103.048 123.868L105.483 125.289C106.744 126.023 108.692 126.103 109.809 125.456Z" fill="#101010" stroke="#101010" stroke-width="1.5" stroke-linecap="round" stroke-linejoin="round"/>
<mask id="mask0_10373_3887" style="mask-type:luminance" maskUnits="userSpaceOnUse" x="98" y="85" width="47" height="40">
<path d="M110.767 124.339L144.025 105.14C145.15 104.493 144.967 103.248 143.618 102.378L140.4 100.296C139.051 99.4259 126.678 85.2455 125.56 85.8919L99.1202 99.4259C97.9945 100.072 102.329 121.379 103.67 122.249L106.273 123.932C107.622 124.802 109.642 124.986 110.767 124.339Z" fill="white"/>
</mask>
<g mask="url(#mask0_10373_3887)">
<path d="M129.75 113.771C134.929 104.805 134.601 94.9255 129.019 91.7038C123.437 88.4821 114.714 93.1385 109.535 102.104C104.357 111.07 104.684 120.949 110.267 124.171C115.849 127.393 124.572 122.736 129.75 113.771Z" fill="#101010" stroke="#101010" stroke-width="1.5" stroke-linecap="round" stroke-linejoin="round"/>
<path d="M132.044 115.099C137.222 106.133 136.895 96.2536 131.312 93.0319C125.73 89.8102 117.007 94.4666 111.829 103.432C106.65 112.398 106.978 122.277 112.56 125.499C118.142 128.721 126.866 124.064 132.044 115.099Z" fill="white" stroke="#101010" stroke-width="1.5" stroke-linejoin="round"/>
<path d="M118.395 108.865L118.284 109.112C117.035 111.896 117.773 115.195 120.06 117.044C121.405 118.131 123.048 118.534 124.617 118.305C124.617 118.305 124.617 118.305 118.395 108.865Z" fill="#101010"/>
<path d="M123.786 111.223L118.394 108.865C124.615 118.305 124.615 118.305 124.615 118.305C124.356 116.089 124.058 113.55 123.786 111.223Z" fill="#101010"/>
<path d="M128.459 107.395L128.623 107.602C130.472 109.933 130.519 113.334 128.735 115.777C127.686 117.214 126.191 118.075 124.622 118.304C124.622 118.304 124.622 118.304 128.459 107.395Z" fill="#101010"/>
<path d="M123.791 111.222L128.459 107.395C124.621 118.304 124.621 118.304 124.621 118.304C124.362 116.088 124.064 113.549 123.791 111.222Z" fill="#101010"/>
<path d="M122.984 104.314L123.609 109.647L127.63 106.349L122.984 104.314Z" fill="#101010"/>
<path d="M122.983 104.314L118.96 107.615L123.608 109.647L122.983 104.314Z" fill="#101010"/>
<path d="M122.457 99.8287L118.96 107.617L122.982 104.308L122.457 99.8287Z" fill="#101010"/>
<path d="M122.984 104.307L127.633 106.35L122.458 99.8242L122.984 104.307Z" fill="#101010"/>
</g>
<path d="M160.214 207.394C161.036 207.873 162.138 208.121 163.264 208.121C164.389 208.121 165.491 207.873 166.313 207.394C167.135 206.916 167.463 206.349 167.463 205.862C167.463 205.375 167.143 204.809 166.313 204.33C165.491 203.851 164.389 203.604 163.264 203.604C162.138 203.604 161.036 203.851 160.214 204.33C159.392 204.809 159.064 205.375 159.064 205.862C159.064 206.349 159.384 206.916 160.214 207.394Z" fill="#C69960" stroke="#101010" stroke-width="1.5" stroke-linejoin="round"/>
<path d="M77.9015 204.657C77.0793 205.136 76.752 205.703 76.752 206.189C76.752 206.676 77.0713 207.243 77.9015 207.721C78.7238 208.2 79.8254 208.448 80.951 208.448C82.0766 208.448 83.1783 208.2 84.0006 207.721C84.8228 207.243 85.1501 206.676 85.1501 206.189C85.1501 205.703 84.8308 205.136 84.0006 204.657C83.1783 204.178 82.0766 203.931 80.951 203.931C79.8254 203.931 78.7238 204.178 77.9015 204.657Z" fill="#C69960" stroke="#101010" stroke-width="1.5" stroke-linejoin="round"/>
<path d="M412.174 81.2363C416.373 100.476 431.629 116.077 446.254 116.077C460.871 116.077 469.325 100.476 465.126 81.2363C460.926 61.9966 445.671 46.3959 431.046 46.3959C416.421 46.3959 407.975 61.9966 412.174 81.2363Z" fill="white" stroke="#101010" stroke-width="1.5" stroke-linecap="round" stroke-linejoin="round"/>
<path d="M438.646 79.6403L431.756 46.4437C446.158 46.9385 460.99 62.3078 465.117 81.2362C467.648 92.847 465.556 103.109 460.296 109.437L438.638 79.6403H438.646Z" fill="#D2FCF6" stroke="#101010" stroke-width="1.5" stroke-linecap="round" stroke-linejoin="round"/>
<path d="M431.038 46.3959C431.278 46.3959 431.517 46.4358 431.749 46.4438L438.638 79.6403L412.079 80.7814C408.111 61.7493 416.525 46.3959 431.03 46.3959H431.038Z" fill="#E8F628" stroke="#101010" stroke-width="1.5" stroke-linecap="round" stroke-linejoin="round"/>
<path d="M368.555 33.572L402.268 53.6256C403.505 54.3597 404.519 53.5458 404.519 51.8221C404.519 50.0905 403.505 48.0795 402.268 47.3454L368.555 27.2918C367.318 26.5576 366.304 27.3716 366.304 29.0953C366.304 30.8269 367.318 32.8379 368.555 33.572Z" fill="white" stroke="#101010" stroke-width="1.5" stroke-linecap="round" stroke-linejoin="round"/>
<path d="M368.555 45.9092L402.268 65.9627C403.505 66.6969 404.519 65.883 404.519 64.1593C404.519 62.4277 403.505 60.4167 402.268 59.6825L368.555 39.629C367.318 38.8948 366.304 39.7088 366.304 41.4324C366.304 43.1641 367.318 45.175 368.555 45.9092Z" fill="white" stroke="#101010" stroke-width="1.5" stroke-linecap="round" stroke-linejoin="round"/>
<path d="M380.634 66.5054L402.268 79.4089C403.505 80.1431 404.519 79.3291 404.519 77.6055C404.519 75.8738 403.505 73.8629 402.268 73.1287L380.634 60.2252C379.396 59.491 378.382 60.305 378.382 62.0286C378.382 63.7603 379.396 65.7712 380.634 66.5054Z" fill="white" stroke="#101010" stroke-width="1.5" stroke-linecap="round" stroke-linejoin="round"/>
<path d="M312.027 184.273C312.027 204.75 335.633 221.348 364.763 221.348C393.893 221.348 417.499 204.75 417.499 184.273V170.875H312.035V184.273H312.027Z" fill="#C69960" stroke="#101010" stroke-width="1.5" stroke-linejoin="round"/>
<path d="M364.755 207.95C393.881 207.95 417.491 191.351 417.491 170.875C417.491 150.399 393.881 133.8 364.755 133.8C335.63 133.8 312.02 150.399 312.02 170.875C312.02 191.351 335.63 207.95 364.755 207.95Z" fill="#C69960" stroke="#101010" stroke-width="1.5" stroke-linejoin="round"/>
<path d="M364.755 163.023C350.338 163.023 338.818 169.574 334.539 176.988C333.374 174.977 332.719 172.902 332.719 170.875C332.719 161.403 346.418 150.797 364.755 150.797C383.092 150.797 396.791 161.395 396.791 170.875C396.791 172.902 396.128 174.977 394.971 176.988C390.692 169.582 379.172 163.023 364.755 163.023Z" fill="#101010" stroke="#101010" stroke-width="1.5" stroke-linecap="round" stroke-linejoin="round"/>
<path d="M387.283 157.078C381.591 153.367 373.736 150.821 364.755 150.821C355.774 150.821 347.919 153.375 342.227 157.078V125.86C347.919 122.149 355.774 119.604 364.755 119.604C373.736 119.604 381.591 122.157 387.283 125.86V157.078Z" fill="#95C1B9" stroke="#101010" stroke-width="1.5" stroke-linecap="round" stroke-linejoin="round"/>
<path d="M403.705 145.906L387.284 157.078V125.868L403.705 114.688V145.906Z" fill="#101010" stroke="#101010" stroke-width="1.5" stroke-linecap="round" stroke-linejoin="round"/>
<path d="M342.227 184.936L325.814 196.108V177.012L342.227 165.832V184.936Z" fill="#101010" stroke="#101010" stroke-width="1.5" stroke-linecap="round" stroke-linejoin="round"/>
<path d="M325.814 145.906L342.227 157.078V125.868L325.814 114.688V145.906Z" fill="#A3D1C8" stroke="#101010" stroke-width="1.5" stroke-linecap="round" stroke-linejoin="round"/>
<path d="M325.926 114.688L342.347 125.868C348.039 122.157 355.894 119.612 364.875 119.612C373.856 119.612 381.711 122.165 387.403 125.868L403.824 114.688C394.181 107.267 380.306 102.607 364.875 102.607C349.452 102.607 335.569 107.259 325.926 114.688Z" fill="#D2FCF6" stroke="#101010" stroke-width="1.5" stroke-linecap="round" stroke-linejoin="round"/>
<path d="M342.227 138.205V157.054C337.581 160.078 334.396 163.877 333.23 167.715L325.806 173.947V127.033L342.227 138.213V138.205Z" fill="#A2A51C" stroke="#101010" stroke-width="1.5" stroke-linecap="round" stroke-linejoin="round"/>
<path d="M319.571 153.582L312.027 152.018V170.867C312.027 180.491 317.256 189.253 325.814 195.844L325.726 176.94L319.571 153.574V153.582Z" fill="#DCE02B" stroke="#101010" stroke-width="1.5" stroke-linecap="round" stroke-linejoin="round"/>
<path d="M325.814 176.988L342.235 165.808V165.855C336.296 161.993 332.727 156.862 332.727 152.026C332.727 147.19 336.288 142.067 342.211 138.205L342.235 138.237L325.814 127.057V127.025C317.248 133.617 312.027 142.387 312.027 152.018C312.027 161.618 317.216 170.364 325.726 176.948L325.814 176.988Z" fill="#E8F628" stroke="#101010" stroke-width="1.5" stroke-linecap="round" stroke-linejoin="round"/>
<path d="M342.283 177.37L325.862 188.55L325.902 188.566C335.545 195.972 349.404 200.608 364.803 200.608C380.29 200.608 394.212 195.916 403.864 188.447L387.331 177.378H387.315C381.623 181.081 373.768 183.619 364.803 183.619C355.83 183.619 347.967 181.081 342.275 177.378L342.283 177.37Z" fill="white" stroke="#101010" stroke-width="1.5" stroke-linecap="round" stroke-linejoin="round"/>
<path d="M325.87 188.622L325.91 188.638C335.553 196.044 349.412 200.68 364.811 200.68C380.298 200.68 394.221 195.988 403.872 188.518V195.78C394.229 203.249 380.298 207.942 364.811 207.942C349.412 207.942 335.545 203.297 325.91 195.9L325.87 195.884V188.622Z" fill="#E8E8E8" stroke="#101010" stroke-width="1.5" stroke-linecap="round" stroke-linejoin="round"/>
<path d="M85.0065 68.7899L86.2855 74.225L90.6572 62.9856L85.0065 68.7899Z" fill="#101010"/>
<path d="M81.1694 52.4848L90.3581 61.716L84.7074 67.5203L77.1418 65.4146" fill="#101010"/>
<path d="M81.1694 52.4848L83.0579 60.5105L77.1418 65.4146M77.4406 66.6845L85.0062 68.7902L86.2852 74.2253" fill="#101010"/>
<path d="M83.0581 60.5105L84.7076 67.5203L90.3583 61.7159" fill="#101010"/>
<path d="M77.1415 65.4145L83.0576 60.5105L84.7071 67.5203" fill="#101010"/>
<path d="M276.987 63.8876L276.91 112.081C276.897 117.636 273.248 123.177 265.958 127.415C251.275 135.948 227.393 135.941 212.618 127.415C205.179 123.125 201.466 117.486 201.479 111.867L201.556 63.6735C201.543 69.2994 205.257 74.9318 212.696 79.221C227.47 87.7475 251.353 87.754 266.036 79.221C273.326 74.9837 276.975 69.4422 276.987 63.8876Z" fill="#FFEEDA" stroke="#101010" stroke-width="1.5" stroke-linejoin="round"/>
<path d="M228.75 84.7237C222.875 83.7309 217.338 81.8945 212.696 79.2146C205.257 74.9254 201.544 69.2864 201.563 63.667L201.485 111.861C201.472 117.487 205.186 123.119 212.618 127.408C217.279 130.101 222.849 131.937 228.75 132.93V84.7237Z" fill="#FFEEDA" stroke="#101010" stroke-width="1.5" stroke-linejoin="round"/>
<path d="M265.855 48.3336C280.629 56.8601 280.707 70.6881 266.03 79.2146C251.346 87.7476 227.464 87.7411 212.689 79.2146C197.908 70.6816 197.83 56.8601 212.514 48.3336C227.191 39.8071 251.067 39.8071 265.848 48.3336H265.855Z" fill="#E6CAAA" stroke="#101010" stroke-width="1.5" stroke-linejoin="round"/>
<path d="M260.512 72.6932C265.102 70.0457 267.737 66.7364 267.744 63.6217C267.744 60.5394 265.167 57.269 260.661 54.6474C249.165 47.9703 229.593 47.9054 217.889 54.6604C213.3 57.3079 210.671 60.6173 210.664 63.7385C210.664 66.8207 213.241 70.0912 217.74 72.7062C229.36 79.4547 248.918 79.3898 260.512 72.6997V72.6932Z" fill="#FFEEDA" stroke="#101010" stroke-width="1.5" stroke-linejoin="round"/>
<path d="M218.078 74.5101C229.626 81.0964 248.568 81.0964 260.175 74.5101C271.048 68.3585 271.314 58.8262 260.311 52.5449C248.854 46.0235 229.925 45.9391 218.247 52.5579C207.218 58.8262 207.231 68.3261 218.078 74.5036V74.5101Z" fill="#FFEEDA" stroke="#101010" stroke-width="1.5" stroke-linejoin="round"/>
<path d="M218.077 74.5101C229.587 81.0964 248.607 81.0899 260.162 74.5101C271.074 68.3585 271.275 58.8067 260.304 52.5449C248.717 45.9586 229.814 46.0105 218.253 52.5579C207.269 58.8003 207.178 68.3001 218.084 74.5101H218.077Z" fill="#FFEEDA" stroke="#101010" stroke-width="1.5" stroke-linejoin="round"/>
<path d="M210.606 66.9049C211.729 69.7212 214.28 72.3492 218.078 74.51C229.587 81.0963 248.607 81.0898 260.162 74.51C264.05 72.3168 266.653 69.6433 267.789 66.7622C266.666 63.946 264.115 61.318 260.305 59.1377C248.769 52.5514 229.762 52.5968 218.253 59.1506C214.365 61.3569 211.748 64.0368 210.612 66.8984L210.606 66.9049Z" fill="#FFEEDA" stroke="#101010" stroke-width="1.5" stroke-linejoin="round"/>
<path d="M230.541 59.819C226.101 62.3821 226.082 66.535 230.489 69.0982C234.904 71.6613 242.077 71.6613 246.51 69.0982C250.95 66.535 250.976 62.3821 246.562 59.819C242.155 57.2558 234.981 57.2558 230.541 59.819Z" fill="#FFEEDA" stroke="#101010" stroke-width="1.5" stroke-linejoin="round"/>
<path d="M271.061 135.883C271.749 135.883 272.308 135.325 272.308 134.637L272.333 122.613C272.333 120.504 270.957 118.122 269.127 117.065L264.946 114.651C264.355 114.307 263.583 114.508 263.239 115.105C262.895 115.702 263.096 116.468 263.7 116.812L267.88 119.226C268.925 119.829 269.834 121.406 269.834 122.606L269.808 134.63C269.808 135.318 270.367 135.876 271.055 135.883H271.061Z" fill="white" stroke="#101010" stroke-width="1.5" stroke-linejoin="round"/>
<path d="M278.773 131.431C279.461 131.431 280.019 130.873 280.019 130.186L280.045 118.161C280.045 116.059 278.676 113.671 276.845 112.613L272.664 110.2C272.074 109.856 271.301 110.057 270.957 110.654C270.613 111.251 270.814 112.016 271.418 112.36L275.599 114.774C276.644 115.378 277.552 116.955 277.546 118.148L277.52 130.173C277.52 130.86 278.078 131.425 278.766 131.425L278.773 131.431Z" fill="white" stroke="#101010" stroke-width="1.5" stroke-linejoin="round"/>
<path d="M240.026 1.25635H236.832C231.963 1.2823 227.095 4.47486 223.388 10.8535C215.923 23.6952 215.923 44.6546 223.388 57.5806C227.147 64.0825 232.087 67.3335 237.02 67.3205H240.214C235.28 67.3205 230.34 64.076 226.582 57.5741C219.117 44.6481 219.117 23.6887 226.582 10.847C230.288 4.46839 235.157 1.2758 240.026 1.26282V1.25635Z" fill="#101010" stroke="#101010" stroke-width="1.5" stroke-linejoin="round"/>
<path d="M253.658 57.7299C246.193 70.5715 234.047 70.5067 226.582 57.5806C219.117 44.6546 219.117 23.6952 226.582 10.8536C234.047 -1.98811 246.193 -1.92321 253.658 11.0028C261.123 23.9288 261.123 44.8882 253.658 57.7299Z" fill="white" stroke="#101010" stroke-width="1.5" stroke-linejoin="round"/>
<path d="M268.646 6.1709V62.002C268.646 66.3626 265.66 70.5869 259.896 73.9222C248.341 80.5864 229.71 80.6188 218.168 73.9612C212.404 70.6258 209.509 66.3691 209.509 62.0085V6.17739H268.646V6.1709Z" fill="url(#paint0_linear_10373_3887)"/>
<path d="M240.857 15.9882L241.385 28.8062L231.873 34.0615L240.857 15.9882Z" fill="#FFD2A7"/>
<path d="M241.227 15.9782L241.385 28.8061L251.164 33.5445L241.227 15.9782Z" fill="#FFF7F2"/>
<path d="M241.615 40.6417L241.392 29.0726L231.779 34.3165L241.615 40.6417Z" fill="#E1B884"/>
<path d="M251.242 33.8146L241.391 29.0728L241.788 40.6372L251.242 33.8146Z" fill="#FFEDD9"/>
<path d="M241.721 41.3469C241.627 41.3494 241.531 41.3229 241.446 41.268L231.352 34.7759C231.22 34.691 231.123 34.5468 231.084 34.3752C231.043 34.2047 231.064 34.0218 231.141 33.8709L240.564 15.3046C240.659 15.1165 240.83 14.9997 241.015 14.9947C241.201 14.9897 241.378 15.0972 241.483 15.28L251.886 33.3151C251.971 33.4617 252.002 33.6432 251.971 33.8156C251.94 33.988 251.851 34.1382 251.724 34.2301L241.992 41.2533C241.909 41.3127 241.816 41.3444 241.722 41.3469L241.721 41.3469ZM232.373 33.9652L241.683 39.9538L250.66 33.4753L241.064 16.8407L232.373 33.9652Z" fill="black"/>
<path d="M241.721 41.3469C241.42 41.3549 241.167 41.0715 241.157 40.7145L240.486 15.6562C240.477 15.2993 240.714 15.0027 241.015 14.9946C241.317 14.9866 241.569 15.2701 241.579 15.627L242.25 40.6853C242.26 41.0422 242.023 41.3388 241.721 41.3469Z" fill="black"/>
<path d="M241.966 53.266L241.806 44.517L232.179 38.2876L241.966 53.266Z" fill="#FFD2A7"/>
<path d="M251.281 37.8828L242.223 53.079L241.916 44.4365L251.281 37.8828Z" fill="#FFE4D0"/>
<path d="M242.061 54.0287C241.889 54.0333 241.724 53.9417 241.617 53.7816L231.284 38.3862C231.122 38.1445 231.125 37.8024 231.291 37.5681C231.457 37.3338 231.74 37.2712 231.969 37.4193L241.785 43.7699L251.247 36.9029C251.467 36.7427 251.754 36.79 251.932 37.0151C252.11 37.2401 252.131 37.5816 251.982 37.8317L242.489 53.7583C242.391 53.9238 242.231 54.0241 242.059 54.0288L242.061 54.0287ZM233.811 40.0795L242.015 52.3035L249.552 39.6578L242.095 45.0705C241.929 45.1915 241.72 45.1971 241.548 45.0852L233.812 40.0795L233.811 40.0795Z" fill="black"/>
<path d="M242.061 54.0287C241.759 54.0367 241.507 53.7532 241.497 53.3963L241.26 44.5317C241.25 44.1748 241.487 43.8782 241.789 43.8701C242.09 43.8621 242.343 44.1455 242.352 44.5025L242.59 53.367C242.599 53.724 242.362 54.0206 242.061 54.0287Z" fill="black"/>
<path d="M251.452 34.3237C251.38 34.3256 251.304 34.3104 251.232 34.2756L241.405 29.5137L231.846 34.795C231.573 34.9458 231.247 34.8046 231.118 34.4811C230.988 34.1576 231.104 33.7725 231.376 33.6217L241.151 28.2203C241.289 28.1443 241.448 28.14 241.589 28.2085L251.64 33.0788C251.92 33.2148 252.056 33.5932 251.944 33.9231C251.86 34.1682 251.664 34.3191 251.453 34.3247L251.452 34.3237Z" fill="black"/>
<path d="M50.9017 150.158C54.5156 152.509 54.5587 152.442 55.317 152.617C56.308 152.845 54.9425 148.246 52.9768 146.968C51.011 145.689 48.953 145.367 48.3799 146.248C47.8069 147.129 48.936 148.88 50.9017 150.158Z" fill="black"/>
<path d="M67.9309 141.93L67.9537 142.258L67.6512 142.405C57.8376 147.182 52.8132 148.967 51.9709 147.741C51.4579 146.995 51.3216 145.665 51.4418 143.94C51.484 143.334 51.5567 142.714 51.6489 142.11C51.7103 141.708 51.7755 141.347 51.8175 141.147C51.871 140.893 51.9193 140.745 52 140.564C52.005 140.552 52.005 140.552 52.0098 140.542C52.0442 140.465 52.0548 140.44 52.0714 140.397C52.3574 139.647 52.7281 138.918 53.1787 138.225C56.0178 133.86 61.195 132.191 64.7422 134.499C65.8536 135.221 66.6981 136.266 67.2223 137.537L67.2345 137.571C67.5786 138.743 67.8102 140.195 67.9309 141.93ZM66.5161 137.966C66.0396 136.819 65.2756 135.877 64.2706 135.224C61.0488 133.128 56.3466 134.644 53.768 138.608C53.3582 139.238 53.0215 139.9 52.7619 140.581C52.7362 140.648 52.7203 140.685 52.6781 140.78C52.6736 140.79 52.6736 140.79 52.6694 140.799C52.6173 140.917 52.5913 140.996 52.5523 141.181C52.514 141.364 52.4519 141.707 52.3932 142.092C52.3045 142.673 52.2347 143.268 52.1944 143.847C52.0858 145.405 52.2079 146.597 52.6056 147.176C53.1361 147.947 58.1811 146.166 67.1537 141.814C67.0321 140.286 66.8191 139.003 66.5161 137.966Z" fill="black"/>
<path d="M66.5166 137.966C66.0402 136.82 65.2762 135.878 64.2711 135.224C61.0493 133.128 56.3471 134.644 53.7685 138.608C53.3588 139.238 53.0221 139.9 52.7624 140.581C52.7367 140.648 52.7208 140.686 52.6786 140.78C52.6742 140.79 52.6742 140.79 52.67 140.799C52.6179 140.917 52.5918 140.996 52.5528 141.182C52.5145 141.364 52.4524 141.707 52.3937 142.092C52.3051 142.673 52.2352 143.268 52.1949 143.848C52.0863 145.406 52.2085 146.597 52.6062 147.176C53.1366 147.948 58.1816 146.166 67.1542 141.814C67.0326 140.287 66.8196 139.004 66.5166 137.966Z" fill="#101010"/>
<path d="M54.6964 152.523C51.1491 150.216 50.575 144.807 53.4141 140.442C56.2532 136.077 61.4303 134.408 64.9776 136.715C68.5249 139.023 69.099 144.432 66.2599 148.797C63.4208 153.162 58.2437 154.83 54.6964 152.523ZM55.168 151.798C58.3898 153.893 63.092 152.378 65.6706 148.413C68.2492 144.449 67.7278 139.536 64.506 137.441C61.2841 135.345 56.582 136.86 54.0033 140.825C51.4247 144.79 51.9462 149.702 55.168 151.798Z" fill="black"/>
<path d="M55.168 151.798C58.3899 153.893 63.0921 152.378 65.6707 148.413C68.2493 144.449 67.7278 139.536 64.506 137.441C61.2842 135.345 56.582 136.86 54.0034 140.825C51.4248 144.79 51.9462 149.702 55.168 151.798Z" fill="white"/>
<path fill-rule="evenodd" clip-rule="evenodd" d="M54.5168 143.252L55.6065 139.887L56.283 140.327L55.616 142.233L57.1363 140.87L57.6874 141.228L57.058 143.171L58.5302 141.788L59.1935 142.219L56.5594 144.58L56.0017 144.217L56.6008 142.278L55.0744 143.614L54.5168 143.252ZM57.5988 145.227L59.4475 142.385L61.3054 143.593L60.8696 144.263L59.6453 143.467L59.3654 143.897L60.4741 144.618L60.0701 145.24L58.9613 144.519L58.6682 144.969L59.9089 145.776L59.4731 146.446L57.5988 145.227ZM60.3641 147.026L61.7638 144.874L61.0709 144.423L61.5198 143.733L63.546 145.05L63.097 145.741L62.404 145.29L61.0043 147.442L60.3641 147.026ZM61.9777 148.075L63.8264 145.233L64.4666 145.649L63.7747 146.713L64.5963 147.247L65.2883 146.184L65.9284 146.6L64.0797 149.442L63.4395 149.026L64.1421 147.946L63.3204 147.411L62.6179 148.492L61.9777 148.075Z" fill="black"/>
<path d="M54.0805 137.677C53.9828 137.471 54.0753 137.184 54.2873 137.036C54.4993 136.889 54.7504 136.936 54.8481 137.143L55.4136 138.336C55.5114 138.542 55.4189 138.829 55.2069 138.977C54.9949 139.124 54.7438 139.077 54.6461 138.87L54.0805 137.677Z" fill="black"/>
<path d="M52.7205 139.53C52.6162 139.328 52.7009 139.04 52.9097 138.886C53.1185 138.732 53.3723 138.771 53.4767 138.972L54.0712 140.121C54.1756 140.323 54.0909 140.611 53.8821 140.765C53.6733 140.919 53.4194 140.88 53.3151 140.679L52.7205 139.53Z" fill="black"/>
<path d="M364.152 263.856V250.851L484.912 181.559V194.362L364.152 263.856Z" fill="#101010" stroke="#101010" stroke-width="1.5" stroke-linejoin="round"/>
<path d="M121.806 263.88V250.535L242.905 181.089V194.095L121.806 263.88Z" fill="#101010" stroke="#101010" stroke-width="1.5" stroke-linejoin="round"/>
<path d="M1.26709 194.263V182.06L121.885 250.664V263.792L1.26709 194.263Z" fill="#C69960" stroke="#101010" stroke-width="1.5" stroke-linejoin="round"/>
<path d="M243.096 193.915V181.178L364.158 250.622V263.559L243.096 193.915Z" fill="#C69960" stroke="#101010" stroke-width="1.5" stroke-linejoin="round"/>
<path d="M78.0292 207.745L62.6938 216.771V229.634" stroke="#101010" stroke-width="1.5" stroke-linecap="round" stroke-linejoin="round"/>
<path d="M314.052 210.853L304.156 216.316V229.188" stroke="#101010" stroke-width="1.5" stroke-linecap="round" stroke-linejoin="round"/>
<defs>
<linearGradient id="paint0_linear_10373_3887" x1="239.078" y1="78.5554" x2="239.078" y2="24.963" gradientUnits="userSpaceOnUse">
<stop stop-color="#DCFFFF"/>
<stop offset="1" stop-color="white" stop-opacity="0"/>
</linearGradient>
</defs>
</svg>
