<svg width="32" height="33" viewBox="0 0 32 33" fill="none" xmlns="http://www.w3.org/2000/svg">
<path d="M9.53282 20.6032H11.7994C11.966 20.6032 12.1114 20.5338 12.2353 20.3949C12.3596 20.256 12.3994 20.1032 12.355 19.9366L11.655 15.9478C12.1064 15.7382 12.4617 15.4342 12.721 15.0358C12.9805 14.6374 13.1103 14.197 13.1103 13.7146C13.1103 13.0424 12.8708 12.467 12.3917 11.9883C11.9128 11.5097 11.337 11.2704 10.6641 11.2704C9.99147 11.2704 9.41628 11.5097 8.93852 11.9883C8.46077 12.467 8.2219 13.0424 8.2219 13.7146C8.2219 14.197 8.35167 14.6374 8.61121 15.0358C8.87053 15.4342 9.22584 15.7382 9.67715 15.9478L8.97719 19.9366C8.93274 20.1032 8.97263 20.256 9.09685 20.3949C9.22084 20.5338 9.36617 20.6032 9.53282 20.6032ZM10.6661 29.8027C10.5354 29.8027 10.4141 29.7916 10.3021 29.7694C10.1901 29.7472 10.0781 29.7138 9.96614 29.6694C6.90696 28.6399 4.48121 26.7752 2.68886 24.0753C0.896285 21.3755 0 18.4322 0 15.2455V8.79283C0 8.32241 0.134215 7.89898 0.402645 7.52256C0.671298 7.14614 1.0185 6.87326 1.44426 6.70394L9.88847 3.54844C10.1551 3.45222 10.4143 3.40411 10.6661 3.40411C10.9179 3.40411 11.1771 3.45222 11.4437 3.54844L19.8879 6.70394C20.3137 6.87326 20.6609 7.14614 20.9295 7.52256C21.198 7.89898 21.3322 8.32241 21.3322 8.79283V15.2455C21.3322 18.4322 20.4359 21.3755 18.6433 24.0753C16.851 26.7752 14.4252 28.6399 11.3661 29.6694C11.2541 29.7138 11.1421 29.7472 11.0301 29.7694C10.9181 29.7916 10.7968 29.8027 10.6661 29.8027ZM10.6661 27.6028C13.14 26.7955 15.1657 25.2437 16.7434 22.9474C18.3211 20.6513 19.11 18.0848 19.11 15.2478V8.79283L10.6661 5.615L2.22221 8.79283V15.2478C2.22221 18.0848 3.01106 20.6513 4.58876 22.9474C6.16645 25.2437 8.19223 26.7955 10.6661 27.6028Z" fill="#FFF8F3"/>
</svg>
