<svg width="241" height="180" viewBox="0 0 241 180" fill="none" xmlns="http://www.w3.org/2000/svg">
<g>
<path d="M77.5096 96.0627L5.75964 54.6541L77.5096 13.2455L149.26 54.6541L77.5096 96.0627Z" fill="#FFEEDA" stroke="#101010" stroke-width="1.5" stroke-linejoin="round"/>
<path d="M77.5096 178.87V96.0627L149.26 54.6541V137.471L77.5096 178.87Z" fill="#FFEEDA" stroke="#101010" stroke-width="1.5" stroke-linejoin="round"/>
<path d="M141.285 68.4569L85.4841 100.667V165.077L141.285 132.867V68.4569Z" fill="#E6CAAA" stroke="#101010" stroke-width="1.5" stroke-linejoin="round"/>
<path d="M77.5096 178.87V96.0627L5.75964 54.6541V137.471L77.5096 178.87Z" fill="#FFEEDA" stroke="#101010" stroke-width="1.5" stroke-linejoin="round"/>
<path d="M60.8302 67.3616L102.742 43.1736C104.162 42.3522 104 40.9222 102.397 39.9892L98.5618 37.758C96.9588 36.8249 95.2138 37.1495 93.8035 37.971L51.8919 62.1589C50.4715 62.9804 50.6338 64.4104 52.2368 65.3434L55.3313 67.1487C56.9343 68.0817 59.4098 68.1831 60.8302 67.3616Z" fill="#A3D1C8" stroke="#101010" stroke-width="1.5" stroke-linecap="round"/>
<mask id="mask0_10047_1465" style="mask-type:luminance" maskUnits="userSpaceOnUse" x="45" y="13" width="64" height="54">
<path d="M61.8204 65.8502L107.431 39.5953C108.975 38.7114 108.723 37.0091 106.873 35.8196L102.461 32.9715C100.61 31.782 83.6404 12.3909 82.1077 13.2748L45.8468 31.782C44.3031 32.6659 50.2481 61.8018 52.0874 62.9912L55.6565 65.2937C57.5068 66.4831 60.2767 66.7341 61.8204 65.8502Z" fill="white"/>
</mask>
<g mask="url(#mask0_10047_1465)">
<path d="M87.308 49.5175C93.8891 38.1232 93.4728 25.5671 86.3784 21.4727C79.2839 17.3783 68.1977 23.296 61.6166 34.6903C55.0356 46.0846 55.4518 58.6407 62.5463 62.7351C69.6407 66.8295 80.7269 60.9118 87.308 49.5175Z" fill="#F4CB97" stroke="#101010" stroke-width="1.5" stroke-linecap="round"/>
<path d="M90.2224 51.2055C96.8035 39.8112 96.3873 27.2551 89.2928 23.1606C82.1983 19.0662 71.1121 24.984 64.531 36.3783C57.95 47.7726 58.3662 60.3287 65.4607 64.4231C72.5552 68.5175 83.6414 62.5998 90.2224 51.2055Z" fill="white" stroke="#101010" stroke-width="1.5" stroke-linejoin="round"/>
<path d="M84.4036 42.4059V31.6729C84.391 30.7811 83.813 30.4105 83.0842 30.8439L74.0182 36.2889C72.0643 37.501 70.4937 40.4213 70.4937 42.8518C70.4937 43.6745 70.6696 44.2648 70.9397 44.717C71.1659 45.0938 71.5303 45.3513 71.8884 45.4958C71.9827 45.5398 71.9387 45.5272 72.2528 45.5712C72.68 45.634 73.1701 45.4958 73.1701 45.4958V51.908C73.1827 52.2094 73.2141 52.4732 73.2644 52.7118C73.4591 53.4906 73.968 53.88 74.6654 53.8109C74.9544 53.7795 75.2811 53.6727 75.6204 53.478L82.8518 49.1698C84.2968 48.3031 85.4591 46.1489 85.4591 44.3653C85.4591 43.2851 85.0444 42.5817 84.3973 42.3933L84.4036 42.4059Z" fill="#FFEEDA"/>
<path d="M84.5669 44.9737C84.5355 46.1356 83.7753 47.5173 82.8392 48.0825L77.8633 51.0468C78.2591 50.2429 78.4978 49.3574 78.4978 48.5598C78.4978 47.2975 77.8821 46.795 77.8821 46.795L82.8392 43.8182C83.7942 43.2467 84.5669 43.7302 84.5669 44.9172V44.98V44.9737Z" fill="#EBC28E"/>
<path d="M72.3661 44.2893C71.7944 43.9627 71.386 43.3347 71.386 42.3047V42.1917C71.43 40.4081 72.6048 38.2853 74.0247 37.381L83.0907 31.936C83.3294 31.8041 83.5179 31.8983 83.5179 32.1935V41.6641C83.7253 41.5888 83.8321 41.5511 84.0268 41.526C84.1839 41.4946 84.4101 41.526 84.4101 41.526V31.6534C84.3975 30.7616 83.8195 30.391 83.0907 30.8244L74.0247 36.2694C72.0708 37.4815 70.5001 40.4018 70.5001 42.8323C70.5001 44.2453 71.0216 45.1308 71.8697 45.4637C71.92 45.4825 71.9828 45.5265 72.1399 45.4323C72.4101 45.269 72.5986 44.8985 72.586 44.6096C72.5546 44.3961 72.4729 44.3584 72.3598 44.283L72.3661 44.2893Z" fill="#190602"/>
<path d="M82.8517 42.7065L75.7397 46.9771C75.2622 47.266 74.879 47.982 74.879 48.5723V49.8347C74.8915 50.4062 75.2936 50.6636 75.7711 50.3747L76.2988 50.0544V48.9743L75.7711 49.2945V48.0636L76.0601 47.8878C76.9522 47.3477 77.6182 47.982 77.6182 49.0873C77.6182 50.067 76.902 51.7439 75.6957 52.3656C74.6276 52.9183 74.0559 52.0956 74.0559 51.2289V40.521C74.0559 40.0311 73.7355 39.8427 73.3522 40.0688L72.6486 40.4959V41.5886L73.1763 41.2683V51.7564C73.1449 53.9106 74.4014 54.2308 75.7145 53.4458L82.8768 49.1689C84.3219 48.3023 85.4841 46.1481 85.4841 44.3645C85.4653 42.5809 84.2967 41.8398 82.8517 42.7065ZM84.5669 44.9737C84.5355 46.1356 83.7753 47.5172 82.8391 48.0824L77.8632 51.0467C78.2591 50.2429 78.4978 49.3573 78.4978 48.5598C78.4978 47.2974 77.8821 46.795 77.8821 46.795L82.8391 43.8181C83.7941 43.2466 84.5669 43.7302 84.5669 44.9172V44.98V44.9737Z" fill="#190602"/>
<path d="M80.9418 36.7843L75.5889 39.9998V38.907L80.9418 35.6915C81.1805 35.5471 81.3753 35.6727 81.3753 35.9678C81.3753 36.2756 81.1805 36.6398 80.9418 36.7843Z" fill="#190602"/>
<path d="M80.9418 41.9531L75.5889 45.1686V44.0758L80.9418 40.8603C81.1805 40.7159 81.3753 40.8415 81.3753 41.1367C81.3753 41.4444 81.1805 41.8086 80.9418 41.9531Z" fill="#190602"/>
<path d="M81.8842 38.8004L75.5826 42.5874V41.4946L81.8842 37.7076C82.1229 37.5632 82.3177 37.6888 82.3177 37.9839C82.3177 38.2917 82.1229 38.6559 81.8842 38.8004Z" fill="#190602"/>
</g>
<path d="M149.32 5.98249L148.368 18.5567L157.847 12.9611L149.32 5.98249Z" fill="#101010"/>
<path d="M213.327 75.4866C223.562 74.6027 230.493 62.6491 228.808 48.7876C227.124 34.9261 217.461 24.4057 207.226 25.2896C196.991 26.1736 190.06 38.1271 191.745 51.9886C193.43 65.8501 203.093 76.3705 213.327 75.4866Z" fill="#F4CB97" stroke="#101010" stroke-width="1.5" stroke-linecap="round"/>
<path d="M217.53 75.1165C227.765 74.2325 234.696 62.279 233.011 48.4175C231.326 34.556 221.663 24.0356 211.429 24.9195C201.194 25.8034 194.263 37.757 195.948 51.6185C197.632 65.48 207.295 76.0004 217.53 75.1165Z" fill="#101010" stroke="#101010" stroke-width="1.5" stroke-linejoin="round"/>
<path d="M206.395 48.5053C205.511 47.8227 204.838 46.8859 204.703 45.7004L204.688 45.5742C204.523 43.5404 205.961 41.7236 207.933 41.4388L220.523 40.0007C220.854 39.98 221.143 40.1855 221.182 40.5302L222.429 51.4438C222.722 51.4614 222.866 51.4875 223.157 51.5565C223.388 51.6153 223.712 51.7572 223.712 51.7572L222.414 40.3896C222.279 39.3572 221.38 38.6167 220.37 38.732L207.78 40.1702C205.068 40.5225 203.145 43.0505 203.464 45.8419C203.649 47.4647 204.53 48.7695 205.823 49.6098C205.913 49.6677 205.996 49.7433 206.21 49.719C206.579 49.6768 206.807 49.3441 206.753 49.0181C206.713 48.7415 206.587 48.6538 206.395 48.5053Z" fill="#FFF8F3"/>
<path d="M221.591 52.2636L211.717 53.3914C211.053 53.4758 210.582 54.0832 210.66 54.7643L210.826 56.2189C210.92 56.8896 211.543 57.3976 212.208 57.3217L212.938 57.2382L212.796 55.9939L212.066 56.0773L211.903 54.6563C211.903 54.6563 212.084 54.6357 212.306 54.6104C213.553 54.4679 214.608 55.5484 214.753 56.818C214.881 57.9447 214.044 59.4969 212.357 59.5704C210.859 59.6392 209.901 58.3774 209.787 57.3852L208.379 45.0591C208.316 44.5042 207.821 44.1008 207.279 44.1626L206.294 44.2751L206.438 45.5363L207.169 45.4529L208.549 57.5352C208.788 59.995 210.678 61.0313 212.5 60.8232L222.451 59.7206C224.454 59.4918 225.889 57.6414 225.653 55.5814C225.418 53.5215 223.594 52.0349 221.591 52.2636ZM224.423 55.7987C224.533 57.1234 223.595 58.3038 222.298 58.4519L215.376 59.217C215.851 58.4983 216.091 57.6107 215.985 56.6858C215.819 55.2312 214.859 54.3272 214.859 54.3272L221.745 53.5407C223.067 53.3897 224.268 54.3684 224.422 55.7221L224.423 55.7987Z" fill="#FFF8F3"/>
<path d="M218.004 44.4453L210.56 45.2956L210.416 44.0344L217.86 43.1841C218.197 43.1457 218.507 43.3913 218.548 43.7444C218.587 44.0891 218.349 44.4059 218.004 44.4453Z" fill="#FFF8F3"/>
<path d="M218.682 50.3809L211.238 51.2312L211.094 49.97L218.538 49.1197C218.875 49.0812 219.185 49.3268 219.226 49.6799C219.265 50.0247 219.027 50.3415 218.682 50.3809Z" fill="#FFF8F3"/>
<path d="M219.656 47.2626L210.899 48.2629L210.755 47.0017L219.504 46.0023C219.84 45.9639 220.151 46.2095 220.192 46.5626C220.239 46.9064 219.993 47.2242 219.656 47.2626Z" fill="#FFF8F3"/>
<path d="M198.881 26.1687C161.695 8.72707 120.927 7.96284 97.8547 33.1176" stroke="#231F20" stroke-width="1.5" stroke-miterlimit="10" stroke-linecap="round"/>
<path d="M127.726 122.979C133.754 112.541 133.373 101.038 126.874 97.2876C120.375 93.5367 110.219 98.9579 104.19 109.396C98.1615 119.834 98.5427 131.336 105.042 135.087C111.541 138.838 121.697 133.417 127.726 122.979Z" fill="#101010" stroke="#101010" stroke-width="1.5" stroke-linecap="round"/>
<path d="M129.718 124.128C135.747 113.69 135.366 102.187 128.867 98.4366C122.368 94.6858 112.212 100.107 106.183 110.545C100.154 120.983 100.535 132.485 107.035 136.236C113.534 139.987 123.689 134.566 129.718 124.128Z" fill="white" stroke="#101010" stroke-width="1.5" stroke-linecap="round"/>
<path d="M130.601 113.204L126.577 108.391C125.889 107.574 124.951 106.942 123.891 106.812C120.08 106.329 115.089 109.711 111.855 115.313C108.974 120.302 108.314 125.616 109.838 128.877C110.545 130.392 112.115 131.311 113.779 131.376L120.564 131.637" fill="#101010"/>
<path d="M130.601 113.204L126.577 108.391C125.889 107.574 124.951 106.942 123.891 106.812C120.08 106.329 115.089 109.711 111.855 115.313C108.974 120.302 108.314 125.616 109.838 128.877C110.545 130.392 112.115 131.311 113.779 131.376L120.564 131.637" stroke="#101010" stroke-width="1.5" stroke-linecap="round"/>
<path d="M129.84 125.003C132.848 119.795 132.659 114.057 129.418 112.187C126.178 110.316 121.112 113.022 118.104 118.23C115.096 123.438 115.285 129.176 118.525 131.046C121.766 132.916 126.832 130.211 129.84 125.003Z" fill="white" stroke="#101010" stroke-width="1.5" stroke-linecap="round"/>
</g>

</svg>
