<svg width="199" height="166" viewBox="0 0 199 166" fill="none" xmlns="http://www.w3.org/2000/svg">
<g clip-path="url(#clip0_7994_201)">
<path d="M71.47 82.91L0.75 42.08L71.47 1.25L142.19 42.08L71.47 82.91Z" fill="#FFEEDA" stroke="#101010" stroke-width="1.5" stroke-linejoin="round"/>
<path d="M71.47 164.57V82.91L142.19 42.08V123.74L71.47 164.57Z" fill="#FFEEDA" stroke="#101010" stroke-width="1.5" stroke-linejoin="round"/>
<path d="M134.33 55.6899L79.3301 87.4499V150.96L134.33 119.2V55.6899Z" fill="#E6CAAA" stroke="#101010" stroke-width="1.5" stroke-linejoin="round"/>
<path d="M71.47 164.57V82.91L0.75 42.08V123.74L71.47 164.57Z" fill="#FFEEDA" stroke="#101010" stroke-width="1.5" stroke-linejoin="round"/>
<path d="M55.03 54.61L96.34 30.76C97.74 29.95 97.58 28.54 96 27.62L92.22 25.42C90.64 24.5 88.92 24.82 87.53 25.63L46.22 49.48C44.82 50.29 44.98 51.7 46.56 52.62L49.61 54.4C51.19 55.32 53.63 55.42 55.03 54.61Z" fill="#101010" stroke="#101010" stroke-width="1.5" stroke-linecap="round" stroke-linejoin="round"/>
<mask id="mask0_7994_201" style="mask-type:luminance" maskUnits="userSpaceOnUse" x="41" y="5" width="58" height="49">
<path d="M56.2299 53.21L97.8899 29.15C99.2999 28.34 99.0699 26.78 97.3799 25.69L93.3499 23.08C91.6599 21.99 76.1599 4.22003 74.7599 5.03003L41.6399 21.99C40.2299 22.8 45.6599 49.5 47.3399 50.59L50.5999 52.7C52.2899 53.79 54.8199 54.02 56.2299 53.21Z" fill="white"/>
</mask>
<g mask="url(#mask0_7994_201)">
<path d="M84.0835 43.9235C90.57 32.6885 90.1598 20.3078 83.1672 16.2706C76.1745 12.2334 65.2475 18.0685 58.7609 29.3035C52.2743 40.5386 52.6845 52.9193 59.6772 56.9565C66.6698 60.9937 77.5969 55.1586 84.0835 43.9235Z" fill="#101010" stroke="#101010" stroke-width="1.5" stroke-linecap="round" stroke-linejoin="round"/>
<path d="M86.956 45.588C93.4426 34.3529 93.0324 21.9722 86.0397 17.935C79.0471 13.8978 68.12 19.7329 61.6334 30.968C55.1468 42.2031 55.5571 54.5837 62.5497 58.6209C69.5424 62.6581 80.4694 56.8231 86.956 45.588Z" fill="white" stroke="#101010" stroke-width="1.5" stroke-linejoin="round"/>
<path d="M81 36.22V25C80.99 24.07 80.38 23.68 79.62 24.14L70.15 29.83C68.11 31.1 66.47 34.15 66.47 36.69C66.47 37.55 66.65 38.16 66.94 38.64C67.18 39.03 67.56 39.3 67.93 39.46C68.03 39.51 67.98 39.49 68.31 39.54C68.76 39.61 69.27 39.46 69.27 39.46V46.16C69.28 46.48 69.31 46.75 69.37 47C69.58 47.82 70.11 48.22 70.84 48.15C71.14 48.12 71.48 48.01 71.84 47.8L79.4 43.3C80.91 42.39 82.13 40.14 82.13 38.28C82.13 37.15 81.7 36.42 81.02 36.22H81Z" fill="#FFEEDA"/>
<path d="M81.1699 38.91C81.1399 40.13 80.3399 41.57 79.3699 42.16L74.1699 45.26C74.5799 44.42 74.8299 43.49 74.8299 42.66C74.8299 41.34 74.1899 40.8101 74.1899 40.8101L79.3699 37.7001C80.3699 37.1001 81.1699 37.61 81.1699 38.85V38.92V38.91Z" fill="#EBC28E"/>
<path d="M68.42 38.19C67.82 37.85 67.4 37.19 67.4 36.12V36C67.44 34.13 68.67 31.92 70.16 30.97L79.63 25.28C79.88 25.14 80.08 25.24 80.08 25.55V35.45C80.3 35.37 80.41 35.33 80.61 35.3C80.77 35.27 81.01 35.3 81.01 35.3V24.98C81 24.05 80.39 23.66 79.63 24.12L70.16 29.81C68.12 31.08 66.48 34.13 66.48 36.67C66.48 38.15 67.02 39.07 67.91 39.42C67.96 39.44 68.03 39.48 68.19 39.38C68.47 39.21 68.67 38.82 68.66 38.52C68.63 38.3 68.54 38.26 68.42 38.18V38.19Z" fill="#190602"/>
<path d="M79.38 36.54L71.95 41.01C71.45 41.31 71.05 42.06 71.05 42.68V44C71.06 44.6 71.48 44.87 71.98 44.57L72.53 44.24V43.11L71.98 43.44V42.15L72.28 41.97C73.21 41.41 73.91 42.07 73.91 43.22C73.91 44.24 73.16 45.99 71.9 46.64C70.78 47.22 70.18 46.35 70.18 45.45V34.26C70.18 33.75 69.84 33.55 69.44 33.79L68.7 34.23V35.37L69.25 35.04V46C69.22 48.25 70.53 48.59 71.9 47.77L79.38 43.3C80.89 42.39 82.11 40.14 82.11 38.28C82.09 36.41 80.87 35.64 79.36 36.55L79.38 36.54ZM81.17 38.91C81.14 40.13 80.34 41.57 79.37 42.16L74.17 45.26C74.58 44.42 74.83 43.49 74.83 42.66C74.83 41.34 74.19 40.81 74.19 40.81L79.37 37.7C80.37 37.1 81.17 37.61 81.17 38.85V38.92V38.91Z" fill="#190602"/>
<path d="M77.38 30.35L71.79 33.71V32.57L77.38 29.21C77.63 29.06 77.84 29.19 77.84 29.5C77.84 29.82 77.63 30.2 77.38 30.35Z" fill="#190602"/>
<path d="M77.38 35.7499L71.79 39.1099V37.97L77.38 34.6099C77.63 34.4599 77.84 34.59 77.84 34.9C77.84 35.22 77.63 35.5999 77.38 35.7499Z" fill="#190602"/>
<path d="M78.37 32.46L71.79 36.42V35.28L78.37 31.32C78.62 31.17 78.83 31.3 78.83 31.61C78.83 31.93 78.62 32.31 78.37 32.46Z" fill="#190602"/>
</g>
<path d="M87.5399 118.84L125.93 96.67C127.23 95.92 128.31 93.8 128.35 91.95L128.43 87.55C128.46 85.71 127.41 85.65 126.11 86.4L87.7199 108.57C86.4199 109.32 85.3399 111.44 85.2999 113.29L85.2399 116.85C85.2099 118.69 86.2399 119.59 87.5399 118.84Z" fill="#101010" stroke="#101010" stroke-width="1.5" stroke-linecap="round" stroke-linejoin="round"/>
<path d="M139.741 137.377C152.714 137.33 163.207 130.746 163.177 122.671C163.147 114.597 152.607 108.09 139.634 108.137C126.661 108.185 116.168 114.769 116.197 122.843C116.227 130.918 126.768 137.425 139.741 137.377Z" fill="#101010" stroke="#101010" stroke-width="1.5" stroke-linecap="round" stroke-linejoin="round"/>
<path d="M139.729 134.067C152.702 134.02 163.194 127.436 163.165 119.361C163.135 111.287 152.595 104.78 139.621 104.827C126.648 104.875 116.156 111.459 116.185 119.533C116.215 127.608 126.756 134.115 139.729 134.067Z" fill="white" stroke="#101010" stroke-width="1.5" stroke-linejoin="round"/>
</g>
<path opacity="0.59" d="M148.23 155.52L85.27 119.48C84.73 118.94 84.46 118.1 84.47 117.05L84.52 113.49C84.55 111.37 85.7 108.86 87.3 107.95L125.6 85.82C126.24 85.45 126.8 85.26 127.32 85.22C127.72 85.19 128 85.3 128.22 85.4L198.88 125.99L148.23 155.53V155.52Z" fill="url(#paint0_linear_7994_201)"/>
<defs>
<linearGradient id="paint0_linear_7994_201" x1="121.52" y1="88.63" x2="149.85" y2="135.71" gradientUnits="userSpaceOnUse">
<stop stop-color="#DCFFFF"/>
<stop offset="1" stop-color="white" stop-opacity="0"/>
</linearGradient>
<clipPath id="clip0_7994_201">
<rect width="198.88" height="164.72" fill="white" transform="translate(0 0.5)"/>
</clipPath>
</defs>
</svg>
