<svg width="200" height="166" viewBox="0 0 200 166" fill="none" xmlns="http://www.w3.org/2000/svg">
<g>
<path d="M96.72 83.05L26 42.22L96.72 1.39001L167.44 42.22L96.72 83.05Z" fill="#FFEEDA" stroke="#101010" stroke-width="1.5" stroke-linejoin="round"/>
<path d="M96.72 164.71V83.05L167.44 42.22V123.88L96.72 164.71Z" fill="#FFEEDA" stroke="#101010" stroke-width="1.5" stroke-linejoin="round"/>
<path d="M159.58 55.83L104.58 87.59V151.1L159.58 119.34V55.83Z" fill="#E6CAAA" stroke="#101010" stroke-width="1.5" stroke-linejoin="round"/>
<path d="M96.72 164.71V83.05L26 42.22V123.88L96.72 164.71Z" fill="#FFEEDA" stroke="#101010" stroke-width="1.5" stroke-linejoin="round"/>
<path d="M80.28 54.75L121.59 30.9C122.99 30.09 122.83 28.68 121.25 27.76L117.47 25.56C115.89 24.64 114.17 24.96 112.78 25.77L71.47 49.62C70.07 50.43 70.23 51.84 71.81 52.76L74.86 54.54C76.44 55.46 78.88 55.56 80.28 54.75Z" fill="#101010" stroke="#101010" stroke-width="1.5" stroke-linecap="round" stroke-linejoin="round"/>
<mask id="mask0_10937_259" style="mask-type:luminance" maskUnits="userSpaceOnUse" x="66" y="5" width="59" height="49">
<path d="M81.4799 53.35L123.14 29.29C124.55 28.48 124.32 26.92 122.63 25.83L118.6 23.22C116.91 22.13 101.41 4.36005 100.01 5.17005L66.8899 22.13C65.4799 22.94 70.9099 49.64 72.5899 50.73L75.8499 52.84C77.5399 53.93 80.0699 54.16 81.4799 53.35Z" fill="white"/>
</mask>
<g mask="url(#mask0_10937_259)">
<path d="M109.333 44.0636C115.82 32.8285 115.41 20.4478 108.417 16.4106C101.425 12.3734 90.4975 18.2085 84.0109 29.4436C77.5243 40.6787 77.9345 53.0593 84.9272 57.0965C91.9198 61.1337 102.847 55.2987 109.333 44.0636Z" fill="#101010" stroke="#101010" stroke-width="1.5" stroke-linecap="round" stroke-linejoin="round"/>
<path d="M112.206 45.728C118.693 34.4929 118.282 22.1123 111.29 18.0751C104.297 14.0379 93.37 19.8729 86.8834 31.108C80.3968 42.3431 80.8071 54.7237 87.7997 58.7609C94.7924 62.7981 105.719 56.9631 112.206 45.728Z" fill="white" stroke="#101010" stroke-width="1.5" stroke-linejoin="round"/>
<path d="M106.25 36.36V25.14C106.24 24.21 105.63 23.82 104.87 24.28L95.4 29.97C93.36 31.24 91.72 34.29 91.72 36.83C91.72 37.69 91.9 38.3 92.19 38.78C92.43 39.17 92.81 39.44 93.18 39.6C93.28 39.65 93.23 39.63 93.56 39.68C94.01 39.75 94.52 39.6 94.52 39.6V46.3C94.53 46.62 94.56 46.89 94.62 47.14C94.83 47.96 95.36 48.36 96.09 48.29C96.39 48.26 96.73 48.15 97.09 47.94L104.65 43.44C106.16 42.53 107.38 40.28 107.38 38.42C107.38 37.29 106.95 36.56 106.27 36.36H106.25Z" fill="#FFEEDA"/>
<path d="M106.42 39.0499C106.39 40.2699 105.59 41.7099 104.62 42.2999L99.4199 45.3999C99.8299 44.5599 100.08 43.6299 100.08 42.7999C100.08 41.4799 99.4399 40.9499 99.4399 40.9499L104.62 37.8399C105.62 37.2399 106.42 37.7499 106.42 38.9899V39.0599V39.0499Z" fill="#EBC28E"/>
<path d="M93.67 38.33C93.07 37.99 92.65 37.33 92.65 36.26V36.14C92.69 34.27 93.92 32.06 95.41 31.11L104.88 25.42C105.13 25.28 105.33 25.38 105.33 25.69V35.59C105.55 35.51 105.66 35.47 105.86 35.44C106.02 35.41 106.26 35.44 106.26 35.44V25.12C106.25 24.19 105.64 23.8 104.88 24.26L95.41 29.95C93.37 31.22 91.73 34.27 91.73 36.81C91.73 38.29 92.27 39.21 93.16 39.56C93.21 39.58 93.28 39.62 93.44 39.52C93.72 39.35 93.92 38.96 93.91 38.66C93.88 38.44 93.79 38.4 93.67 38.32V38.33Z" fill="#190602"/>
<path d="M104.63 36.68L97.2 41.15C96.7 41.45 96.3 42.2 96.3 42.82V44.14C96.31 44.74 96.73 45.01 97.23 44.71L97.78 44.38V43.25L97.23 43.58V42.29L97.53 42.11C98.46 41.55 99.16 42.21 99.16 43.36C99.16 44.38 98.41 46.13 97.15 46.78C96.03 47.36 95.43 46.49 95.43 45.59V34.4C95.43 33.89 95.09 33.69 94.69 33.93L93.95 34.37V35.51L94.5 35.18V46.14C94.47 48.39 95.78 48.73 97.15 47.91L104.63 43.44C106.14 42.53 107.36 40.28 107.36 38.42C107.34 36.55 106.12 35.78 104.61 36.69L104.63 36.68ZM106.42 39.05C106.39 40.27 105.59 41.71 104.62 42.3L99.42 45.4C99.83 44.56 100.08 43.63 100.08 42.8C100.08 41.48 99.44 40.95 99.44 40.95L104.62 37.84C105.62 37.24 106.42 37.75 106.42 38.99V39.06V39.05Z" fill="#190602"/>
<path d="M102.63 30.4901L97.04 33.8501V32.7101L102.63 29.3501C102.88 29.2001 103.09 29.3301 103.09 29.6401C103.09 29.9601 102.88 30.3401 102.63 30.4901Z" fill="#190602"/>
<path d="M102.63 35.89L97.04 39.25V38.11L102.63 34.75C102.88 34.6 103.09 34.73 103.09 35.04C103.09 35.36 102.88 35.74 102.63 35.89Z" fill="#190602"/>
<path d="M103.62 32.6L97.04 36.56V35.42L103.62 31.46C103.87 31.31 104.08 31.44 104.08 31.75C104.08 32.07 103.87 32.45 103.62 32.6Z" fill="#190602"/>
</g>
<path d="M112.79 118.98L151.18 96.81C152.48 96.06 153.56 93.94 153.6 92.09L153.68 87.69C153.71 85.85 152.66 85.79 151.36 86.54L112.97 108.71C111.67 109.46 110.59 111.58 110.55 113.43L110.49 116.99C110.46 118.83 111.49 119.73 112.79 118.98Z" fill="#101010" stroke="#101010" stroke-width="1.5" stroke-linecap="round" stroke-linejoin="round"/>
<path d="M164.991 137.517C177.964 137.47 188.457 130.886 188.427 122.811C188.397 114.737 177.857 108.23 164.884 108.277C151.911 108.325 141.418 114.909 141.447 122.983C141.477 131.058 152.018 137.565 164.991 137.517Z" fill="#101010" stroke="#101010" stroke-width="1.5" stroke-linecap="round" stroke-linejoin="round"/>
<path d="M164.979 134.207C177.952 134.16 188.444 127.576 188.415 119.501C188.385 111.427 177.845 104.92 164.871 104.967C151.898 105.015 141.406 111.599 141.435 119.673C141.465 127.748 152.006 134.255 164.979 134.207Z" fill="url(#paint0_linear_10937_259)" stroke="#101010" stroke-width="1.5" stroke-linejoin="round"/>
<path fill-rule="evenodd" clip-rule="evenodd" d="M153.341 110.971L162.931 108.074C164.038 107.741 165.216 107.687 166.35 107.93L175.841 109.954C177.533 110.314 179.026 111.304 180.025 112.716L183.623 117.826C184.055 118.438 184.073 119.248 183.677 119.877L180.142 125.482C179.26 126.877 177.901 127.911 176.318 128.388L166.728 131.285C165.621 131.618 164.443 131.672 163.309 131.429L153.818 129.405C152.127 129.045 150.633 128.055 149.635 126.643L147.97 124.277C146.369 122.01 146.297 118.996 147.781 116.648L149.527 113.877C150.408 112.482 151.767 111.448 153.35 110.971H153.341Z" fill="#FFEEDA"/>
<path d="M152.45 111.241L163.048 108.038C164.056 107.732 165.18 107.687 166.197 107.903L176.894 110.179C177.91 110.395 178.711 110.854 179.143 111.466L183.668 117.88C184.1 118.492 184.109 119.194 183.704 119.832L179.404 126.634C178.999 127.282 178.207 127.812 177.2 128.109L166.602 131.312C165.594 131.618 164.47 131.663 163.453 131.447L152.756 129.171C151.74 128.955 150.939 128.496 150.507 127.884L145.982 121.47C145.55 120.858 145.541 120.156 145.946 119.518L150.246 112.716C150.651 112.069 151.443 111.538 152.45 111.241ZM151.281 112.941L146.98 119.742C146.684 120.21 146.693 120.723 147.007 121.173L151.533 127.587C151.848 128.028 152.432 128.37 153.17 128.523L163.867 130.799C164.604 130.952 165.432 130.916 166.161 130.7L176.759 127.497C177.487 127.273 178.072 126.886 178.369 126.418L182.669 119.617C182.966 119.149 182.957 118.636 182.642 118.186L178.117 111.772C177.802 111.331 177.218 110.989 176.48 110.836L165.783 108.56C165.045 108.407 164.218 108.443 163.489 108.659L152.891 111.862C152.162 112.087 151.578 112.473 151.281 112.941Z" fill="#190602"/>
<path d="M173.763 116.954L165.063 111.979C164.325 111.574 163.174 111.619 162.454 112.096L153.566 118.06C151.676 119.365 151.739 121.317 153.701 122.442C154.366 122.819 155.104 123.026 155.869 123.134C156.507 123.224 157.254 123.206 157.893 123.134C158.073 123.116 157.992 123.134 158.487 123.035C159.161 122.909 159.773 122.657 159.773 122.657L164.973 125.635C165.225 125.77 165.495 125.887 165.774 125.968C166.7 126.256 167.762 126.238 168.716 125.941C169.111 125.815 169.507 125.644 169.849 125.419L176.974 120.669C178.387 119.716 178.36 118.276 176.911 117.448C176.048 116.954 174.86 116.792 173.754 116.945L173.763 116.954Z" fill="#FFEEDA"/>
<path d="M176.102 118.078C177.001 118.627 177.001 119.554 176.084 120.165L171.181 123.431C171.109 122.909 170.749 122.406 170.092 122.037C169.066 121.452 167.762 121.452 167.762 121.452L172.62 118.186C173.556 117.557 175.085 117.494 176.039 118.042L176.093 118.078H176.102Z" fill="#EBC28E"/>
<path d="M157.623 122.415C156.517 122.478 155.419 122.343 154.582 121.866L154.492 121.812C153.116 120.966 153.116 119.545 154.465 118.582L163.354 112.617C163.597 112.465 163.957 112.438 164.19 112.572L171.873 116.963C172.116 116.846 172.242 116.792 172.512 116.702C172.719 116.63 173.07 116.558 173.07 116.558L165.072 111.988C164.334 111.583 163.183 111.628 162.463 112.105L153.575 118.069C151.685 119.374 151.748 121.326 153.71 122.451C154.852 123.107 156.337 123.314 157.857 123.152C157.956 123.143 158.073 123.134 158.226 123.035C158.487 122.855 158.46 122.612 158.217 122.487C158.019 122.379 157.866 122.397 157.623 122.415Z" fill="#190602"/>
<path d="M171.738 117.682L164.766 122.361C164.298 122.675 164.316 123.152 164.793 123.431L165.81 124.016C166.296 124.277 167.096 124.241 167.564 123.935L168.086 123.584L167.204 123.08L166.682 123.431L165.684 122.864L165.963 122.675C166.844 122.082 168.329 122.127 169.219 122.639C170.011 123.089 170.317 124.142 169.058 124.889C167.933 125.554 166.413 125.383 165.72 124.988L157.038 120.031C156.642 119.806 156.013 119.833 155.635 120.093L154.942 120.561L155.824 121.065L156.337 120.714L164.838 125.572C166.539 126.58 168.644 126.247 169.93 125.383L176.974 120.678C178.387 119.725 178.36 118.285 176.911 117.458C175.463 116.63 173.142 116.729 171.729 117.682H171.738ZM176.102 118.078C177.001 118.627 177.001 119.554 176.084 120.165L171.181 123.431C171.109 122.909 170.749 122.406 170.092 122.037C169.067 121.452 167.762 121.452 167.762 121.452L172.62 118.186C173.556 117.556 175.085 117.494 176.039 118.042L176.093 118.078H176.102Z" fill="#190602"/>
<path d="M163.255 115.172L158.001 118.699L158.883 119.203L164.137 115.676C164.379 115.514 164.37 115.271 164.128 115.136C163.885 115.002 163.489 115.011 163.255 115.172Z" fill="#190602"/>
<path d="M167.429 117.556L162.175 121.083L163.057 121.587L168.311 118.06C168.554 117.898 168.545 117.655 168.302 117.52C168.059 117.386 167.663 117.395 167.429 117.556Z" fill="#190602"/>
<path d="M166.268 115.739L160.088 119.887L160.97 120.39L167.15 116.243C167.393 116.081 167.384 115.838 167.141 115.703C166.898 115.568 166.502 115.577 166.268 115.739Z" fill="#190602"/>
<path opacity="0.8" d="M173.48 155.66L110.52 119.62C109.98 119.08 109.71 118.24 109.72 117.19L109.77 113.63C109.8 111.51 110.95 109 112.55 108.09L150.85 85.96C151.49 85.59 152.05 85.4 152.57 85.36C152.97 85.33 153.25 85.44 153.47 85.54L224.13 126.13L173.48 155.67V155.66Z" fill="url(#paint1_linear_10937_259)"/>
</g>
<defs>
<linearGradient id="paint0_linear_10937_259" x1="143.708" y1="111.779" x2="186.128" y2="127.389" gradientUnits="userSpaceOnUse">
<stop stop-color="#FFDCB1"/>
<stop offset="1" stop-color="#EBC28E"/>
</linearGradient>
<linearGradient id="paint1_linear_10937_259" x1="146.77" y1="88.77" x2="175.1" y2="135.85" gradientUnits="userSpaceOnUse">
<stop stop-color="#DCFFFF"/>
<stop offset="1" stop-color="white" stop-opacity="0"/>
</linearGradient>
</defs>
</svg>
