<svg width="32" height="33" viewBox="0 0 32 33" fill="none" xmlns="http://www.w3.org/2000/svg">
<path d="M0.327784 24.1722C0.105546 23.95 -0.00368331 23.6852 9.47295e-05 23.3778C0.00365053 23.0703 0.11288 22.8091 0.327784 22.5944L7.73929 15.1716C8.16066 14.7493 8.68269 14.5382 9.3054 14.5382C9.92811 14.5382 10.4506 14.7493 10.8728 15.1716L14.7954 19.1052L22.4626 11.4603H19.5958C19.2809 11.4603 19.017 11.3534 18.8041 11.1397C18.5911 10.9259 18.4847 10.6611 18.4847 10.3453C18.4847 10.0292 18.5911 9.76567 18.8041 9.55454C19.017 9.34342 19.2809 9.23785 19.5958 9.23785H25.0851C25.3998 9.23785 25.6637 9.34431 25.8769 9.55721C26.0898 9.77034 26.1962 10.0342 26.1962 10.3489V15.8383C26.1962 16.1421 26.0923 16.4032 25.8845 16.6217C25.6767 16.8402 25.4194 16.9494 25.1125 16.9494C24.8054 16.9494 24.5424 16.8402 24.3238 16.6217C24.1053 16.4032 23.9961 16.1421 23.9961 15.8383V13.0604L16.3399 20.6943C15.9187 21.1166 15.3968 21.3277 14.7741 21.3277C14.1512 21.3277 13.6286 21.1166 13.2063 20.6943L9.28407 16.794L1.90556 24.1722C1.69088 24.3871 1.42797 24.4946 1.11684 24.4946C0.805706 24.4946 0.542688 24.3871 0.327784 24.1722Z" fill="#FFF8F3"/>
</svg>
