<svg width="32" height="33" viewBox="0 0 32 33" fill="none" xmlns="http://www.w3.org/2000/svg">
<path d="M2.22243 29.9372C1.6224 29.9372 1.10194 29.7168 0.661029 29.2761C0.220343 28.8352 0 28.3148 0 27.7147V22.1368C0 21.8766 0.0481133 21.6163 0.14434 21.3561C0.240788 21.0959 0.385239 20.8635 0.577692 20.6591L3.44448 17.4589C3.65938 17.2145 3.92428 17.0904 4.23919 17.0866C4.55387 17.0828 4.82143 17.1912 5.04189 17.4116C5.24367 17.6134 5.35201 17.8662 5.3669 18.17C5.38179 18.4738 5.28923 18.7368 5.08922 18.959L2.3001 22.0478H21.701L19.0675 19.0477C18.8675 18.8254 18.7765 18.5668 18.7945 18.2716C18.8127 17.9763 18.9212 17.7272 19.1198 17.5243C19.3367 17.3029 19.6063 17.194 19.9285 17.1976C20.2508 17.2014 20.5193 17.3255 20.7342 17.5699L23.4454 20.6591C23.638 20.8591 23.7788 21.0899 23.8677 21.3514C23.9566 21.6132 24.0011 21.875 24.0011 22.1368V27.7147C24.0011 28.3148 23.7807 28.8352 23.34 29.2761C22.8991 29.7168 22.3786 29.9372 21.7786 29.9372H2.22243ZM2.22243 27.7147H21.7786V24.2702H2.22243V27.7147ZM10.5448 19.77L5.44457 14.6698C4.99277 14.218 4.78354 13.6939 4.81688 13.0974C4.85021 12.5012 5.08545 11.9845 5.52258 11.5473L12.4115 4.65838C12.8329 4.24258 13.3549 4.02569 13.9776 4.00769C14.6003 3.98946 15.1302 4.19892 15.5673 4.63605L20.6676 9.73627C21.0898 10.1585 21.3084 10.666 21.3233 11.2587C21.3379 11.8511 21.1119 12.3807 20.6452 12.8474L13.7116 19.781C13.2894 20.2033 12.769 20.42 12.1505 20.4311C11.5321 20.4422 10.9968 20.2218 10.5448 19.77ZM18.9118 11.2363L14.0116 6.33612L7.18932 13.1588L12.0895 18.059L18.9118 11.2363Z" fill="#FFF8F3"/>
</svg>
