<svg width="355" height="355" viewBox="0 0 355 355" fill="none" xmlns="http://www.w3.org/2000/svg">
<g clip-path="url(#clip0_10373_3888)">
<path d="M36.423 257.992L153.967 325.788V197.395L36.423 129.598V257.992Z" fill="#E6CAAA" stroke="#101010" stroke-width="1.5" stroke-linejoin="round"/>
<path d="M271.496 257.992L153.951 325.788V197.395L271.496 129.598V257.992Z" fill="#C69960" stroke="#101010" stroke-width="1.5" stroke-linecap="round"/>
<path d="M282.615 103.479L153.951 177.682V197.553L282.615 123.35V103.463V103.479Z" fill="#C69960" stroke="#101010" stroke-width="1.5" stroke-linecap="round"/>
<path d="M25.288 123.35L153.951 197.553V177.667L25.288 103.479V123.366V123.35Z" fill="#E6CAAA" stroke="#101010" stroke-width="1.5" stroke-linejoin="round"/>
<path d="M25.3038 103.431L153.983 177.635L282.647 103.431L153.967 29.212L25.3038 103.431Z" fill="#FFEEDA" stroke="#101010" stroke-width="1.5" stroke-linejoin="round"/>
<path d="M124.676 125.38L199.095 82.4818C201.605 81.0386 201.334 78.4854 198.475 76.8202L191.677 72.8555C188.818 71.1903 185.736 71.7771 183.226 73.2361L108.808 116.134C106.298 117.577 106.568 120.131 109.427 121.796L114.923 124.999C117.783 126.665 122.167 126.839 124.676 125.38Z" fill="#101010" stroke="#101010" stroke-width="1.5" stroke-linecap="round"/>
<path d="M189.151 88.2544L125.963 124.698V67.8282L189.151 31.3846V88.2544Z" fill="white" stroke="#101010" stroke-width="1.5" stroke-linecap="round" stroke-linejoin="round"/>
<path d="M135.16 83.4333L137.368 82.1646L140.434 92.0605L143.515 78.6281L145.707 77.3752L141.625 93.0279L139.242 94.3918L135.144 83.4175L135.16 83.4333Z" fill="black"/>
<path d="M147.407 83.0686C147.407 79.4211 148.868 75.3771 152.554 73.2678C156.239 71.1586 157.7 73.5216 157.7 77.1691C157.7 80.8166 156.255 84.8448 152.554 86.9699C148.852 89.0949 147.407 86.7161 147.407 83.0686ZM152.554 85.162C154.952 83.7822 155.699 81.0069 155.699 78.3268C155.699 75.6467 154.952 73.696 152.554 75.0757C150.155 76.4555 149.408 79.2466 149.408 81.9426C149.408 84.6386 150.171 86.5417 152.554 85.1778V85.162Z" fill="black"/>
<path d="M168.994 65.83L165.039 68.0978V79.6272L163.037 80.769V69.2397L159.098 71.4916V69.6996L169.01 64.0221V65.8141L168.994 65.83Z" fill="black"/>
<path d="M179.986 57.7579V59.5499L173.807 63.0864V67.0353L179.271 63.8952V65.5128L173.807 68.6529V72.792L179.986 69.2555V71.0634L171.805 75.7418V62.4204L179.986 57.742V57.7579Z" fill="black"/>
<path d="M0 88.746V266.254L153.967 355L307.935 266.254V88.746L153.967 0L0 88.746Z" fill="url(#paint0_linear_10373_3888)"/>
<path d="M238.758 232.792V246.922C238.806 255.422 244.381 263.907 255.532 270.377C277.977 283.397 314.606 283.397 337.194 270.377C348.567 263.828 354.238 255.2 354.222 246.605V232.475" fill="#FFEEDA"/>
<path d="M238.758 232.792V246.922C238.806 255.422 244.381 263.907 255.532 270.377C277.977 283.397 314.606 283.397 337.194 270.377C348.567 263.828 354.238 255.2 354.222 246.605V232.475" stroke="#101010" stroke-width="1.5"/>
<path d="M337.448 210.859C359.892 223.879 359.765 245.067 337.178 258.087C314.59 271.107 277.961 271.107 255.516 258.087C233.072 245.067 233.199 223.879 255.786 210.859C278.374 197.839 315.003 197.839 337.448 210.859Z" fill="white" stroke="#101010" stroke-width="1.5" stroke-linejoin="round"/>
<path d="M313.208 220.501L288.238 219.423C286.126 219.36 283.759 220.39 282.885 221.77L272.036 239.04C269.781 242.767 272.513 245.955 278.167 246.193C280.074 246.272 281.9 246.002 283.663 245.558C285.141 245.178 286.682 244.528 287.936 243.893C288.286 243.719 288.143 243.798 289.064 243.227C290.319 242.45 291.272 241.53 291.272 241.53L306.188 242.165C306.918 242.165 307.617 242.149 308.3 242.069C310.635 241.784 312.859 240.88 314.495 239.596C315.178 239.056 315.766 238.454 316.211 237.803L324.963 224.022C326.694 221.263 324.709 218.9 320.547 218.725C318.037 218.614 315.321 219.312 313.208 220.486V220.501Z" fill="#FFEEDA"/>
<path d="M319.625 220.454C322.246 220.628 323.501 222.166 322.373 223.943L316.353 233.426C315.511 232.617 314.066 232.094 312.207 232.015C309.285 231.888 306.505 232.966 306.505 232.966L312.446 223.514C313.589 221.691 316.719 220.327 319.483 220.438H319.625V220.454Z" fill="#EBC28E"/>
<path d="M286.348 242.894C284.108 243.909 281.582 244.607 279.2 244.496H278.93C274.879 244.226 273.005 241.847 274.593 239.135L285.442 221.865C285.76 221.405 286.459 221.072 287.142 221.104L309.174 222.055C309.539 221.659 309.73 221.469 310.174 221.104C310.508 220.818 311.175 220.39 311.175 220.39L288.206 219.407C286.094 219.344 283.727 220.374 282.853 221.754L272.004 239.024C269.749 242.751 272.481 245.939 278.136 246.177C281.424 246.319 284.823 245.447 287.825 243.909C288 243.814 288.254 243.703 288.444 243.401C288.762 242.894 288.397 242.497 287.698 242.497C287.126 242.529 286.808 242.688 286.348 242.894Z" fill="#190602"/>
<path d="M309.888 223.388L301.374 236.931C300.802 237.835 301.47 238.628 302.852 238.675L305.774 238.802C307.124 238.834 308.776 238.12 309.364 237.201L310 236.186L307.49 236.075L306.854 237.09L303.979 236.963L304.329 236.408C305.393 234.711 308.586 233.537 311.159 233.648C313.431 233.743 315.48 235.234 313.796 237.518C312.303 239.548 308.904 240.515 306.902 240.436L281.995 239.373C280.852 239.326 279.581 239.897 279.12 240.626L278.278 241.974L280.82 242.085L281.455 241.07L305.854 242.117C310.778 242.386 314.797 240.103 316.369 237.613L325.01 223.974C326.742 221.215 324.756 218.852 320.594 218.677C316.385 218.535 311.636 220.612 309.904 223.372L309.888 223.388ZM319.625 220.454C322.246 220.628 323.501 222.166 322.373 223.943L316.353 233.426C315.511 232.617 314.066 232.094 312.207 232.015C309.285 231.888 306.505 232.966 306.505 232.966L312.446 223.514C313.589 221.691 316.719 220.327 319.483 220.438H319.625V220.454Z" fill="#190602"/>
<path d="M291.145 226.321L284.728 236.519L282.186 236.408L288.603 226.21C288.889 225.751 289.699 225.402 290.382 225.433C291.097 225.465 291.431 225.862 291.145 226.321Z" fill="#190602"/>
<path d="M303.169 226.845L296.752 237.042L294.21 236.931L300.628 226.734C300.914 226.274 301.724 225.925 302.407 225.957C303.122 225.988 303.455 226.385 303.169 226.845Z" fill="#190602"/>
<path d="M298.293 224.783L290.748 236.788L288.206 236.677L295.751 224.672C296.037 224.212 296.847 223.863 297.53 223.895C298.245 223.927 298.579 224.323 298.293 224.783Z" fill="#190602"/>
<path d="M188.77 293.388V307.519C188.818 316.019 194.393 324.503 205.544 330.974C227.989 343.994 264.618 343.994 287.206 330.974C298.579 324.424 304.249 315.797 304.234 307.202V293.071" fill="#FFEEDA"/>
<path d="M188.77 293.388V307.519C188.818 316.019 194.393 324.503 205.544 330.974C227.989 343.994 264.618 343.994 287.206 330.974C298.579 324.424 304.249 315.797 304.234 307.202V293.071" stroke="#101010" stroke-width="1.5"/>
<path d="M188.77 280.463V294.594C188.818 303.094 194.393 311.579 205.544 318.049C227.989 331.069 264.618 331.069 287.206 318.049C298.579 311.499 304.249 302.872 304.234 294.277V280.146" fill="#FFEEDA"/>
<path d="M188.77 280.463V294.594C188.818 303.094 194.393 311.579 205.544 318.049C227.989 331.069 264.618 331.069 287.206 318.049C298.579 311.499 304.249 302.872 304.234 294.277V280.146" stroke="#101010" stroke-width="1.5"/>
<path d="M188.77 267.539V281.669C188.818 290.169 194.393 298.654 205.544 305.124C227.989 318.144 264.618 318.144 287.206 305.124C298.579 298.574 304.249 289.947 304.234 281.352V267.221" fill="#FFEEDA"/>
<path d="M188.77 267.539V281.669C188.818 290.169 194.393 298.654 205.544 305.124C227.989 318.144 264.618 318.144 287.206 305.124C298.579 298.574 304.249 289.947 304.234 281.352V267.221" stroke="#101010" stroke-width="1.5"/>
<path d="M188.77 254.614V268.744C188.818 277.244 194.393 285.729 205.544 292.199C227.989 305.219 264.618 305.219 287.206 292.199C298.579 285.649 304.249 277.022 304.234 268.427V254.296" fill="#FFEEDA"/>
<path d="M188.77 254.614V268.744C188.818 277.244 194.393 285.729 205.544 292.199C227.989 305.219 264.618 305.219 287.206 292.199C298.579 285.649 304.249 277.022 304.234 268.427V254.296" stroke="#101010" stroke-width="1.5"/>
<path d="M188.77 241.673V255.803C188.818 264.303 194.393 272.788 205.544 279.258C227.989 292.278 264.618 292.278 287.206 279.258C298.579 272.708 304.249 264.081 304.234 255.486V241.356" fill="#FFEEDA"/>
<path d="M188.77 241.673V255.803C188.818 264.303 194.393 272.788 205.544 279.258C227.989 292.278 264.618 292.278 287.206 279.258C298.579 272.708 304.249 264.081 304.234 255.486V241.356" stroke="#101010" stroke-width="1.5"/>
<path d="M287.46 219.74C309.904 232.76 309.777 253.947 287.19 266.968C264.602 279.988 227.973 279.988 205.528 266.968C183.083 253.947 183.21 232.76 205.798 219.74C228.386 206.72 265.015 206.72 287.46 219.74Z" fill="white" stroke="#101010" stroke-width="1.5" stroke-linejoin="round"/>
<path d="M261.314 231.444L236.344 230.366C234.231 230.302 231.865 231.333 230.991 232.713L220.142 249.983C217.886 253.71 220.618 256.898 226.273 257.135C228.179 257.215 230.006 256.945 231.769 256.501C233.247 256.12 234.787 255.47 236.042 254.836C236.392 254.661 236.249 254.741 237.17 254.17C238.425 253.393 239.378 252.473 239.378 252.473L254.293 253.107C255.024 253.107 255.723 253.091 256.406 253.012C258.741 252.727 260.965 251.823 262.601 250.538C263.284 249.999 263.872 249.396 264.316 248.746L273.069 234.965C274.8 232.205 272.815 229.842 268.653 229.668C266.143 229.557 263.427 230.255 261.314 231.428V231.444Z" fill="#FFEEDA"/>
<path d="M267.731 231.396C270.352 231.571 271.607 233.109 270.479 234.885L264.459 244.369C263.617 243.56 262.172 243.037 260.313 242.957C257.391 242.83 254.611 243.909 254.611 243.909L260.552 234.457C261.695 232.633 264.825 231.269 267.588 231.38H267.731V231.396Z" fill="#EBC28E"/>
<path d="M234.454 253.852C232.214 254.867 229.688 255.565 227.306 255.454H227.036C222.985 255.184 221.111 252.806 222.699 250.094L233.548 232.824C233.866 232.364 234.565 232.031 235.248 232.062L257.279 233.014C257.645 232.617 257.835 232.427 258.28 232.062C258.614 231.777 259.281 231.349 259.281 231.349L236.312 230.365C234.199 230.302 231.833 231.333 230.959 232.713L220.11 249.983C217.854 253.71 220.586 256.897 226.241 257.135C229.529 257.278 232.929 256.406 235.931 254.867C236.106 254.772 236.36 254.661 236.55 254.36C236.868 253.852 236.503 253.456 235.804 253.456C235.232 253.488 234.914 253.646 234.454 253.852Z" fill="#190602"/>
<path d="M257.994 234.33L249.48 247.874C248.908 248.778 249.575 249.57 250.957 249.618L253.88 249.745C255.23 249.777 256.882 249.063 257.47 248.143L258.105 247.128L255.596 247.017L254.96 248.032L252.085 247.905L252.435 247.35C253.499 245.653 256.692 244.48 259.265 244.591C261.536 244.686 263.585 246.177 261.902 248.46C260.409 250.49 257.009 251.458 255.008 251.378L230.101 250.316C228.958 250.268 227.687 250.839 227.226 251.569L226.384 252.917L228.926 253.028L229.561 252.013L253.96 253.059C258.884 253.329 262.902 251.045 264.475 248.555L273.116 234.917C274.848 232.157 272.862 229.794 268.7 229.62C264.491 229.477 259.741 231.555 258.01 234.314L257.994 234.33ZM267.731 231.396C270.352 231.571 271.607 233.109 270.479 234.885L264.459 244.369C263.617 243.56 262.172 243.037 260.313 242.957C257.391 242.83 254.611 243.909 254.611 243.909L260.552 234.457C261.695 232.633 264.824 231.269 267.588 231.38H267.731V231.396Z" fill="#190602"/>
<path d="M239.251 237.28L232.833 247.477L230.292 247.366L236.709 237.169C236.995 236.709 237.805 236.36 238.488 236.392C239.203 236.423 239.537 236.82 239.251 237.28Z" fill="#190602"/>
<path d="M251.275 237.787L244.858 247.985L242.316 247.874L248.734 237.676C249.019 237.216 249.83 236.868 250.513 236.899C251.227 236.931 251.561 237.327 251.275 237.787Z" fill="#190602"/>
<path d="M246.399 235.726L238.853 247.731L236.312 247.62L243.857 235.615C244.143 235.155 244.953 234.806 245.636 234.838C246.351 234.869 246.684 235.266 246.399 235.726Z" fill="#190602"/>
</g>
<defs>
<linearGradient id="paint0_linear_10373_3888" x1="153.967" y1="357.49" x2="153.967" y2="86.3355" gradientUnits="userSpaceOnUse">
<stop stop-color="#DCFFFF"/>
<stop offset="1" stop-color="white" stop-opacity="0"/>
</linearGradient>
<clipPath id="clip0_10373_3888">
<rect width="355" height="355" fill="white"/>
</clipPath>
</defs>
</svg>
