<svg width="488" height="435" viewBox="0 0 488 435" fill="none" xmlns="http://www.w3.org/2000/svg">
<path d="M173.004 432.24L486.547 241.861V224.637L173.004 415.515L173.004 432.24Z" fill="#E6CAAA" stroke="#101010" stroke-width="2" stroke-linejoin="round"/>
<path d="M1.93091 317.589L173.096 415.528V433.058L1.93091 334.813V317.589Z" fill="#E6CAAA" stroke="#101010" stroke-width="2" stroke-linejoin="round"/>
<path d="M486.915 223.918L172.8 415.898L1.98022 317.664L325.546 132.048L486.915 223.918Z" fill="#FFEEDA" stroke="#101010" stroke-width="2" stroke-linejoin="round"/>
<path d="M104.838 345.635C103.659 346.321 103.189 347.134 103.189 347.832C103.189 348.53 103.647 349.343 104.838 350.029C106.017 350.716 107.597 351.071 109.211 351.071C110.826 351.071 112.406 350.716 113.585 350.029C114.764 349.343 115.234 348.53 115.234 347.832C115.234 347.134 114.776 346.321 113.585 345.635C112.406 344.959 110.826 344.593 109.211 344.593C107.597 344.593 106.017 344.948 104.838 345.635Z" fill="#C69960" stroke="#101010" stroke-width="2"/>
<path d="M285.643 177.183C284.464 177.87 283.995 178.682 283.995 179.38C283.995 180.078 284.453 180.891 285.643 181.578C286.822 182.264 288.402 182.619 290.017 182.619C291.631 182.619 293.211 182.264 294.39 181.578C295.569 180.891 296.039 180.078 296.039 179.38C296.039 178.682 295.581 177.87 294.39 177.183C293.211 176.496 291.631 176.142 290.017 176.142C288.402 176.142 286.822 176.496 285.643 177.183Z" fill="#C69960" stroke="#101010" stroke-width="2"/>
<path d="M396.038 240.387L427.515 258.694V277.571" stroke="#101010" stroke-width="2" stroke-linecap="round" stroke-linejoin="round"/>
<path d="M285.594 176.142L269.798 164.502" stroke="#101010" stroke-width="2" stroke-linecap="round" stroke-linejoin="round"/>
<path d="M107.131 273.105L95.4344 264.872" stroke="#101010" stroke-width="2" stroke-linecap="round" stroke-linejoin="round"/>
<path d="M104.975 350.201L82.9365 363.087" stroke="#101010" stroke-width="2" stroke-linecap="round" stroke-linejoin="round"/>
<path d="M401.496 176.142L371.521 192.539" stroke="#101010" stroke-width="2" stroke-linecap="round" stroke-linejoin="round"/>
<path d="M276.438 247.578L233.342 273.105" stroke="#101010" stroke-width="2" stroke-linecap="round" stroke-linejoin="round"/>
<path d="M235.082 346.681L261.703 362.009V378.606" stroke="#101010" stroke-width="2" stroke-linecap="round" stroke-linejoin="round"/>
<path d="M235.162 273.46C233.983 272.773 232.403 272.419 230.789 272.419C229.174 272.419 227.594 272.773 226.415 273.46C225.236 274.147 224.767 274.959 224.767 275.657C224.767 276.356 225.225 277.168 226.415 277.855C227.594 278.541 229.174 278.896 230.789 278.896C232.403 278.896 233.983 278.541 235.162 277.855C236.341 277.168 236.811 276.356 236.811 275.657C236.811 274.959 236.353 274.147 235.162 273.46Z" fill="#C69960" stroke="#101010" stroke-width="2"/>
<path d="M127.939 279.246C126.76 278.559 125.18 278.205 123.566 278.205C121.952 278.205 120.372 278.559 119.193 279.246C118.013 279.933 117.544 280.745 117.544 281.443C117.544 282.142 118.002 282.954 119.193 283.641C120.372 284.327 121.952 284.682 123.566 284.682C125.18 284.682 126.76 284.327 127.939 283.641C129.119 282.954 129.588 282.142 129.588 281.443C129.588 280.745 129.13 279.933 127.939 279.246Z" fill="#C69960" stroke="#101010" stroke-width="2"/>
<path d="M254.586 336.903L251.472 338.711C250.831 339.088 249.777 339.088 249.136 338.711L141.724 276.717C141.083 276.34 140.557 275.435 140.557 274.692V204.458C140.557 203.714 141.083 202.799 141.724 202.432L144.838 200.624C145.48 200.247 146.533 200.247 147.174 200.624L153.001 204.023C153.642 204.401 154.364 205.271 154.616 205.98L164.713 235.117C164.954 235.827 165.675 236.697 166.328 237.074L172.224 240.473C172.865 240.851 173.701 241.675 174.067 242.316L177.685 248.576C178.063 249.228 178.509 249.159 178.681 248.438L181.337 237.704C181.52 236.983 182.184 236.09 182.825 235.712L185.939 233.904C186.58 233.527 187.634 233.527 188.275 233.904L194.159 237.315C194.801 237.692 195.476 238.573 195.659 239.306L200.513 258.864C200.697 259.585 201.361 260.478 202.013 260.855L207.909 264.254C208.55 264.632 209.295 265.49 209.558 266.189L219.438 292.03C219.702 292.728 220.446 293.598 221.087 293.975L227.132 297.523C227.773 297.901 228.597 298.736 228.975 299.377L235.856 311.302C236.233 311.943 237.058 312.778 237.699 313.144L243.595 316.543C244.236 316.921 245.072 317.745 245.438 318.386L255.067 335.06C255.444 335.701 255.215 336.536 254.574 336.914L254.586 336.903Z" fill="#101010" stroke="#101010" stroke-width="2" stroke-linecap="round" stroke-linejoin="round"/>
<path d="M200.913 269.668L192.67 264.918L201.131 260.043C201.394 260.375 201.703 260.672 202.001 260.844L207.897 264.243C208.218 264.426 208.561 264.735 208.859 265.078L200.913 269.668Z" fill="#FFEEDA" stroke="#101010" stroke-width="2" stroke-linecap="round" stroke-linejoin="round"/>
<path d="M228.15 298.324L220.136 302.959L211.893 298.186L220.33 293.323C220.582 293.586 220.845 293.803 221.097 293.952L227.142 297.5C227.463 297.683 227.829 297.992 228.161 298.324H228.15Z" fill="#FFEEDA" stroke="#101010" stroke-width="2" stroke-linecap="round" stroke-linejoin="round"/>
<path d="M244.613 317.333L236.611 321.956L228.368 317.207L236.737 312.377C237.057 312.686 237.389 312.961 237.687 313.133L243.583 316.532C243.904 316.715 244.27 317.012 244.602 317.344L244.613 317.333Z" fill="#FFEEDA" stroke="#101010" stroke-width="2" stroke-linecap="round" stroke-linejoin="round"/>
<path d="M173.219 241.274L165.216 245.898L156.973 241.148L165.399 236.284C165.674 236.605 165.995 236.902 166.304 237.074L172.2 240.473C172.52 240.656 172.887 240.954 173.219 241.286V241.274Z" fill="#FFEEDA" stroke="#101010" stroke-width="2" stroke-linecap="round" stroke-linejoin="round"/>
<path d="M187.186 242.728L180.97 239.146L181.325 237.704C181.508 236.983 182.172 236.09 182.813 235.712L185.927 233.904C186.568 233.527 187.621 233.527 188.263 233.904L194.147 237.315C194.468 237.498 194.8 237.818 195.075 238.184L187.175 242.739L187.186 242.728Z" fill="#FFEEDA" stroke="#101010" stroke-width="2" stroke-linecap="round" stroke-linejoin="round"/>
<path d="M140.544 204.458C140.544 203.714 141.071 202.799 141.712 202.432L144.826 200.624C145.467 200.247 146.521 200.247 147.162 200.624L152.989 204.012C153.31 204.195 153.653 204.515 153.939 204.859L145.994 209.448L140.544 206.301V204.458Z" fill="#FFEEDA" stroke="#101010" stroke-width="2" stroke-linecap="round" stroke-linejoin="round"/>
<path d="M249.124 338.711L141.712 276.717C141.071 276.339 140.544 275.435 140.544 274.691V204.458C140.544 203.714 141.071 203.417 141.712 203.783L147.54 207.17C148.181 207.548 148.902 208.418 149.154 209.127L159.252 238.264C159.492 238.974 160.225 239.844 160.866 240.221L166.762 243.62C167.403 243.998 168.239 244.822 168.605 245.463L175.486 257.388C175.864 258.029 176.31 257.971 176.482 257.25L181.325 237.692C181.508 236.971 182.172 236.685 182.824 237.063L188.709 240.473C189.35 240.851 190.026 241.743 190.209 242.464L195.063 262.023C195.246 262.744 195.91 263.636 196.563 264.014L202.459 267.413C203.1 267.791 203.844 268.649 204.108 269.347L213.988 295.188C214.251 295.886 214.995 296.756 215.636 297.134L221.681 300.681C222.322 301.059 223.147 301.894 223.525 302.535L230.417 314.46C230.795 315.101 231.619 315.937 232.26 316.303L238.156 319.702C238.797 320.079 239.633 320.903 239.999 321.544L249.628 338.219C250.005 338.859 249.777 339.088 249.135 338.711H249.124Z" fill="#E6CAAA" stroke="#101010" stroke-width="2" stroke-linecap="round" stroke-linejoin="round"/>
<path d="M238.134 346.401L235.02 348.209C234.379 348.587 233.326 348.587 232.685 348.209L125.273 286.216C124.621 285.838 124.105 284.934 124.105 284.19V223.467C124.105 222.723 124.632 221.807 125.273 221.441L128.387 219.633C129.028 219.255 130.082 219.255 130.723 219.633L136.55 223.02C137.191 223.398 137.958 224.256 138.268 224.943L148.159 247.397C148.457 248.083 149.224 248.942 149.876 249.308L155.773 252.707C156.414 253.085 157.249 253.909 157.616 254.561L161.84 261.931C162.207 262.583 162.722 262.538 162.974 261.828L164.84 256.667C165.092 255.968 165.825 255.087 166.466 254.721L169.58 252.913C170.221 252.535 171.274 252.535 171.915 252.913L177.8 256.323C178.441 256.701 179.162 257.571 179.414 258.28L186.764 279.555C187.005 280.265 187.795 280.974 188.516 281.157L194.126 282.531C194.847 282.702 195.66 283.412 195.946 284.11L202.976 301.551C203.25 302.238 204.006 303.107 204.647 303.485L210.692 307.033C211.333 307.41 212.157 308.246 212.535 308.887L219.416 320.812C219.794 321.453 220.618 322.288 221.259 322.654L227.155 326.053C227.796 326.431 228.632 327.255 228.998 327.896L238.627 344.57C239.005 345.211 238.776 346.046 238.134 346.424V346.401Z" fill="#101010" stroke="#101010" stroke-width="2" stroke-linecap="round" stroke-linejoin="round"/>
<path d="M194.697 282.759L184.439 288.676L178.966 285.517L187.496 280.574C187.805 280.837 188.16 281.043 188.503 281.134L194.113 282.508C194.308 282.553 194.502 282.645 194.697 282.759Z" fill="white" stroke="#101010" stroke-width="2" stroke-linejoin="round"/>
<path d="M211.676 307.822L203.662 312.446L195.418 307.696L203.856 302.833C204.108 303.096 204.383 303.325 204.635 303.473L210.68 307.021C211 307.204 211.355 307.502 211.687 307.834L211.676 307.822Z" fill="white" stroke="#101010" stroke-width="2" stroke-linejoin="round"/>
<path d="M228.15 326.831L220.136 331.455L211.904 326.705L220.296 321.864C220.617 322.173 220.96 322.448 221.258 322.631L227.154 326.03C227.475 326.213 227.829 326.511 228.161 326.831H228.15Z" fill="white" stroke="#101010" stroke-width="2" stroke-linejoin="round"/>
<path d="M170.712 261.736L164.324 258.04L164.816 256.666C165.068 255.968 165.801 255.087 166.442 254.721L169.556 252.913C170.197 252.535 171.25 252.535 171.891 252.913L177.776 256.323C178.085 256.506 178.417 256.804 178.692 257.136L170.701 261.748L170.712 261.736Z" fill="white" stroke="#101010" stroke-width="2" stroke-linejoin="round"/>
<path d="M124.093 223.478C124.093 222.735 124.619 221.819 125.261 221.453L128.375 219.645C129.016 219.267 130.069 219.267 130.71 219.645L136.538 223.032C136.858 223.215 137.202 223.524 137.511 223.856L129.531 228.457L124.093 225.321V223.467V223.478Z" fill="white" stroke="#101010" stroke-width="2" stroke-linejoin="round"/>
<path d="M148.742 258.566L140.464 253.794L149.177 248.793C149.394 248.999 149.623 249.182 149.841 249.308L155.737 252.707C156.138 252.936 156.618 253.359 157.008 253.782L148.73 258.555L148.742 258.566Z" fill="white" stroke="#101010" stroke-width="2" stroke-linejoin="round"/>
<path d="M232.672 348.221L125.261 286.227C124.608 285.849 124.093 284.945 124.093 284.201V223.478C124.093 222.734 124.619 222.437 125.261 222.803L131.088 226.19C131.729 226.568 132.496 227.426 132.805 228.113L142.697 250.567C142.995 251.253 143.762 252.1 144.414 252.478L150.31 255.877C150.951 256.254 151.787 257.078 152.154 257.719L159.034 269.644C159.412 270.285 159.916 270.251 160.168 269.541L164.816 256.666C165.068 255.968 165.8 255.694 166.441 256.071L172.326 259.482C172.967 259.859 173.689 260.729 173.94 261.439L181.29 282.714C181.531 283.423 182.321 284.133 183.042 284.316L188.652 285.689C189.373 285.872 190.198 286.57 190.472 287.268L197.502 304.709C197.777 305.396 198.532 306.266 199.173 306.644L205.218 310.191C205.859 310.569 206.684 311.404 207.062 312.045L213.942 323.97C214.32 324.611 215.144 325.446 215.785 325.813L221.681 329.212C222.323 329.589 223.158 330.413 223.525 331.054L233.153 347.728C233.531 348.381 233.302 348.598 232.661 348.221H232.672Z" fill="#E8E8E8" stroke="#101010" stroke-width="2" stroke-linecap="round" stroke-linejoin="round"/>
<path d="M221.67 355.911L218.556 357.719C217.915 358.097 216.861 358.097 216.22 357.719L108.808 295.726C108.167 295.348 107.641 294.444 107.641 293.7L107.561 239.306C107.561 238.562 108.087 237.646 108.728 237.28L111.877 235.46C112.518 235.083 113.571 235.083 114.224 235.46L120.12 238.859C120.772 239.237 121.528 240.084 121.837 240.77L126.291 250.967C126.588 251.654 127.355 252.512 127.996 252.89L133.835 256.289C134.476 256.666 135.312 257.49 135.679 258.143L141.231 267.733C141.609 268.374 142.273 268.42 142.708 267.813L145.25 264.391C145.696 263.796 146.578 263.007 147.23 262.629L150.344 260.821C150.985 260.443 152.039 260.443 152.68 260.821L158.564 264.231C159.206 264.609 159.961 265.467 160.236 266.165L167.437 284.247C167.712 284.945 168.456 285.804 169.109 286.181L175.005 289.58C175.646 289.958 176.356 290.839 176.573 291.549L184.015 315.902C184.233 316.612 185 317.344 185.721 317.527L202.321 321.739C203.043 321.922 203.833 322.643 204.073 323.352L208.675 336.525C208.916 337.234 209.649 338.104 210.29 338.481L216.186 341.88C216.827 342.258 217.594 343.116 217.892 343.792L222.311 353.988C222.608 354.675 222.322 355.533 221.681 355.911H221.67Z" fill="#101010" stroke="#101010" stroke-width="2" stroke-linecap="round" stroke-linejoin="round"/>
<path d="M167.964 295.062L159.732 290.267L168.17 285.392C168.456 285.724 168.788 286.01 169.097 286.182L174.994 289.58C175.314 289.764 175.646 290.073 175.932 290.427L167.964 295.051V295.062Z" fill="#D2FCF6" stroke="#101010" stroke-width="2" stroke-linecap="round" stroke-linejoin="round"/>
<path d="M203.203 322.219L192.682 328.296L176.207 321.956L184.782 317.012C185.068 317.264 185.4 317.459 185.721 317.539L202.322 321.75C202.619 321.83 202.94 322.002 203.214 322.219H203.203Z" fill="#D2FCF6" stroke="#101010" stroke-width="2" stroke-linecap="round" stroke-linejoin="round"/>
<path d="M209.156 347.305L200.913 342.556L209.374 337.68C209.66 338.012 209.98 338.31 210.29 338.481L216.186 341.88C216.506 342.064 216.85 342.361 217.147 342.693L209.156 347.305Z" fill="#D2FCF6" stroke="#101010" stroke-width="2" stroke-linecap="round" stroke-linejoin="round"/>
<path d="M107.561 239.317C107.561 238.573 108.087 237.669 108.728 237.292L111.877 235.472C112.518 235.094 113.571 235.094 114.224 235.472L120.12 238.871C120.429 239.054 120.772 239.34 121.07 239.672L113.056 244.295L107.572 241.125V239.306L107.561 239.317Z" fill="#D2FCF6" stroke="#101010" stroke-width="2" stroke-linecap="round" stroke-linejoin="round"/>
<path d="M151.489 269.667L144.391 265.57L145.25 264.414C145.696 263.819 146.578 263.03 147.23 262.652L150.344 260.844C150.986 260.466 152.039 260.466 152.68 260.844L158.565 264.254C158.874 264.437 159.206 264.723 159.503 265.055L151.501 269.679L151.489 269.667Z" fill="#D2FCF6" stroke="#101010" stroke-width="2" stroke-linecap="round" stroke-linejoin="round"/>
<path d="M134.82 257.101L126.783 261.748L118.551 256.998L127.035 252.1C127.344 252.444 127.687 252.741 127.996 252.924L133.835 256.323C134.144 256.506 134.499 256.792 134.831 257.113L134.82 257.101Z" fill="#D2FCF6" stroke="#101010" stroke-width="2" stroke-linecap="round" stroke-linejoin="round"/>
<path d="M216.22 357.731L108.728 295.691C108.087 295.314 107.561 294.41 107.561 293.666V239.317C107.561 238.573 108.087 238.264 108.728 238.642L114.624 242.041C115.277 242.418 116.044 243.265 116.342 243.952L120.83 254.16C121.127 254.847 121.894 255.705 122.547 256.071L128.386 259.47C129.027 259.848 129.863 260.672 130.229 261.324L137.144 273.249C137.522 273.89 138.186 273.936 138.632 273.329L145.261 264.403C145.708 263.808 146.589 263.625 147.242 263.991L153.126 267.401C153.779 267.779 154.523 268.637 154.798 269.335L161.999 287.417C162.274 288.115 163.018 288.974 163.671 289.351L169.567 292.75C170.208 293.128 170.918 294.009 171.135 294.719L178.577 319.072C178.794 319.782 179.561 320.514 180.283 320.697L196.883 324.909C197.605 325.092 198.394 325.813 198.635 326.522L203.237 339.695C203.489 340.404 204.21 341.274 204.852 341.652L210.748 345.051C211.389 345.428 212.156 346.287 212.453 346.962L216.873 357.159C217.17 357.845 216.884 358.097 216.243 357.719L216.22 357.731Z" fill="#A3D1C8" stroke="#101010" stroke-width="2" stroke-linecap="round" stroke-linejoin="round"/>
<path d="M328.118 277.571L233.336 222.868L328.118 168.165L422.901 222.868L328.118 277.571Z" fill="#FFEEDA" stroke="#101010" stroke-width="2" stroke-linecap="round" stroke-linejoin="round"/>
<path d="M345.805 232.028V236.005C345.814 238.392 347.385 240.78 350.517 242.601C356.819 246.261 367.107 246.261 373.455 242.601C376.653 240.761 378.242 238.336 378.233 235.912V231.935" fill="#101010"/>
<path d="M345.805 232.028V236.005C345.814 238.392 347.385 240.78 350.517 242.601C356.819 246.261 367.107 246.261 373.455 242.601C376.653 240.761 378.242 238.336 378.233 235.912V231.935" stroke="#101010" stroke-width="2" stroke-linecap="round" stroke-linejoin="round"/>
<path d="M345.805 228.396V232.372C345.814 234.76 347.385 237.147 350.517 238.968C356.819 242.629 367.107 242.629 373.455 238.968C376.653 237.129 378.242 234.704 378.233 232.279V228.303" fill="#101010"/>
<path d="M345.805 228.396V232.372C345.814 234.76 347.385 237.147 350.517 238.968C356.819 242.629 367.107 242.629 373.455 238.968C376.653 237.129 378.242 234.704 378.233 232.279V228.303" stroke="#101010" stroke-width="2" stroke-linecap="round" stroke-linejoin="round"/>
<path d="M345.805 224.763V228.739C345.814 231.127 347.385 233.515 350.517 235.336C356.819 238.996 367.107 238.996 373.455 235.336C376.653 233.496 378.242 231.071 378.233 228.646V224.67" fill="#101010"/>
<path d="M345.805 224.763V228.739C345.814 231.127 347.385 233.515 350.517 235.336C356.819 238.996 367.107 238.996 373.455 235.336C376.653 233.496 378.242 231.071 378.233 228.646V224.67" stroke="#101010" stroke-width="2" stroke-linecap="round" stroke-linejoin="round"/>
<path d="M345.805 221.121V225.097C345.814 227.485 347.385 229.873 350.517 231.694C356.819 235.354 367.107 235.354 373.455 231.694C376.653 229.854 378.242 227.429 378.233 225.004V221.028" fill="#101010"/>
<path d="M345.805 221.121V225.097C345.814 227.485 347.385 229.873 350.517 231.694C356.819 235.354 367.107 235.354 373.455 231.694C376.653 229.854 378.242 227.429 378.233 225.004V221.028" stroke="#101010" stroke-width="2" stroke-linecap="round" stroke-linejoin="round"/>
<path d="M345.805 217.488V221.465C345.814 223.852 347.385 226.24 350.517 228.061C356.819 231.722 367.107 231.722 373.455 228.061C376.653 226.222 378.242 223.797 378.233 221.372V217.395" fill="#101010"/>
<path d="M345.805 217.488V221.465C345.814 223.852 347.385 226.24 350.517 228.061C356.819 231.722 367.107 231.722 373.455 228.061C376.653 226.222 378.242 223.797 378.233 221.372V217.395" stroke="#101010" stroke-width="2" stroke-linecap="round" stroke-linejoin="round"/>
<path d="M345.805 213.846V217.823C345.814 220.211 347.385 222.598 350.517 224.419C356.819 228.08 367.107 228.08 373.455 224.419C376.653 222.58 378.242 220.155 378.233 217.73V213.754" fill="#101010"/>
<path d="M345.805 213.846V217.823C345.814 220.211 347.385 222.598 350.517 224.419C356.819 228.08 367.107 228.08 373.455 224.419C376.653 222.58 378.242 220.155 378.233 217.73V213.754" stroke="#101010" stroke-width="2" stroke-linecap="round" stroke-linejoin="round"/>
<path d="M345.805 210.214V214.19C345.814 216.578 347.385 218.966 350.517 220.787C356.819 224.447 367.107 224.447 373.455 220.787C376.653 218.947 378.242 216.522 378.233 214.097V210.121" fill="#101010"/>
<path d="M345.805 210.214V214.19C345.814 216.578 347.385 218.966 350.517 220.787C356.819 224.447 367.107 224.447 373.455 220.787C376.653 218.947 378.242 216.522 378.233 214.097V210.121" stroke="#101010" stroke-width="2" stroke-linecap="round" stroke-linejoin="round"/>
<path d="M373.521 204.045C379.822 207.705 379.794 213.661 373.446 217.33C367.098 221 356.81 220.991 350.508 217.33C344.207 213.67 344.235 207.715 350.583 204.045C356.93 200.384 367.219 200.384 373.521 204.045Z" fill="white" stroke="#101010" stroke-width="2" stroke-linejoin="round"/>
<path d="M301.026 204.073V208.049C301.035 210.437 302.606 212.824 305.738 214.645C312.039 218.306 322.328 218.306 328.676 214.645C331.873 212.806 333.463 210.381 333.453 207.956V203.98" fill="#101010"/>
<path d="M301.026 204.073V208.049C301.035 210.437 302.606 212.824 305.738 214.645C312.039 218.306 322.328 218.306 328.676 214.645C331.873 212.806 333.463 210.381 333.453 207.956V203.98" stroke="#101010" stroke-width="2" stroke-linecap="round" stroke-linejoin="round"/>
<path d="M301.026 200.44V204.416C301.035 206.804 302.606 209.192 305.738 211.013C312.039 214.673 322.328 214.673 328.676 211.013C331.873 209.173 333.463 206.748 333.453 204.324V200.347" fill="#101010"/>
<path d="M301.026 200.44V204.416C301.035 206.804 302.606 209.192 305.738 211.013C312.039 214.673 322.328 214.673 328.676 211.013C331.873 209.173 333.463 206.748 333.453 204.324V200.347" stroke="#101010" stroke-width="2" stroke-linecap="round" stroke-linejoin="round"/>
<path d="M301.026 196.807V200.784C301.035 203.172 302.606 205.559 305.738 207.38C312.039 211.041 322.328 211.041 328.676 207.38C331.873 205.541 333.463 203.116 333.453 200.691V196.715" fill="#101010"/>
<path d="M301.026 196.807V200.784C301.035 203.172 302.606 205.559 305.738 207.38C312.039 211.041 322.328 211.041 328.676 207.38C331.873 205.541 333.463 203.116 333.453 200.691V196.715" stroke="#101010" stroke-width="2" stroke-linecap="round" stroke-linejoin="round"/>
<path d="M328.741 190.639C335.042 194.299 335.014 200.254 328.666 203.924C322.319 207.594 312.03 207.585 305.728 203.924C299.427 200.264 299.455 194.308 305.803 190.639C312.151 186.969 322.439 186.978 328.741 190.639Z" fill="white" stroke="#101010" stroke-width="2" stroke-linejoin="round"/>
<path d="M260.224 218.826V222.803C260.233 225.19 261.804 227.578 264.936 229.399C271.238 233.059 281.526 233.059 287.874 229.399C291.072 227.559 292.661 225.135 292.652 222.71V218.733" fill="#101010"/>
<path d="M260.224 218.826V222.803C260.233 225.19 261.804 227.578 264.936 229.399C271.238 233.059 281.526 233.059 287.874 229.399C291.072 227.559 292.661 225.135 292.652 222.71V218.733" stroke="#101010" stroke-width="2" stroke-linecap="round" stroke-linejoin="round"/>
<path d="M287.949 212.657C294.25 216.318 294.222 222.273 287.874 225.943C281.527 229.603 271.238 229.603 264.936 225.943C258.635 222.282 258.663 216.327 265.011 212.657C271.359 208.997 281.647 208.997 287.949 212.657Z" fill="white" stroke="#101010" stroke-width="2" stroke-linejoin="round"/>
<path d="M407.955 222.914C408.801 223.388 410.149 223.369 410.967 222.886C411.785 222.394 411.766 221.613 410.92 221.14C410.075 220.666 408.727 220.684 407.909 221.167C407.091 221.66 407.11 222.44 407.955 222.914Z" fill="#101010" stroke="#101010" stroke-width="2" stroke-linejoin="round"/>
<path d="M407.231 170.878L407.212 164.579C407.212 161.373 407.193 158.205 407.184 155.121L407.156 143.749C407.156 143.442 407.351 143.127 407.76 142.885C407.863 142.82 407.974 142.773 408.095 142.727C408.179 142.69 408.262 142.662 408.355 142.643C408.383 142.643 408.402 142.634 408.43 142.625C408.448 142.625 408.476 142.616 408.495 142.606C408.522 142.606 408.55 142.588 408.578 142.588C408.643 142.569 408.718 142.56 408.792 142.551C408.811 142.551 408.82 142.551 408.838 142.551C408.857 142.551 408.866 142.551 408.885 142.551C408.922 142.551 408.959 142.541 408.996 142.541C409.071 142.541 409.136 142.532 409.21 142.532C409.22 142.532 409.238 142.532 409.247 142.532C409.266 142.532 409.275 142.532 409.294 142.532C409.34 142.532 409.387 142.532 409.424 142.532C409.508 142.532 409.582 142.532 409.666 142.551C409.666 142.551 409.675 142.551 409.684 142.551C409.768 142.551 409.852 142.569 409.935 142.588C409.954 142.588 409.972 142.597 410 142.606C410.075 142.625 410.14 142.643 410.214 142.662C410.26 142.671 410.298 142.681 410.344 142.69C410.363 142.69 410.372 142.699 410.381 142.708C410.521 142.755 410.66 142.811 410.781 142.885C410.799 142.894 410.818 142.904 410.827 142.913C410.865 142.941 410.902 142.969 410.939 142.996C410.985 143.034 411.041 143.062 411.078 143.099C411.078 143.099 411.097 143.108 411.097 143.117C411.143 143.164 411.19 143.21 411.227 143.257C411.227 143.257 411.236 143.275 411.246 143.284C411.246 143.294 411.264 143.303 411.264 143.312C411.283 143.331 411.301 143.359 411.311 143.377C411.329 143.415 411.348 143.461 411.366 143.498C411.366 143.498 411.366 143.507 411.366 143.517C411.366 143.517 411.366 143.526 411.366 143.535C411.366 143.563 411.385 143.591 411.394 143.619C411.394 143.656 411.404 143.703 411.413 143.74V143.758L411.571 222.041C411.571 222.348 411.376 222.663 410.967 222.905C410.865 222.97 410.753 223.016 410.632 223.063C410.549 223.1 410.465 223.128 410.372 223.147C410.344 223.147 410.325 223.156 410.298 223.165C410.279 223.165 410.251 223.174 410.233 223.184C410.205 223.184 410.177 223.202 410.149 223.202C410.084 223.221 410.01 223.23 409.935 223.239C409.917 223.239 409.907 223.239 409.889 223.239C409.87 223.239 409.861 223.239 409.842 223.239C409.805 223.239 409.768 223.249 409.731 223.249C409.666 223.249 409.591 223.258 409.517 223.258C409.508 223.258 409.489 223.258 409.48 223.258C409.461 223.258 409.452 223.258 409.433 223.258C409.387 223.258 409.34 223.258 409.303 223.258C409.22 223.258 409.145 223.258 409.061 223.239C409.061 223.239 409.052 223.239 409.043 223.239C408.959 223.239 408.876 223.221 408.792 223.202C408.773 223.202 408.755 223.193 408.727 223.184C408.653 223.165 408.588 223.147 408.513 223.128C408.467 223.119 408.43 223.109 408.383 223.1C408.364 223.1 408.355 223.091 408.346 223.081C408.206 223.035 408.067 222.979 407.946 222.905C407.928 222.896 407.909 222.886 407.9 222.877C407.863 222.849 407.825 222.821 407.788 222.793C407.742 222.756 407.686 222.728 407.649 222.691C407.649 222.691 407.63 222.682 407.63 222.673C407.584 222.626 407.537 222.58 407.5 222.533C407.5 222.533 407.491 222.515 407.482 222.505C407.482 222.496 407.463 222.487 407.463 222.478C407.444 222.459 407.426 222.431 407.416 222.413C407.398 222.375 407.379 222.329 407.361 222.292C407.361 222.292 407.361 222.283 407.361 222.273C407.361 222.273 407.361 222.264 407.361 222.255C407.361 222.227 407.342 222.199 407.333 222.171C407.333 222.134 407.323 222.087 407.323 222.05C407.323 222.05 407.323 222.041 407.323 222.032C407.314 218.473 407.305 190.62 407.296 186.653L407.268 177.158C407.268 175.077 407.258 172.977 407.249 170.878H407.231Z" fill="white" stroke="#101010" stroke-width="2" stroke-linecap="round" stroke-linejoin="round"/>
<path d="M407.76 142.885C408.578 142.392 409.926 142.383 410.771 142.857C411.617 143.331 411.636 144.111 410.818 144.604C410 145.096 408.652 145.105 407.807 144.631C406.961 144.158 406.942 143.377 407.76 142.885ZM409.145 143.823C409.229 143.87 409.349 143.87 409.433 143.823C409.507 143.777 409.507 143.702 409.433 143.656C409.349 143.61 409.229 143.61 409.145 143.656C409.071 143.702 409.071 143.777 409.145 143.823Z" fill="#101010" stroke="#101010" stroke-width="2" stroke-linejoin="round"/>
<path d="M244.545 222.914C245.391 223.388 246.738 223.369 247.556 222.886C248.374 222.394 248.355 221.613 247.51 221.14C246.664 220.666 245.316 220.684 244.498 221.167C243.68 221.66 243.699 222.44 244.545 222.914Z" fill="#101010" stroke="#101010" stroke-width="2" stroke-linejoin="round"/>
<path d="M243.82 170.878L243.801 164.579C243.801 161.373 243.783 158.205 243.774 155.121L243.746 143.749C243.746 143.442 243.941 143.127 244.35 142.885C244.452 142.82 244.564 142.773 244.684 142.727C244.768 142.69 244.852 142.662 244.945 142.643C244.972 142.643 244.991 142.634 245.019 142.625C245.037 142.625 245.065 142.616 245.084 142.606C245.112 142.606 245.14 142.588 245.168 142.588C245.233 142.569 245.307 142.56 245.381 142.551C245.4 142.551 245.409 142.551 245.428 142.551C245.446 142.551 245.456 142.551 245.474 142.551C245.511 142.551 245.549 142.541 245.586 142.541C245.66 142.541 245.725 142.532 245.8 142.532C245.809 142.532 245.828 142.532 245.837 142.532C245.855 142.532 245.865 142.532 245.883 142.532C245.93 142.532 245.976 142.532 246.013 142.532C246.097 142.532 246.171 142.532 246.255 142.551C246.255 142.551 246.264 142.551 246.274 142.551C246.357 142.551 246.441 142.569 246.525 142.588C246.543 142.588 246.562 142.597 246.59 142.606C246.664 142.625 246.729 142.643 246.803 142.662C246.85 142.671 246.887 142.681 246.934 142.69C246.952 142.69 246.961 142.699 246.971 142.708C247.11 142.755 247.25 142.811 247.37 142.885C247.389 142.894 247.407 142.904 247.417 142.913C247.454 142.941 247.491 142.969 247.528 142.996C247.575 143.034 247.631 143.062 247.668 143.099C247.668 143.099 247.686 143.108 247.686 143.117C247.733 143.164 247.779 143.21 247.816 143.257C247.816 143.257 247.826 143.275 247.835 143.284C247.835 143.294 247.854 143.303 247.854 143.312C247.872 143.331 247.891 143.359 247.9 143.377C247.919 143.415 247.937 143.461 247.956 143.498C247.956 143.498 247.956 143.507 247.956 143.517C247.956 143.517 247.956 143.526 247.956 143.535C247.956 143.563 247.975 143.591 247.984 143.619C247.984 143.656 247.993 143.703 248.002 143.74V143.758L248.16 222.041C248.16 222.348 247.965 222.663 247.556 222.905C247.454 222.97 247.342 223.016 247.222 223.063C247.138 223.1 247.054 223.128 246.961 223.147C246.933 223.147 246.915 223.156 246.887 223.165C246.868 223.165 246.841 223.174 246.822 223.184C246.794 223.184 246.766 223.202 246.738 223.202C246.673 223.221 246.599 223.23 246.525 223.239C246.506 223.239 246.497 223.239 246.478 223.239C246.46 223.239 246.45 223.239 246.432 223.239C246.394 223.239 246.357 223.249 246.32 223.249C246.255 223.249 246.181 223.258 246.106 223.258C246.097 223.258 246.078 223.258 246.069 223.258C246.051 223.258 246.041 223.258 246.023 223.258C245.976 223.258 245.93 223.258 245.893 223.258C245.809 223.258 245.735 223.258 245.651 223.239C245.651 223.239 245.642 223.239 245.632 223.239C245.549 223.239 245.465 223.221 245.381 223.202C245.363 223.202 245.344 223.193 245.316 223.184C245.242 223.165 245.177 223.147 245.103 223.128C245.056 223.119 245.019 223.109 244.973 223.1C244.954 223.1 244.945 223.091 244.935 223.081C244.796 223.035 244.656 222.979 244.536 222.905C244.517 222.896 244.498 222.886 244.489 222.877C244.452 222.849 244.415 222.821 244.378 222.793C244.331 222.756 244.275 222.728 244.238 222.691C244.238 222.691 244.22 222.682 244.22 222.673C244.173 222.626 244.127 222.58 244.089 222.533C244.089 222.533 244.08 222.515 244.071 222.505C244.071 222.496 244.052 222.487 244.052 222.478C244.034 222.459 244.015 222.431 244.006 222.413C243.987 222.375 243.969 222.329 243.95 222.292C243.95 222.292 243.95 222.283 243.95 222.273C243.95 222.273 243.95 222.264 243.95 222.255C243.95 222.227 243.932 222.199 243.922 222.171C243.922 222.134 243.913 222.087 243.913 222.05C243.913 222.05 243.913 222.041 243.913 222.032C243.904 218.473 243.894 190.62 243.885 186.653L243.857 177.158C243.857 175.077 243.848 172.977 243.839 170.878H243.82Z" fill="white" stroke="#101010" stroke-width="2" stroke-linecap="round" stroke-linejoin="round"/>
<path d="M244.35 142.885C245.168 142.392 246.515 142.383 247.361 142.857C248.207 143.331 248.226 144.111 247.408 144.604C246.59 145.096 245.242 145.105 244.396 144.631C243.551 144.158 243.532 143.377 244.35 142.885ZM245.735 143.823C245.818 143.87 245.939 143.87 246.023 143.823C246.097 143.777 246.097 143.702 246.023 143.656C245.939 143.61 245.818 143.61 245.735 143.656C245.66 143.702 245.66 143.777 245.735 143.823Z" fill="#101010" stroke="#101010" stroke-width="2" stroke-linejoin="round"/>
<path d="M326.919 270.482C327.765 270.956 329.113 270.937 329.931 270.454C330.748 269.962 330.73 269.181 329.884 268.708C329.038 268.234 327.691 268.252 326.873 268.735C326.055 269.228 326.074 270.008 326.919 270.482Z" fill="#101010" stroke="#101010" stroke-width="2" stroke-linejoin="round"/>
<path d="M326.203 218.436L326.185 212.137C326.185 208.932 326.166 205.764 326.157 202.679L326.129 191.308C326.129 191.001 326.324 190.685 326.733 190.444C326.835 190.379 326.947 190.332 327.068 190.286C327.151 190.248 327.235 190.221 327.328 190.202C327.356 190.202 327.374 190.193 327.402 190.183C327.421 190.183 327.449 190.174 327.467 190.165C327.495 190.165 327.523 190.146 327.551 190.146C327.616 190.128 327.69 190.118 327.765 190.109C327.783 190.109 327.793 190.109 327.811 190.109C327.83 190.109 327.839 190.109 327.858 190.109C327.895 190.109 327.932 190.1 327.969 190.1C328.043 190.1 328.109 190.091 328.183 190.091C328.192 190.091 328.211 190.091 328.22 190.091C328.239 190.091 328.248 190.091 328.267 190.091C328.313 190.091 328.359 190.091 328.397 190.091C328.48 190.091 328.555 190.091 328.638 190.109C328.638 190.109 328.648 190.109 328.657 190.109C328.741 190.109 328.824 190.128 328.908 190.146C328.926 190.146 328.945 190.156 328.973 190.165C329.047 190.183 329.112 190.202 329.187 190.221C329.233 190.23 329.27 190.239 329.317 190.248C329.335 190.248 329.345 190.258 329.354 190.267C329.493 190.313 329.633 190.369 329.754 190.444C329.772 190.453 329.791 190.462 329.8 190.471C329.837 190.499 329.874 190.527 329.912 190.555C329.958 190.592 330.014 190.62 330.051 190.657C330.051 190.657 330.07 190.667 330.07 190.676C330.116 190.722 330.163 190.769 330.2 190.815C330.2 190.815 330.209 190.834 330.218 190.843C330.218 190.852 330.237 190.862 330.237 190.871C330.256 190.89 330.274 190.917 330.283 190.936C330.302 190.973 330.321 191.02 330.339 191.057C330.339 191.057 330.339 191.066 330.339 191.075C330.339 191.075 330.339 191.085 330.339 191.094C330.339 191.122 330.358 191.15 330.367 191.178C330.367 191.215 330.376 191.261 330.386 191.298V191.317L330.544 269.6C330.544 269.906 330.348 270.222 329.94 270.464C329.837 270.529 329.726 270.575 329.605 270.621C329.521 270.659 329.438 270.687 329.345 270.705C329.317 270.705 329.298 270.714 329.27 270.724C329.252 270.724 329.224 270.733 329.205 270.742C329.177 270.742 329.149 270.761 329.122 270.761C329.057 270.779 328.982 270.789 328.908 270.798C328.889 270.798 328.88 270.798 328.861 270.798C328.843 270.798 328.834 270.798 328.815 270.798C328.778 270.798 328.741 270.807 328.703 270.807C328.638 270.807 328.564 270.817 328.49 270.817C328.48 270.817 328.462 270.817 328.452 270.817C328.434 270.817 328.425 270.817 328.406 270.817C328.359 270.817 328.313 270.817 328.276 270.817C328.192 270.817 328.118 270.817 328.034 270.798C328.034 270.798 328.025 270.798 328.016 270.798C327.932 270.798 327.848 270.779 327.765 270.761C327.746 270.761 327.727 270.752 327.7 270.742C327.625 270.724 327.56 270.705 327.486 270.687C327.439 270.677 327.402 270.668 327.356 270.659C327.337 270.659 327.328 270.649 327.319 270.64C327.179 270.594 327.04 270.538 326.919 270.464C326.9 270.454 326.882 270.445 326.872 270.436C326.835 270.408 326.798 270.38 326.761 270.352C326.714 270.315 326.659 270.287 326.622 270.25C326.622 270.25 326.603 270.241 326.603 270.231C326.556 270.185 326.51 270.138 326.473 270.092C326.473 270.092 326.463 270.073 326.454 270.064C326.454 270.055 326.436 270.045 326.436 270.036C326.417 270.018 326.398 269.99 326.389 269.971C326.371 269.934 326.352 269.888 326.333 269.85C326.333 269.85 326.333 269.841 326.333 269.832C326.333 269.832 326.333 269.823 326.333 269.813C326.333 269.785 326.315 269.757 326.305 269.73C326.305 269.692 326.296 269.646 326.296 269.609C326.296 269.609 326.296 269.6 326.296 269.59C326.287 266.032 326.278 238.179 326.268 234.212L326.24 224.717C326.24 222.636 326.231 220.536 326.222 218.436H326.203Z" fill="white" stroke="#101010" stroke-width="2" stroke-linecap="round" stroke-linejoin="round"/>
<path d="M326.724 190.443C327.542 189.951 328.889 189.942 329.735 190.416C330.581 190.889 330.6 191.67 329.782 192.162C328.964 192.655 327.616 192.664 326.77 192.19C325.925 191.716 325.906 190.936 326.724 190.443ZM328.118 191.391C328.202 191.438 328.323 191.438 328.406 191.391C328.481 191.345 328.481 191.27 328.406 191.224C328.323 191.177 328.202 191.177 328.118 191.224C328.044 191.27 328.044 191.345 328.118 191.391Z" fill="#101010" stroke="#101010" stroke-width="2" stroke-linejoin="round"/>
<path d="M328.118 202.298L233.336 147.604L328.118 92.9014L422.901 147.604L328.118 202.298Z" fill="#E8F628" stroke="#101010" stroke-width="2"/>
<path d="M398.884 147.632L387.044 140.692L375.212 123.793L387.127 154.368L398.884 147.632Z" fill="#FFEEDA" stroke="#101010" stroke-width="2" stroke-linecap="round" stroke-linejoin="round"/>
<path d="M387.043 140.692L375.212 133.752L363.455 140.488L375.212 123.793L387.043 140.692Z" fill="#FFEEDA" stroke="#101010" stroke-width="2" stroke-linecap="round" stroke-linejoin="round"/>
<path d="M375.212 133.752L363.547 99.6184L351.623 133.548L363.455 140.488L375.212 133.752Z" fill="#FFEEDA" stroke="#101010" stroke-width="2" stroke-linecap="round" stroke-linejoin="round"/>
<path d="M363.548 99.6184L351.539 111.455L339.792 126.608L351.623 133.548L363.548 99.6184Z" fill="#FFEEDA" stroke="#101010" stroke-width="2" stroke-linecap="round" stroke-linejoin="round"/>
<path d="M351.539 111.455L339.699 112.932L327.951 119.668L339.791 126.608L351.539 111.455Z" fill="#FFEEDA" stroke="#101010" stroke-width="2" stroke-linecap="round" stroke-linejoin="round"/>
<path d="M339.699 112.932L327.867 105.992L316.119 112.727L327.951 119.668L339.699 112.932Z" fill="#FFEEDA" stroke="#101010" stroke-width="2" stroke-linecap="round" stroke-linejoin="round"/>
<path d="M387.127 154.368L375.212 123.793L363.548 154.164L375.379 161.104L387.127 154.368Z" fill="#FFEEDA" stroke="#101010" stroke-width="2" stroke-linecap="round" stroke-linejoin="round"/>
<path d="M375.212 123.793L363.455 140.488L351.707 147.224L363.548 154.164L375.212 123.793Z" fill="#FFEEDA" stroke="#101010" stroke-width="2" stroke-linecap="round" stroke-linejoin="round"/>
<path d="M363.455 140.488L351.623 133.548L339.875 140.283L351.707 147.224L363.455 140.488Z" fill="#FFEEDA" stroke="#101010" stroke-width="2" stroke-linecap="round" stroke-linejoin="round"/>
<path d="M351.623 133.548L339.791 126.608L327.914 125.465L339.875 140.283L351.623 133.548Z" fill="#FFEEDA" stroke="#101010" stroke-width="2" stroke-linecap="round" stroke-linejoin="round"/>
<path d="M339.792 126.608L327.951 119.668L316.203 126.403L327.914 125.465L339.792 126.608Z" fill="#FFEEDA" stroke="#101010" stroke-width="2" stroke-linecap="round" stroke-linejoin="round"/>
<path d="M327.951 119.668L316.119 112.727L304.362 119.463L316.203 126.403L327.951 119.668Z" fill="#FFEEDA" stroke="#101010" stroke-width="2" stroke-linecap="round" stroke-linejoin="round"/>
<path d="M375.379 161.104L363.548 154.164L351.791 160.899L363.631 167.839L375.379 161.104Z" fill="#FFEEDA" stroke="#101010" stroke-width="2" stroke-linecap="round" stroke-linejoin="round"/>
<path d="M363.548 154.164L351.707 147.224L339.959 153.959L351.79 160.899L363.548 154.164Z" fill="#FFEEDA" stroke="#101010" stroke-width="2" stroke-linecap="round" stroke-linejoin="round"/>
<path d="M351.707 147.224L339.875 140.283L328.118 147.019L339.959 153.959L351.707 147.224Z" fill="#FFEEDA" stroke="#101010" stroke-width="2" stroke-linecap="round" stroke-linejoin="round"/>
<path d="M339.875 140.283L327.914 125.465L316.287 140.079L328.118 147.019L339.875 140.283Z" fill="#FFEEDA" stroke="#101010" stroke-width="2" stroke-linecap="round" stroke-linejoin="round"/>
<path d="M327.914 125.465L316.203 126.403L304.446 133.148L316.287 140.079L327.914 125.465Z" fill="#FFEEDA" stroke="#101010" stroke-width="2" stroke-linecap="round" stroke-linejoin="round"/>
<path d="M316.203 126.403L304.362 119.463L292.865 119.872L304.446 133.148L316.203 126.403Z" fill="#FFEEDA" stroke="#101010" stroke-width="2" stroke-linecap="round" stroke-linejoin="round"/>
<path d="M363.631 167.839L351.79 160.899L340.042 167.644L351.539 169.911L363.631 167.839Z" fill="#FFEEDA" stroke="#101010" stroke-width="2" stroke-linecap="round" stroke-linejoin="round"/>
<path d="M351.79 160.899L339.959 153.959L326.25 156.031L340.043 167.644L351.79 160.899Z" fill="#FFEEDA" stroke="#101010" stroke-width="2" stroke-linecap="round" stroke-linejoin="round"/>
<path d="M339.959 153.959L328.118 147.019L316.37 153.764L326.25 156.031L339.959 153.959Z" fill="#FFEEDA" stroke="#101010" stroke-width="2" stroke-linecap="round" stroke-linejoin="round"/>
<path d="M328.118 147.019L316.286 140.079L304.539 146.824L316.37 153.764L328.118 147.019Z" fill="#FFEEDA" stroke="#101010" stroke-width="2" stroke-linecap="round" stroke-linejoin="round"/>
<path d="M316.286 140.079L304.446 133.148L292.698 139.884L304.539 146.824L316.286 140.079Z" fill="#FFEEDA" stroke="#101010" stroke-width="2" stroke-linecap="round" stroke-linejoin="round"/>
<path d="M304.446 133.148L292.865 119.872L280.866 132.944L292.698 139.884L304.446 133.148Z" fill="#FFEEDA" stroke="#101010" stroke-width="2" stroke-linecap="round" stroke-linejoin="round"/>
<path d="M351.539 169.911L340.042 167.644L328.285 174.38L340.126 181.32L351.539 169.911Z" fill="#FFEEDA" stroke="#101010" stroke-width="2" stroke-linecap="round" stroke-linejoin="round"/>
<path d="M340.042 167.644L326.25 156.031L316.454 167.44L328.285 174.38L340.042 167.644Z" fill="#FFEEDA" stroke="#101010" stroke-width="2" stroke-linecap="round" stroke-linejoin="round"/>
<path d="M326.25 156.031L316.37 153.764L304.623 160.5L316.454 167.44L326.25 156.031Z" fill="#FFEEDA" stroke="#101010" stroke-width="2" stroke-linecap="round" stroke-linejoin="round"/>
<path d="M316.37 153.764L304.539 146.824L292.782 153.56L304.623 160.5L316.37 153.764Z" fill="#FFEEDA" stroke="#101010" stroke-width="2" stroke-linecap="round" stroke-linejoin="round"/>
<path d="M304.539 146.824L292.698 139.884L279.212 126.301L292.781 153.56L304.539 146.824Z" fill="#FFEEDA" stroke="#101010" stroke-width="2" stroke-linecap="round" stroke-linejoin="round"/>
<path d="M292.698 139.884L280.867 132.944L269.109 139.68L279.212 126.301L292.698 139.884Z" fill="#FFEEDA" stroke="#101010" stroke-width="2" stroke-linecap="round" stroke-linejoin="round"/>
<path d="M340.126 181.32L328.285 174.38L316.538 181.116L328.378 188.056L340.126 181.32Z" fill="#FFEEDA" stroke="#101010" stroke-width="2" stroke-linecap="round" stroke-linejoin="round"/>
<path d="M328.285 174.38L316.454 167.44L304.706 174.176L316.538 181.116L328.285 174.38Z" fill="#FFEEDA" stroke="#101010" stroke-width="2" stroke-linecap="round" stroke-linejoin="round"/>
<path d="M316.454 167.44L304.622 160.5L292.865 160.295L304.706 174.176L316.454 167.44Z" fill="#FFEEDA" stroke="#101010" stroke-width="2" stroke-linecap="round" stroke-linejoin="round"/>
<path d="M304.622 160.5L292.782 153.56L281.034 160.295H292.865L304.622 160.5Z" fill="#FFEEDA" stroke="#101010" stroke-width="2" stroke-linecap="round" stroke-linejoin="round"/>
<path d="M292.782 153.56L279.212 126.301L269.193 153.355L281.034 160.295L292.782 153.56Z" fill="#FFEEDA" stroke="#101010" stroke-width="2" stroke-linecap="round" stroke-linejoin="round"/>
<path d="M279.212 126.301L269.109 139.68L257.361 146.415L269.193 153.355L279.212 126.301Z" fill="#FFEEDA" stroke="#101010" stroke-width="2" stroke-linecap="round" stroke-linejoin="round"/>
<path d="M407.955 147.251C408.801 147.725 410.149 147.707 410.967 147.224C411.785 146.731 411.766 145.951 410.92 145.477C410.075 145.003 408.727 145.022 407.909 145.505C407.091 145.997 407.11 146.778 407.955 147.251Z" fill="#101010" stroke="#101010" stroke-width="2" stroke-linejoin="round"/>
<path d="M407.231 95.2149L407.212 88.9159C407.212 85.7106 407.193 82.5425 407.184 79.4581L407.156 68.0863C407.156 67.7797 407.351 67.4639 407.76 67.2223C407.863 67.1573 407.974 67.1108 408.095 67.0644C408.179 67.0272 408.262 66.9994 408.355 66.9808C408.383 66.9808 408.402 66.9715 408.43 66.9622C408.448 66.9622 408.476 66.9529 408.495 66.9436C408.522 66.9436 408.55 66.925 408.578 66.925C408.643 66.9064 408.718 66.8972 408.792 66.8879C408.811 66.8879 408.82 66.8879 408.838 66.8879C408.857 66.8879 408.866 66.8879 408.885 66.8879C408.922 66.8879 408.959 66.8786 408.996 66.8786C409.071 66.8786 409.136 66.8693 409.21 66.8693C409.22 66.8693 409.238 66.8693 409.247 66.8693C409.266 66.8693 409.275 66.8693 409.294 66.8693C409.34 66.8693 409.387 66.8693 409.424 66.8693C409.508 66.8693 409.582 66.8693 409.666 66.8879C409.666 66.8879 409.675 66.8879 409.684 66.8879C409.768 66.8879 409.852 66.9064 409.935 66.925C409.954 66.925 409.972 66.9343 410 66.9436C410.075 66.9622 410.14 66.9808 410.214 66.9993C410.26 67.0086 410.298 67.0179 410.344 67.0272C410.363 67.0272 410.372 67.0365 410.381 67.0458C410.521 67.0922 410.66 67.148 410.781 67.2223C410.799 67.2316 410.818 67.2409 410.827 67.2502C410.865 67.2781 410.902 67.3059 410.939 67.3338C410.985 67.371 411.041 67.3988 411.078 67.436C411.078 67.436 411.097 67.4453 411.097 67.4546C411.143 67.501 411.19 67.5475 411.227 67.5939C411.227 67.5939 411.236 67.6125 411.246 67.6218C411.246 67.6311 411.264 67.6404 411.264 67.6497C411.283 67.6683 411.301 67.6961 411.311 67.7147C411.329 67.7519 411.348 67.7983 411.366 67.8355C411.366 67.8355 411.366 67.8448 411.366 67.8541C411.366 67.8541 411.366 67.8634 411.366 67.8727C411.366 67.9005 411.385 67.9284 411.394 67.9563C411.394 67.9934 411.404 68.0399 411.413 68.0771V68.0956L411.571 146.378C411.571 146.685 411.376 147.001 410.967 147.242C410.865 147.307 410.753 147.354 410.632 147.4C410.549 147.437 410.465 147.465 410.372 147.484C410.344 147.484 410.325 147.493 410.298 147.502C410.279 147.502 410.251 147.512 410.233 147.521C410.205 147.521 410.177 147.54 410.149 147.54C410.084 147.558 410.01 147.567 409.935 147.577C409.917 147.577 409.907 147.577 409.889 147.577C409.87 147.577 409.861 147.577 409.842 147.577C409.805 147.577 409.768 147.586 409.731 147.586C409.666 147.586 409.591 147.595 409.517 147.595C409.508 147.595 409.489 147.595 409.48 147.595C409.461 147.595 409.452 147.595 409.433 147.595C409.387 147.595 409.34 147.595 409.303 147.595C409.22 147.595 409.145 147.595 409.061 147.577C409.061 147.577 409.052 147.577 409.043 147.577C408.959 147.577 408.876 147.558 408.792 147.54C408.773 147.54 408.755 147.53 408.727 147.521C408.653 147.502 408.588 147.484 408.513 147.465C408.467 147.456 408.43 147.447 408.383 147.437C408.364 147.437 408.355 147.428 408.346 147.419C408.206 147.372 408.067 147.317 407.946 147.242C407.928 147.233 407.909 147.224 407.9 147.214C407.863 147.187 407.825 147.159 407.788 147.131C407.742 147.094 407.686 147.066 407.649 147.029C407.649 147.029 407.63 147.019 407.63 147.01C407.584 146.964 407.537 146.917 407.5 146.871C407.5 146.871 407.491 146.852 407.482 146.843C407.482 146.834 407.463 146.824 407.463 146.815C407.444 146.796 407.426 146.768 407.416 146.75C407.398 146.713 407.379 146.666 407.361 146.629C407.361 146.629 407.361 146.62 407.361 146.611C407.361 146.611 407.361 146.601 407.361 146.592C407.361 146.564 407.342 146.536 407.333 146.508C407.333 146.471 407.323 146.425 407.323 146.388C407.323 146.388 407.323 146.378 407.323 146.369C407.314 142.811 407.305 114.957 407.296 110.99L407.268 101.495C407.268 99.4143 407.258 97.3146 407.249 95.2149H407.231Z" fill="white" stroke="#101010" stroke-width="2" stroke-linecap="round" stroke-linejoin="round"/>
<path d="M407.76 67.2221C408.578 66.7297 409.926 66.7204 410.771 67.1942C411.617 67.6681 411.636 68.4485 410.818 68.9409C410 69.4333 408.652 69.4426 407.807 68.9687C406.961 68.4949 406.942 67.7145 407.76 67.2221ZM409.145 68.1605C409.229 68.2069 409.349 68.2069 409.433 68.1605C409.507 68.114 409.507 68.0397 409.433 67.9932C409.349 67.9468 409.229 67.9468 409.145 67.9932C409.071 68.0397 409.071 68.114 409.145 68.1605Z" fill="#101010" stroke="#101010" stroke-width="2" stroke-linejoin="round"/>
<path d="M326.919 194.819C327.765 195.293 329.113 195.275 329.931 194.791C330.748 194.299 330.73 193.519 329.884 193.045C329.038 192.571 327.691 192.59 326.873 193.073C326.055 193.565 326.074 194.345 326.919 194.819Z" fill="#101010" stroke="#101010" stroke-width="2" stroke-linejoin="round"/>
<path d="M326.203 142.783L326.185 136.484C326.185 133.278 326.166 130.11 326.157 127.026L326.129 115.654C326.129 115.348 326.324 115.032 326.733 114.79C326.835 114.725 326.947 114.679 327.068 114.632C327.151 114.595 327.235 114.567 327.328 114.549C327.356 114.549 327.374 114.539 327.402 114.53C327.421 114.53 327.449 114.521 327.467 114.511C327.495 114.511 327.523 114.493 327.551 114.493C327.616 114.474 327.69 114.465 327.765 114.456C327.783 114.456 327.793 114.456 327.811 114.456C327.83 114.456 327.839 114.456 327.858 114.456C327.895 114.456 327.932 114.446 327.969 114.446C328.043 114.446 328.109 114.437 328.183 114.437C328.192 114.437 328.211 114.437 328.22 114.437C328.239 114.437 328.248 114.437 328.267 114.437C328.313 114.437 328.359 114.437 328.397 114.437C328.48 114.437 328.555 114.437 328.638 114.456C328.638 114.456 328.648 114.456 328.657 114.456C328.741 114.456 328.824 114.474 328.908 114.493C328.926 114.493 328.945 114.502 328.973 114.511C329.047 114.53 329.112 114.549 329.187 114.567C329.233 114.577 329.27 114.586 329.317 114.595C329.335 114.595 329.345 114.604 329.354 114.614C329.493 114.66 329.633 114.716 329.754 114.79C329.772 114.799 329.791 114.809 329.8 114.818C329.837 114.846 329.874 114.874 329.912 114.902C329.958 114.939 330.014 114.967 330.051 115.004C330.051 115.004 330.07 115.013 330.07 115.022C330.116 115.069 330.163 115.115 330.2 115.162C330.2 115.162 330.209 115.18 330.218 115.19C330.218 115.199 330.237 115.208 330.237 115.218C330.256 115.236 330.274 115.264 330.283 115.283C330.302 115.32 330.321 115.366 330.339 115.403C330.339 115.403 330.339 115.413 330.339 115.422C330.339 115.422 330.339 115.431 330.339 115.441C330.339 115.468 330.358 115.496 330.367 115.524C330.367 115.561 330.376 115.608 330.386 115.645V115.664L330.544 193.946C330.544 194.253 330.348 194.569 329.94 194.81C329.837 194.875 329.726 194.922 329.605 194.968C329.521 195.005 329.438 195.033 329.345 195.052C329.317 195.052 329.298 195.061 329.27 195.07C329.252 195.07 329.224 195.08 329.205 195.089C329.177 195.089 329.149 195.107 329.122 195.107C329.057 195.126 328.982 195.135 328.908 195.145C328.889 195.145 328.88 195.145 328.861 195.145C328.843 195.145 328.834 195.145 328.815 195.145C328.778 195.145 328.741 195.154 328.703 195.154C328.638 195.154 328.564 195.163 328.49 195.163C328.48 195.163 328.462 195.163 328.452 195.163C328.434 195.163 328.425 195.163 328.406 195.163C328.359 195.163 328.313 195.163 328.276 195.163C328.192 195.163 328.118 195.163 328.034 195.145C328.034 195.145 328.025 195.145 328.016 195.145C327.932 195.145 327.848 195.126 327.765 195.107C327.746 195.107 327.727 195.098 327.7 195.089C327.625 195.07 327.56 195.052 327.486 195.033C327.439 195.024 327.402 195.015 327.356 195.005C327.337 195.005 327.328 194.996 327.319 194.987C327.179 194.94 327.04 194.885 326.919 194.81C326.9 194.801 326.882 194.792 326.872 194.782C326.835 194.754 326.798 194.727 326.761 194.699C326.714 194.662 326.659 194.634 326.622 194.596C326.622 194.596 326.603 194.587 326.603 194.578C326.556 194.531 326.51 194.485 326.473 194.439C326.473 194.439 326.463 194.42 326.454 194.411C326.454 194.401 326.436 194.392 326.436 194.383C326.417 194.364 326.398 194.336 326.389 194.318C326.371 194.281 326.352 194.234 326.333 194.197C326.333 194.197 326.333 194.188 326.333 194.178C326.333 194.178 326.333 194.169 326.333 194.16C326.333 194.132 326.315 194.104 326.305 194.076C326.305 194.039 326.296 193.993 326.296 193.955C326.296 193.955 326.296 193.946 326.296 193.937C326.287 190.379 326.278 162.525 326.268 158.558L326.24 149.063C326.24 146.982 326.231 144.882 326.222 142.783H326.203Z" fill="white" stroke="#101010" stroke-width="2" stroke-linecap="round" stroke-linejoin="round"/>
<path d="M326.724 114.79C327.542 114.298 328.889 114.288 329.735 114.762C330.581 115.236 330.6 116.016 329.782 116.509C328.964 117.001 327.616 117.01 326.77 116.537C325.925 116.063 325.906 115.282 326.724 114.79ZM328.118 115.728C328.202 115.775 328.323 115.775 328.406 115.728C328.481 115.682 328.481 115.608 328.406 115.561C328.323 115.515 328.202 115.515 328.118 115.561C328.044 115.608 328.044 115.682 328.118 115.728Z" fill="#101010" stroke="#101010" stroke-width="2" stroke-linejoin="round"/>
<path d="M244.545 147.251C245.391 147.725 246.738 147.707 247.556 147.224C248.374 146.731 248.355 145.951 247.51 145.477C246.664 145.003 245.316 145.022 244.498 145.505C243.68 145.997 243.699 146.778 244.545 147.251Z" fill="#101010" stroke="#101010" stroke-width="2" stroke-linejoin="round"/>
<path d="M243.82 95.2149L243.801 88.9159C243.801 85.7106 243.783 82.5425 243.774 79.4581L243.746 68.0863C243.746 67.7797 243.941 67.4639 244.35 67.2223C244.452 67.1573 244.564 67.1108 244.684 67.0644C244.768 67.0272 244.852 66.9994 244.945 66.9808C244.972 66.9808 244.991 66.9715 245.019 66.9622C245.037 66.9622 245.065 66.9529 245.084 66.9436C245.112 66.9436 245.14 66.925 245.168 66.925C245.233 66.9064 245.307 66.8972 245.381 66.8879C245.4 66.8879 245.409 66.8879 245.428 66.8879C245.446 66.8879 245.456 66.8879 245.474 66.8879C245.511 66.8879 245.549 66.8786 245.586 66.8786C245.66 66.8786 245.725 66.8693 245.8 66.8693C245.809 66.8693 245.828 66.8693 245.837 66.8693C245.855 66.8693 245.865 66.8693 245.883 66.8693C245.93 66.8693 245.976 66.8693 246.013 66.8693C246.097 66.8693 246.171 66.8693 246.255 66.8879C246.255 66.8879 246.264 66.8879 246.274 66.8879C246.357 66.8879 246.441 66.9064 246.525 66.925C246.543 66.925 246.562 66.9343 246.59 66.9436C246.664 66.9622 246.729 66.9808 246.803 66.9993C246.85 67.0086 246.887 67.0179 246.934 67.0272C246.952 67.0272 246.961 67.0365 246.971 67.0458C247.11 67.0922 247.25 67.148 247.37 67.2223C247.389 67.2316 247.407 67.2409 247.417 67.2502C247.454 67.2781 247.491 67.3059 247.528 67.3338C247.575 67.371 247.631 67.3988 247.668 67.436C247.668 67.436 247.686 67.4453 247.686 67.4546C247.733 67.501 247.779 67.5475 247.816 67.5939C247.816 67.5939 247.826 67.6125 247.835 67.6218C247.835 67.6311 247.854 67.6404 247.854 67.6497C247.872 67.6683 247.891 67.6961 247.9 67.7147C247.919 67.7519 247.937 67.7983 247.956 67.8355C247.956 67.8355 247.956 67.8448 247.956 67.8541C247.956 67.8541 247.956 67.8634 247.956 67.8727C247.956 67.9005 247.975 67.9284 247.984 67.9563C247.984 67.9934 247.993 68.0399 248.002 68.0771V68.0956L248.16 146.378C248.16 146.685 247.965 147.001 247.556 147.242C247.454 147.307 247.342 147.354 247.222 147.4C247.138 147.437 247.054 147.465 246.961 147.484C246.933 147.484 246.915 147.493 246.887 147.502C246.868 147.502 246.841 147.512 246.822 147.521C246.794 147.521 246.766 147.54 246.738 147.54C246.673 147.558 246.599 147.567 246.525 147.577C246.506 147.577 246.497 147.577 246.478 147.577C246.46 147.577 246.45 147.577 246.432 147.577C246.394 147.577 246.357 147.586 246.32 147.586C246.255 147.586 246.181 147.595 246.106 147.595C246.097 147.595 246.078 147.595 246.069 147.595C246.051 147.595 246.041 147.595 246.023 147.595C245.976 147.595 245.93 147.595 245.893 147.595C245.809 147.595 245.735 147.595 245.651 147.577C245.651 147.577 245.642 147.577 245.632 147.577C245.549 147.577 245.465 147.558 245.381 147.54C245.363 147.54 245.344 147.53 245.316 147.521C245.242 147.502 245.177 147.484 245.103 147.465C245.056 147.456 245.019 147.447 244.973 147.437C244.954 147.437 244.945 147.428 244.935 147.419C244.796 147.372 244.656 147.317 244.536 147.242C244.517 147.233 244.498 147.224 244.489 147.214C244.452 147.187 244.415 147.159 244.378 147.131C244.331 147.094 244.275 147.066 244.238 147.029C244.238 147.029 244.22 147.019 244.22 147.01C244.173 146.964 244.127 146.917 244.089 146.871C244.089 146.871 244.08 146.852 244.071 146.843C244.071 146.834 244.052 146.824 244.052 146.815C244.034 146.796 244.015 146.768 244.006 146.75C243.987 146.713 243.969 146.666 243.95 146.629C243.95 146.629 243.95 146.62 243.95 146.611C243.95 146.611 243.95 146.601 243.95 146.592C243.95 146.564 243.932 146.536 243.922 146.508C243.922 146.471 243.913 146.425 243.913 146.388C243.913 146.388 243.913 146.378 243.913 146.369C243.904 142.811 243.894 114.957 243.885 110.99L243.857 101.495C243.857 99.4143 243.848 97.3146 243.839 95.2149H243.82Z" fill="white" stroke="#101010" stroke-width="2" stroke-linecap="round" stroke-linejoin="round"/>
<path d="M244.35 67.2221C245.168 66.7297 246.515 66.7204 247.361 67.1942C248.207 67.6681 248.226 68.4485 247.408 68.9409C246.59 69.4333 245.242 69.4426 244.396 68.9687C243.551 68.4949 243.532 67.7145 244.35 67.2221ZM245.735 68.1605C245.818 68.2069 245.939 68.2069 246.023 68.1605C246.097 68.114 246.097 68.0397 246.023 67.9932C245.939 67.9468 245.818 67.9468 245.735 67.9932C245.66 68.0397 245.66 68.114 245.735 68.1605Z" fill="#101010" stroke="#101010" stroke-width="2" stroke-linejoin="round"/>
<path d="M328.332 113.35L233.55 58.6469L328.332 3.94379L423.114 58.6469L328.332 113.35Z" fill="#FFEEDA" stroke="#101010" stroke-width="2" stroke-linecap="round" stroke-linejoin="round"/>
<path d="M328.332 128.196V113.35L423.114 58.6469V73.4933L328.332 128.196Z" fill="#E6CAAA" stroke="#101010" stroke-width="2"/>
<path d="M328.332 128.196V113.35L233.55 58.6469V73.4933L328.332 128.196Z" fill="#E6CAAA" stroke="#101010" stroke-width="2"/>
<path d="M251.952 53.2955H243.903V53.5463C243.903 53.9458 243.903 54.4754 243.903 55.0049C243.903 55.5345 243.903 56.0641 243.903 56.4636C243.903 56.5565 243.903 56.6401 243.903 56.7144H243.913V57.1325C243.894 57.597 244.191 58.1452 244.991 58.6004C245.781 59.0556 246.84 59.2972 247.918 59.2972C248.996 59.2972 250.065 59.0556 250.846 58.6004C251.645 58.1359 251.934 57.5877 251.934 57.1232V53.2955H251.952Z" fill="#101010" stroke="#101010" stroke-width="2"/>
<path d="M250.855 54.336C251.645 53.8808 251.943 53.3419 251.943 52.8867C251.943 52.4315 251.645 51.8926 250.855 51.4281C250.065 50.9728 249.006 50.7313 247.928 50.7313C246.85 50.7313 245.781 50.9728 245 51.4281C244.21 51.8833 243.903 52.4222 243.903 52.8774C243.903 53.3326 244.21 53.8715 245 54.336C245.79 54.7913 246.85 55.0328 247.928 55.0328C249.006 55.0328 250.075 54.7913 250.855 54.336Z" fill="#FFEEDA" stroke="#101010" stroke-width="2"/>
<path d="M414.61 53.2955H406.562V53.5463C406.562 53.9458 406.562 54.4754 406.562 55.0049C406.562 55.5345 406.562 56.0641 406.562 56.4636C406.562 56.5565 406.562 56.6401 406.562 56.7144H406.571V57.1325C406.552 57.597 406.85 58.1452 407.649 58.6004C408.439 59.0556 409.498 59.2972 410.577 59.2972C411.655 59.2972 412.724 59.0556 413.504 58.6004C414.304 58.1359 414.592 57.5877 414.592 57.1232V53.2955H414.61Z" fill="#101010" stroke="#101010" stroke-width="2"/>
<path d="M413.504 54.336C414.294 53.8808 414.592 53.3419 414.592 52.8867C414.592 52.4315 414.294 51.8926 413.504 51.4281C412.714 50.9728 411.655 50.7313 410.577 50.7313C409.498 50.7313 408.43 50.9728 407.649 51.4281C406.859 51.8833 406.552 52.4222 406.552 52.8774C406.552 53.3326 406.859 53.8715 407.649 54.336C408.439 54.7913 409.498 55.0328 410.577 55.0328C411.655 55.0328 412.724 54.7913 413.504 54.336Z" fill="#FFEEDA" stroke="#101010" stroke-width="2"/>
<path d="M332.152 4.17603H324.103V4.42686C324.103 4.82636 324.103 5.35593 324.103 5.88549C324.103 6.41506 324.103 6.94462 324.103 7.34411C324.103 7.43702 324.103 7.52064 324.103 7.59496H324.112V8.01304C324.094 8.47757 324.391 9.02571 325.19 9.48095C325.98 9.93619 327.04 10.1777 328.118 10.1777C329.196 10.1777 330.265 9.93619 331.046 9.48095C331.845 9.01642 332.133 8.46828 332.133 8.00375V4.17603H332.152Z" fill="#101010" stroke="#101010" stroke-width="2"/>
<path d="M331.046 5.20728C331.836 4.75205 332.133 4.21319 332.133 3.75795C332.133 3.30271 331.836 2.76386 331.046 2.29933C330.256 1.84409 329.196 1.60254 328.118 1.60254C327.04 1.60254 325.971 1.84409 325.191 2.29933C324.401 2.75457 324.094 3.29343 324.094 3.74867C324.094 4.20391 324.401 4.74275 325.191 5.20728C325.981 5.66252 327.04 5.90408 328.118 5.90408C329.196 5.90408 330.265 5.66252 331.046 5.20728Z" fill="#FFEEDA" stroke="#101010" stroke-width="2"/>
<path d="M332.152 99.5999H324.103V99.8507C324.103 100.25 324.103 100.78 324.103 101.309C324.103 101.839 324.103 102.368 324.103 102.768C324.103 102.861 324.103 102.944 324.103 103.019H324.112V103.437C324.094 103.901 324.391 104.45 325.19 104.905C325.98 105.36 327.04 105.602 328.118 105.602C329.196 105.602 330.265 105.36 331.046 104.905C331.845 104.44 332.133 103.892 332.133 103.428V99.5999H332.152Z" fill="#101010" stroke="#101010" stroke-width="2"/>
<path d="M331.046 100.64C331.836 100.185 332.133 99.6463 332.133 99.1911C332.133 98.7358 331.836 98.197 331.046 97.7324C330.256 97.2772 329.196 97.0356 328.118 97.0356C327.04 97.0356 325.971 97.2772 325.191 97.7324C324.401 98.1877 324.094 98.7265 324.094 99.1818C324.094 99.637 324.401 100.176 325.191 100.64C325.981 101.096 327.04 101.337 328.118 101.337C329.196 101.337 330.265 101.096 331.046 100.64Z" fill="#FFEEDA" stroke="#101010" stroke-width="2"/>
<path d="M388.776 236.443C387.596 237.13 387.127 237.943 387.127 238.641C387.127 239.339 387.585 240.151 388.776 240.838C389.955 241.525 391.535 241.879 393.149 241.879C394.763 241.879 396.343 241.525 397.522 240.838C398.702 240.151 399.171 239.339 399.171 238.641C399.171 237.943 398.713 237.13 397.522 236.443C396.343 235.757 394.763 235.402 393.149 235.402C391.535 235.402 389.955 235.757 388.776 236.443Z" fill="#C69960" stroke="#101010" stroke-width="2"/>
<path d="M282.07 245.381C280.89 244.694 279.311 244.34 277.696 244.34C276.082 244.34 274.502 244.694 273.323 245.381C272.144 246.068 271.674 246.88 271.674 247.578C271.674 248.276 272.132 249.089 273.323 249.776C274.502 250.462 276.082 250.817 277.696 250.817C279.311 250.817 280.89 250.462 282.07 249.776C283.249 249.089 283.718 248.276 283.718 247.578C283.718 246.88 283.26 246.068 282.07 245.381Z" fill="#C69960" stroke="#101010" stroke-width="2"/>
<path d="M374.409 191.735C373.23 191.048 371.65 190.693 370.036 190.693C368.421 190.693 366.842 191.048 365.662 191.735C364.483 192.421 364.014 193.234 364.014 193.932C364.014 194.63 364.472 195.443 365.662 196.129C366.842 196.816 368.421 197.171 370.036 197.171C371.65 197.171 373.23 196.816 374.409 196.129C375.588 195.443 376.058 194.63 376.058 193.932C376.058 193.234 375.6 192.421 374.409 191.735Z" fill="#C69960" stroke="#101010" stroke-width="2"/>
</svg>
