<svg width="336" height="355" viewBox="0 0 336 355" fill="none" xmlns="http://www.w3.org/2000/svg">
<g>
<path d="M40.1406 255.387L153.619 320.975V196.747L40.1406 131.159V255.387Z" fill="#E6CAAA" stroke="#101010" stroke-width="1.5" stroke-linejoin="round"/>
<path d="M267.113 255.387L153.635 320.975V196.747L267.113 131.159V255.387Z" fill="#C69960" stroke="#101010" stroke-width="1.5" stroke-linecap="round" stroke-linejoin="round"/>
<path d="M277.845 105.88L153.619 177.686V196.925L277.845 125.119V105.88Z" fill="#C69960" stroke="#101010" stroke-width="1.5" stroke-linecap="round" stroke-linejoin="round"/>
<path d="M29.3933 125.103L153.619 196.909V177.67L29.3933 105.88V125.119V125.103Z" fill="#E6CAAA" stroke="#101010" stroke-width="1.5" stroke-linejoin="round"/>
<path d="M29.3933 105.831L153.635 177.638L277.861 105.831L153.635 34.0247L29.3933 105.831Z" fill="#FFEEDA" stroke="#101010" stroke-width="1.5" stroke-linejoin="round"/>
<path d="M125.359 127.062L197.223 85.5556C199.651 84.1467 199.392 81.6851 196.624 80.0819L190.053 76.2438C187.301 74.6405 184.323 75.2073 181.895 76.6L110.031 118.107C107.603 119.516 107.862 121.977 110.63 123.58L115.939 126.674C118.69 128.277 122.931 128.455 125.359 127.046V127.062Z" fill="#101010" stroke="#101010" stroke-width="1.5" stroke-linecap="round" stroke-linejoin="round"/>
<path d="M187.609 91.1427L126.605 126.398V71.3692L187.609 36.1138V91.1427Z" fill="white" stroke="#101010" stroke-width="1.5" stroke-linecap="round" stroke-linejoin="round"/>
<path d="M135.475 86.4787L137.611 85.2479L140.573 94.8351L143.551 81.8471L145.672 80.6325L141.739 95.7744L139.44 97.1023L135.491 86.4949L135.475 86.4787Z" fill="black"/>
<path d="M147.307 86.1386C147.307 82.6082 148.731 78.7054 152.276 76.6648C155.82 74.6243 157.245 76.9078 157.245 80.4382C157.245 83.9686 155.853 87.8714 152.276 89.912C148.698 91.9525 147.307 89.669 147.307 86.1386ZM152.276 88.1629C154.59 86.835 155.302 84.1305 155.302 81.5394C155.302 78.9483 154.59 77.0535 152.276 78.3815C149.961 79.7094 149.233 82.4301 149.233 85.0212C149.233 87.6123 149.961 89.4747 152.276 88.1468V88.1629Z" fill="black"/>
<path d="M168.154 69.4583L164.334 71.6607V82.8188L162.408 83.92V72.762L158.604 74.9482V73.2154L168.17 67.7255V69.4583H168.154Z" fill="black"/>
<path d="M178.755 61.6364V63.3692L172.799 66.7862V70.6081L178.076 67.5797V69.1506L172.799 72.179V76.1952L178.755 72.7782V74.5272L170.857 79.0616V66.1708L178.755 61.6364Z" fill="black"/>
<path d="M0 88.7459V266.254L153.635 355L307.27 266.254V88.7459L153.635 0L0 88.7459Z" fill="url(#paint0_linear_10967_320)"/>
<path d="M223.719 247.857V261.541C223.752 269.768 229.142 277.963 239.905 284.23C261.578 296.829 296.944 296.829 318.746 284.23C329.72 277.898 335.207 269.558 335.175 261.218V247.533" fill="#FFEEDA"/>
<path d="M223.719 247.857V261.541C223.752 269.768 229.142 277.963 239.905 284.23C261.578 296.829 296.944 296.829 318.746 284.23C329.72 277.898 335.207 269.558 335.175 261.218V247.533" stroke="#101010" stroke-width="1.5" stroke-linejoin="round"/>
<path d="M319.005 226.642C340.678 239.242 340.564 259.744 318.746 272.343C296.928 284.943 261.562 284.943 239.905 272.343C218.249 259.744 218.346 239.242 240.164 226.642C261.983 214.043 297.348 214.043 319.005 226.642Z" fill="url(#paint1_linear_10967_320)" stroke="#101010" stroke-width="1.5" stroke-linejoin="round"/>
<path fill-rule="evenodd" clip-rule="evenodd" d="M248.985 230.011L276.032 222.416C277.893 221.897 279.868 221.816 281.762 222.189L308.792 227.533C311.754 228.116 314.408 229.784 316.237 232.197L326.564 245.8C327.422 246.934 327.47 248.505 326.661 249.687L316.658 264.392C315.023 266.805 312.579 268.554 309.779 269.347L282.733 276.942C280.871 277.461 278.897 277.542 277.003 277.169L249.973 271.825C247.011 271.242 244.356 269.574 242.527 267.161L236.134 258.724C232.929 254.497 232.767 248.683 235.762 244.294L242.106 234.966C243.741 232.553 246.185 230.804 248.985 230.011Z" fill="#FFEEDA"/>
<path d="M248.548 230.14L274.98 222.723C277.489 222.027 280.305 221.913 282.83 222.399L309.488 227.663C312.013 228.165 314.036 229.233 315.088 230.642L326.37 245.509C327.438 246.918 327.47 248.537 326.45 250.027L315.735 265.784C314.716 267.274 312.741 268.505 310.248 269.201L283.817 276.619C281.308 277.315 278.492 277.428 275.967 276.942L249.309 271.679C246.784 271.177 244.761 270.108 243.709 268.699L232.427 253.833C231.359 252.424 231.327 250.804 232.346 249.315L243.061 233.557C244.081 232.067 246.056 230.837 248.548 230.14ZM245.619 234.076L234.904 249.833C234.159 250.918 234.192 252.116 234.969 253.136L246.25 268.003C247.027 269.023 248.5 269.817 250.345 270.173L277.003 275.436C278.848 275.793 280.904 275.712 282.733 275.21L309.164 267.793C310.993 267.274 312.434 266.384 313.178 265.299L323.893 249.541C324.638 248.456 324.605 247.258 323.828 246.238L312.547 231.371C311.77 230.351 310.297 229.557 308.452 229.201L281.794 223.938C279.949 223.582 277.893 223.662 276.064 224.165L249.633 231.582C247.804 232.1 246.363 232.991 245.619 234.076Z" fill="#190602"/>
<path d="M301.67 243.387L279.998 231.873C278.152 230.934 275.288 231.031 273.507 232.148L251.349 245.962C246.655 248.991 246.784 253.509 251.689 256.116C253.34 256.991 255.185 257.477 257.095 257.72C258.681 257.914 260.542 257.882 262.145 257.72C262.582 257.671 262.404 257.72 263.618 257.493C265.301 257.185 266.822 256.618 266.822 256.618L279.787 263.501C280.418 263.809 281.082 264.084 281.778 264.278C284.093 264.942 286.747 264.91 289.11 264.214C290.098 263.922 291.085 263.533 291.943 262.999L309.698 252.003C313.227 249.8 313.162 246.464 309.553 244.553C307.384 243.404 304.454 243.031 301.687 243.387H301.67Z" fill="#FFEEDA"/>
<path d="M307.497 245.979C309.747 247.258 309.731 249.396 307.448 250.821L295.212 258.4C295.034 257.185 294.128 256.019 292.509 255.161C289.952 253.801 286.714 253.801 286.714 253.801L298.821 246.238C301.152 244.78 304.972 244.634 307.351 245.898L307.497 245.979Z" fill="#EBC28E"/>
<path d="M261.432 256.019C258.681 256.181 255.945 255.857 253.841 254.756L253.631 254.643C250.183 252.683 250.199 249.379 253.55 247.161L275.708 233.347C276.307 232.991 277.197 232.926 277.796 233.25L296.944 243.404C297.543 243.128 297.866 243.015 298.53 242.804C299.048 242.642 299.922 242.464 299.922 242.464L279.981 231.873C278.136 230.934 275.271 231.031 273.491 232.148L251.332 245.962C246.639 248.991 246.768 253.509 251.672 256.116C254.521 257.622 258.211 258.124 262.015 257.736C262.274 257.703 262.549 257.703 262.921 257.477C263.569 257.072 263.504 256.505 262.905 256.214C262.403 255.971 262.031 256.003 261.432 256.035V256.019Z" fill="#190602"/>
<path d="M296.604 245.072L279.22 255.906C278.071 256.635 278.087 257.736 279.285 258.367L281.826 259.711C283.04 260.311 285.031 260.246 286.196 259.517L287.491 258.707L285.306 257.541L284.011 258.351L281.519 257.023L282.231 256.586C284.416 255.226 288.123 255.323 290.34 256.505C292.315 257.558 293.075 259.987 289.935 261.72C287.135 263.258 283.348 262.869 281.616 261.946L259.976 250.464C259.004 249.946 257.434 250.011 256.479 250.61L254.748 251.695L256.949 252.861L258.244 252.051L279.447 263.307C283.688 265.639 288.932 264.878 292.137 262.886L309.698 252.003C313.227 249.8 313.162 246.464 309.553 244.553C305.943 242.642 300.149 242.869 296.62 245.072H296.604ZM307.497 245.979C309.747 247.258 309.731 249.396 307.448 250.821L295.212 258.4C295.034 257.185 294.127 256.019 292.509 255.161C289.952 253.801 286.714 253.801 286.714 253.801L298.821 246.238C301.152 244.78 304.972 244.634 307.351 245.898L307.497 245.979Z" fill="#190602"/>
<path d="M275.465 239.242L262.371 247.42L264.572 248.586L277.667 240.408C278.265 240.035 278.249 239.468 277.65 239.144C277.052 238.821 276.064 238.853 275.465 239.225V239.242Z" fill="#190602"/>
<path d="M285.889 244.78L272.795 252.958L274.996 254.124L288.09 245.946C288.689 245.574 288.673 245.007 288.074 244.683C287.475 244.359 286.488 244.392 285.889 244.764V244.78Z" fill="#190602"/>
<path d="M282.975 240.57L267.567 250.173L269.768 251.339L285.177 241.736C285.776 241.363 285.759 240.796 285.161 240.472C284.562 240.149 283.574 240.181 282.975 240.553V240.57Z" fill="#190602"/>
<path d="M175.47 280.764V294.449C175.502 302.676 180.892 310.87 191.655 317.137C213.328 329.737 248.694 329.737 270.496 317.137C281.47 310.805 286.957 302.465 286.925 294.125V280.44" fill="#FFEEDA"/>
<path d="M175.47 280.764V294.449C175.502 302.676 180.892 310.87 191.655 317.137C213.328 329.737 248.694 329.737 270.496 317.137C281.47 310.805 286.957 302.465 286.925 294.125V280.44" stroke="#101010" stroke-width="1.5" stroke-linejoin="round"/>
<path d="M175.47 268.262V281.947C175.502 290.173 180.892 298.368 191.655 304.635C213.328 317.234 248.694 317.234 270.496 304.635C281.47 298.303 286.957 289.963 286.925 281.623V267.938" fill="#FFEEDA"/>
<path d="M175.47 268.262V281.947C175.502 290.173 180.892 298.368 191.655 304.635C213.328 317.234 248.694 317.234 270.496 304.635C281.47 298.303 286.957 289.963 286.925 281.623V267.938" stroke="#101010" stroke-width="1.5" stroke-linejoin="round"/>
<path d="M175.47 255.744V269.428C175.502 277.655 180.892 285.849 191.655 292.117C213.328 304.716 248.694 304.716 270.496 292.117C281.47 285.785 286.957 277.444 286.925 269.104V255.42" fill="#FFEEDA"/>
<path d="M175.47 255.744V269.428C175.502 277.655 180.892 285.849 191.655 292.117C213.328 304.716 248.694 304.716 270.496 292.117C281.47 285.785 286.957 277.444 286.925 269.104V255.42" stroke="#101010" stroke-width="1.5" stroke-linejoin="round"/>
<path d="M175.47 243.242V256.926C175.502 265.153 180.892 273.347 191.655 279.615C213.328 292.214 248.694 292.214 270.496 279.615C281.47 273.282 286.957 264.942 286.925 256.602V242.918" fill="#FFEEDA"/>
<path d="M175.47 243.242V256.926C175.502 265.153 180.892 273.347 191.655 279.615C213.328 292.214 248.694 292.214 270.496 279.615C281.47 273.282 286.957 264.942 286.925 256.602V242.918" stroke="#101010" stroke-width="1.5" stroke-linejoin="round"/>
<path d="M175.47 230.723V244.408C175.502 252.634 180.892 260.829 191.655 267.096C213.328 279.695 248.694 279.695 270.496 267.096C281.47 260.764 286.957 252.424 286.925 244.084V230.399" fill="#FFEEDA"/>
<path d="M175.47 230.723V244.408C175.502 252.634 180.892 260.829 191.655 267.096C213.328 279.695 248.694 279.695 270.496 267.096C281.47 260.764 286.957 252.424 286.925 244.084V230.399" stroke="#101010" stroke-width="1.5" stroke-linejoin="round"/>
<path d="M270.739 209.508C292.412 222.108 292.299 242.61 270.48 255.209C248.662 267.809 213.296 267.809 191.639 255.209C169.967 242.61 170.08 222.108 191.898 209.508C213.717 196.909 249.083 196.909 270.739 209.508Z" fill="url(#paint2_linear_10967_320)" stroke="#101010" stroke-width="1.5" stroke-linejoin="round"/>
<path fill-rule="evenodd" clip-rule="evenodd" d="M200.558 212.958L227.604 205.363C229.465 204.844 231.44 204.763 233.334 205.136L260.364 210.48C263.326 211.063 265.98 212.731 267.809 215.144L278.136 228.748C278.994 229.881 279.042 231.452 278.233 232.634L268.23 247.339C266.596 249.752 264.151 251.501 261.351 252.294L234.305 259.89C232.444 260.408 230.469 260.489 228.575 260.116L201.545 254.772C198.583 254.189 195.929 252.521 194.1 250.108L187.706 241.671C184.501 237.444 184.34 231.63 187.334 227.241L193.679 217.913C195.313 215.5 197.758 213.751 200.558 212.958Z" fill="#FFEEDA"/>
<path d="M200.121 213.071L226.552 205.654C229.061 204.958 231.877 204.844 234.402 205.33L261.06 210.593C263.585 211.096 265.608 212.164 266.66 213.573L277.942 228.44C279.01 229.849 279.042 231.468 278.023 232.958L267.308 248.715C266.288 250.205 264.313 251.436 261.821 252.132L235.389 259.55C232.881 260.246 230.064 260.359 227.539 259.873L200.881 254.61C198.356 254.108 196.333 253.039 195.281 251.63L184 236.764C182.931 235.355 182.899 233.735 183.919 232.246L194.634 216.488C195.653 214.998 197.628 213.768 200.121 213.071ZM197.207 217.007L186.492 232.764C185.748 233.849 185.78 235.047 186.557 236.067L197.839 250.934C198.615 251.954 200.088 252.748 201.934 253.104L228.591 258.367C230.437 258.724 232.492 258.643 234.321 258.141L260.753 250.724C262.582 250.205 264.022 249.315 264.767 248.23L275.482 232.472C276.226 231.387 276.194 230.189 275.417 229.169L264.135 214.302C263.358 213.282 261.886 212.488 260.04 212.132L233.382 206.869C231.537 206.512 229.482 206.593 227.653 207.095L201.221 214.513C199.392 215.031 197.952 215.921 197.207 217.007Z" fill="#190602"/>
<path d="M253.242 226.318L231.57 214.804C229.725 213.865 226.86 213.962 225.079 215.079L202.921 228.893C198.227 231.922 198.357 236.44 203.261 239.047C204.912 239.922 206.757 240.408 208.667 240.651C210.253 240.845 212.114 240.812 213.717 240.651C214.154 240.602 213.976 240.651 215.19 240.424C216.873 240.116 218.394 239.549 218.394 239.549L231.359 246.432C231.99 246.74 232.654 247.015 233.35 247.209C235.665 247.873 238.319 247.841 240.682 247.145C241.67 246.853 242.657 246.464 243.515 245.93L261.271 234.934C264.799 232.731 264.734 229.395 261.125 227.484C258.956 226.335 256.026 225.962 253.259 226.318H253.242Z" fill="#FFEEDA"/>
<path d="M259.086 228.926C261.335 230.205 261.319 232.343 259.037 233.768L246.8 241.347C246.622 240.132 245.716 238.966 244.097 238.108C241.54 236.748 238.303 236.748 238.303 236.748L250.41 229.185C252.741 227.727 256.561 227.582 258.94 228.845L259.086 228.926Z" fill="#EBC28E"/>
<path d="M213.021 238.95C210.269 239.112 207.534 238.788 205.43 237.687L205.219 237.574C201.772 235.614 201.788 232.31 205.138 230.092L227.297 216.278C227.895 215.921 228.786 215.857 229.385 216.181L248.532 226.335C249.131 226.059 249.455 225.946 250.119 225.735C250.636 225.573 251.511 225.395 251.511 225.395L231.57 214.804C229.724 213.865 226.86 213.962 225.079 215.079L202.921 228.893C198.227 231.922 198.357 236.44 203.261 239.047C206.109 240.553 209.8 241.055 213.603 240.667C213.862 240.634 214.138 240.634 214.51 240.408C215.157 240.003 215.093 239.436 214.494 239.144C213.992 238.901 213.62 238.934 213.021 238.966V238.95Z" fill="#190602"/>
<path d="M248.192 228.003L230.809 238.837C229.66 239.565 229.676 240.667 230.874 241.298L233.415 242.642C234.629 243.242 236.62 243.177 237.785 242.448L239.08 241.638L236.895 240.472L235.6 241.282L233.107 239.954L233.819 239.517C236.005 238.157 239.711 238.254 241.929 239.436C243.903 240.489 244.664 242.918 241.524 244.651C238.724 246.189 234.936 245.8 233.204 244.877L211.564 233.395C210.593 232.877 209.023 232.942 208.068 233.541L206.336 234.626L208.537 235.792L209.832 234.982L231.036 246.238C235.276 248.57 240.52 247.808 243.725 245.817L261.287 234.934C264.815 232.731 264.75 229.395 261.141 227.484C257.532 225.573 251.737 225.8 248.209 228.003H248.192ZM259.085 228.926C261.335 230.205 261.319 232.343 259.037 233.768L246.8 241.347C246.622 240.132 245.716 238.966 244.097 238.108C241.54 236.748 238.303 236.748 238.303 236.748L250.41 229.185C252.741 227.727 256.56 227.582 258.94 228.845L259.085 228.926Z" fill="#190602"/>
<path d="M227.054 222.173L213.96 230.351L216.161 231.517L229.255 223.339C229.854 222.966 229.838 222.399 229.239 222.075C228.64 221.752 227.653 221.784 227.054 222.156V222.173Z" fill="#190602"/>
<path d="M237.461 227.711L224.367 235.889L226.568 237.055L239.662 228.877C240.261 228.505 240.245 227.938 239.646 227.614C239.047 227.29 238.06 227.322 237.461 227.695V227.711Z" fill="#190602"/>
<path d="M234.564 223.501L219.155 233.104L221.356 234.27L236.765 224.667C237.364 224.294 237.348 223.727 236.749 223.403C236.15 223.079 235.163 223.112 234.564 223.484V223.501Z" fill="#190602"/>
</g>
<defs>
<linearGradient id="paint0_linear_10967_320" x1="153.635" y1="357.494" x2="153.635" y2="86.333" gradientUnits="userSpaceOnUse">
<stop stop-color="#DCFFFF"/>
<stop offset="1" stop-color="white" stop-opacity="0"/>
</linearGradient>
<linearGradient id="paint1_linear_10967_320" x1="229.287" y1="231.015" x2="329.636" y2="267.903" gradientUnits="userSpaceOnUse">
<stop stop-color="#FFDCB1"/>
<stop offset="1" stop-color="#EBC28E"/>
</linearGradient>
<linearGradient id="paint2_linear_10967_320" x1="181.021" y1="213.897" x2="281.37" y2="250.785" gradientUnits="userSpaceOnUse">
<stop stop-color="#FFDCB1"/>
<stop offset="1" stop-color="#EBC28E"/>
</linearGradient>
</defs>
</svg>
