<svg width="415" height="369" viewBox="0 0 415 369" fill="none" xmlns="http://www.w3.org/2000/svg">
<path d="M146.73 366.966L413.186 205.177V190.54L146.729 352.752L146.73 366.966Z" fill="#E6CAAA" stroke="#101010" stroke-width="1.5" stroke-linejoin="round"/>
<path d="M1.34766 269.533L146.808 352.763V367.66L1.34766 284.17V269.533Z" fill="#E6CAAA" stroke="#101010" stroke-width="1.5" stroke-linejoin="round"/>
<path d="M413.498 189.928L146.556 353.078L1.38965 269.597L276.363 111.856L413.498 189.928Z" fill="#FFEEDA" stroke="#101010" stroke-width="1.5" stroke-linejoin="round"/>
<path d="M88.8004 293.366C87.7983 293.95 87.3994 294.64 87.3994 295.233C87.3994 295.827 87.7886 296.517 88.8004 297.101C89.8026 297.684 91.1452 297.986 92.5171 297.986C93.8889 297.986 95.2316 297.684 96.2337 297.101C97.2358 296.517 97.6347 295.827 97.6347 295.233C97.6347 294.64 97.2455 293.95 96.2337 293.366C95.2316 292.792 93.8889 292.481 92.5171 292.481C91.1452 292.481 89.8026 292.783 88.8004 293.366Z" fill="#C69960" stroke="#101010" stroke-width="1.5" stroke-linejoin="round"/>
<path d="M242.453 150.212C241.451 150.796 241.052 151.486 241.052 152.08C241.052 152.673 241.441 153.363 242.453 153.947C243.455 154.53 244.798 154.832 246.169 154.832C247.541 154.832 248.884 154.53 249.886 153.947C250.888 153.363 251.287 152.673 251.287 152.08C251.287 151.486 250.898 150.796 249.886 150.212C248.884 149.629 247.541 149.327 246.169 149.327C244.798 149.327 243.455 149.629 242.453 150.212Z" fill="#C69960" stroke="#101010" stroke-width="1.5" stroke-linejoin="round"/>
<path d="M336.269 203.924L363.019 219.482V235.524" stroke="#101010" stroke-width="1.5" stroke-linecap="round" stroke-linejoin="round"/>
<path d="M242.411 149.327L228.987 139.436" stroke="#101010" stroke-width="1.5" stroke-linecap="round" stroke-linejoin="round"/>
<path d="M90.7491 231.729L80.8089 224.733" stroke="#101010" stroke-width="1.5" stroke-linecap="round" stroke-linejoin="round"/>
<path d="M88.917 297.247L70.188 308.198V323.42" stroke="#101010" stroke-width="1.5" stroke-linecap="round" stroke-linejoin="round"/>
<path d="M340.907 149.327L315.434 163.262" stroke="#101010" stroke-width="1.5" stroke-linecap="round" stroke-linejoin="round"/>
<path d="M234.63 210.036L198.006 231.729" stroke="#101010" stroke-width="1.5" stroke-linecap="round" stroke-linejoin="round"/>
<path d="M199.485 294.255L222.108 307.282V321.386" stroke="#101010" stroke-width="1.5" stroke-linecap="round" stroke-linejoin="round"/>
<path d="M199.552 232.031C198.55 231.447 197.208 231.146 195.836 231.146C194.464 231.146 193.121 231.447 192.119 232.031C191.117 232.614 190.718 233.305 190.718 233.898C190.718 234.491 191.107 235.182 192.119 235.765C193.121 236.349 194.464 236.65 195.836 236.65C197.208 236.65 198.55 236.349 199.552 235.765C200.555 235.182 200.954 234.491 200.954 233.898C200.954 233.305 200.564 232.614 199.552 232.031Z" fill="#C69960" stroke="#101010" stroke-width="1.5" stroke-linejoin="round"/>
<path d="M108.432 236.948C107.43 236.364 106.088 236.063 104.716 236.063C103.344 236.063 102.001 236.364 100.999 236.948C99.9971 237.531 99.5981 238.222 99.5981 238.815C99.5981 239.408 99.9873 240.099 100.999 240.682C102.001 241.266 103.344 241.567 104.716 241.567C106.088 241.567 107.43 241.266 108.432 240.682C109.434 240.099 109.833 239.408 109.833 238.815C109.833 238.222 109.444 237.531 108.432 236.948Z" fill="#C69960" stroke="#101010" stroke-width="1.5" stroke-linejoin="round"/>
<path d="M216.059 285.945L213.413 287.482C212.868 287.803 211.973 287.803 211.428 287.482L120.147 234.799C119.602 234.478 119.155 233.709 119.155 233.077V173.391C119.155 172.759 119.602 171.981 120.147 171.67L122.794 170.133C123.338 169.812 124.233 169.812 124.778 170.133L129.731 173.022C130.275 173.343 130.888 174.082 131.102 174.685L139.684 199.446C139.888 200.049 140.501 200.788 141.056 201.109L146.066 203.998C146.611 204.319 147.321 205.019 147.633 205.563L150.707 210.883C151.028 211.438 151.408 211.379 151.554 210.767L153.811 201.644C153.966 201.031 154.531 200.273 155.076 199.952L157.722 198.415C158.267 198.094 159.162 198.094 159.707 198.415L164.708 201.313C165.252 201.634 165.827 202.383 165.982 203.006L170.107 219.627C170.263 220.239 170.827 220.998 171.382 221.319L176.393 224.207C176.937 224.528 177.57 225.258 177.794 225.851L186.19 247.811C186.414 248.405 187.046 249.144 187.591 249.465L192.728 252.48C193.273 252.801 193.974 253.511 194.295 254.055L200.142 264.189C200.463 264.734 201.164 265.444 201.708 265.755L206.719 268.644C207.264 268.965 207.974 269.665 208.285 270.209L216.468 284.38C216.789 284.924 216.594 285.634 216.049 285.955L216.059 285.945Z" fill="#101010" stroke="#101010" stroke-width="1.5" stroke-linecap="round" stroke-linejoin="round"/>
<path d="M170.447 228.808L163.442 224.772L170.632 220.628C170.856 220.911 171.119 221.163 171.372 221.309L176.382 224.198C176.655 224.353 176.947 224.616 177.2 224.908L170.447 228.808Z" fill="#FFEEDA" stroke="#101010" stroke-width="1.5" stroke-linecap="round" stroke-linejoin="round"/>
<path d="M193.594 253.16L186.783 257.099L179.778 253.044L186.948 248.91C187.162 249.134 187.386 249.319 187.6 249.445L192.737 252.46C193.01 252.616 193.321 252.878 193.603 253.16H193.594Z" fill="#FFEEDA" stroke="#101010" stroke-width="1.5" stroke-linecap="round" stroke-linejoin="round"/>
<path d="M207.585 269.315L200.784 273.244L193.779 269.208L200.891 265.103C201.163 265.366 201.446 265.599 201.699 265.745L206.709 268.634C206.982 268.789 207.293 269.042 207.575 269.324L207.585 269.315Z" fill="#FFEEDA" stroke="#101010" stroke-width="1.5" stroke-linecap="round" stroke-linejoin="round"/>
<path d="M146.912 204.678L140.111 208.607L133.106 204.571L140.267 200.438C140.5 200.71 140.773 200.963 141.035 201.109L146.046 203.998C146.318 204.153 146.63 204.406 146.912 204.688V204.678Z" fill="#FFEEDA" stroke="#101010" stroke-width="1.5" stroke-linecap="round" stroke-linejoin="round"/>
<path d="M158.782 205.914L153.499 202.869L153.801 201.644C153.956 201.031 154.521 200.273 155.065 199.952L157.712 198.415C158.257 198.094 159.152 198.094 159.697 198.415L164.698 201.313C164.97 201.469 165.252 201.741 165.486 202.053L158.772 205.923L158.782 205.914Z" fill="#FFEEDA" stroke="#101010" stroke-width="1.5" stroke-linecap="round" stroke-linejoin="round"/>
<path d="M119.145 173.391C119.145 172.759 119.592 171.981 120.137 171.67L122.783 170.133C123.328 169.812 124.223 169.812 124.768 170.133L129.72 173.012C129.993 173.167 130.285 173.44 130.528 173.732L123.776 177.631L119.145 174.957V173.391Z" fill="#FFEEDA" stroke="#101010" stroke-width="1.5" stroke-linecap="round" stroke-linejoin="round"/>
<path d="M211.418 287.482L120.137 234.798C119.592 234.477 119.145 233.709 119.145 233.077V173.391C119.145 172.759 119.592 172.506 120.137 172.817L125.089 175.696C125.634 176.017 126.247 176.756 126.461 177.359L135.042 202.12C135.247 202.723 135.869 203.463 136.414 203.784L141.425 206.672C141.97 206.993 142.68 207.693 142.991 208.238L148.839 218.372C149.16 218.917 149.539 218.868 149.685 218.255L153.801 201.634C153.956 201.021 154.52 200.778 155.075 201.099L160.076 203.998C160.621 204.318 161.195 205.077 161.35 205.69L165.476 222.311C165.631 222.923 166.196 223.682 166.75 224.003L171.761 226.892C172.306 227.213 172.938 227.942 173.162 228.535L181.558 250.496C181.782 251.089 182.415 251.828 182.959 252.149L188.096 255.164C188.641 255.485 189.342 256.195 189.663 256.739L195.52 266.873C195.841 267.418 196.542 268.128 197.086 268.439L202.097 271.328C202.642 271.649 203.352 272.349 203.663 272.894L211.846 287.064C212.167 287.608 211.972 287.803 211.428 287.482H211.418Z" fill="#E6CAAA" stroke="#101010" stroke-width="1.5" stroke-linecap="round" stroke-linejoin="round"/>
<path d="M202.079 294.018L199.433 295.554C198.888 295.875 197.993 295.875 197.448 295.554L106.167 242.871C105.613 242.55 105.175 241.781 105.175 241.149V189.545C105.175 188.913 105.622 188.135 106.167 187.824L108.814 186.287C109.358 185.966 110.253 185.966 110.798 186.287L115.751 189.166C116.295 189.487 116.947 190.216 117.21 190.8L125.616 209.881C125.869 210.465 126.521 211.194 127.076 211.506L132.086 214.394C132.631 214.715 133.341 215.415 133.653 215.97L137.243 222.233C137.554 222.787 137.992 222.748 138.206 222.145L139.792 217.759C140.006 217.166 140.629 216.417 141.173 216.106L143.82 214.569C144.365 214.248 145.26 214.248 145.805 214.569L150.805 217.467C151.35 217.788 151.963 218.527 152.177 219.13L158.424 237.21C158.628 237.813 159.299 238.416 159.912 238.572L164.68 239.739C165.292 239.885 165.983 240.488 166.227 241.081L172.2 255.903C172.434 256.486 173.076 257.226 173.621 257.547L178.758 260.561C179.303 260.882 180.003 261.592 180.324 262.137L186.172 272.271C186.493 272.816 187.193 273.526 187.738 273.837L192.749 276.725C193.294 277.046 194.004 277.747 194.315 278.291L202.498 292.461C202.819 293.006 202.624 293.716 202.079 294.037V294.018Z" fill="#101010" stroke="#101010" stroke-width="1.5" stroke-linecap="round" stroke-linejoin="round"/>
<path d="M165.165 239.933L156.447 244.962L151.796 242.277L159.045 238.076C159.307 238.299 159.609 238.475 159.901 238.552L164.668 239.719C164.834 239.758 164.999 239.836 165.165 239.933Z" fill="white" stroke="#101010" stroke-width="1.5" stroke-linejoin="round"/>
<path d="M179.594 261.232L172.783 265.161L165.778 261.125L172.948 256.992C173.162 257.216 173.396 257.41 173.61 257.537L178.747 260.552C179.02 260.707 179.321 260.96 179.603 261.242L179.594 261.232Z" fill="white" stroke="#101010" stroke-width="1.5" stroke-linejoin="round"/>
<path d="M193.594 277.386L186.783 281.316L179.788 277.28L186.92 273.166C187.192 273.428 187.484 273.662 187.737 273.817L192.748 276.706C193.02 276.861 193.322 277.114 193.604 277.386H193.594Z" fill="white" stroke="#101010" stroke-width="1.5" stroke-linejoin="round"/>
<path d="M144.782 222.067L139.353 218.926L139.771 217.759C139.985 217.166 140.608 216.417 141.153 216.106L143.799 214.569C144.344 214.248 145.239 214.248 145.784 214.569L150.785 217.467C151.048 217.623 151.33 217.876 151.563 218.158L144.772 222.077L144.782 222.067Z" fill="white" stroke="#101010" stroke-width="1.5" stroke-linejoin="round"/>
<path d="M105.164 189.555C105.164 188.923 105.611 188.145 106.156 187.834L108.802 186.297C109.347 185.976 110.242 185.976 110.787 186.297L115.739 189.176C116.012 189.332 116.304 189.594 116.566 189.876L109.785 193.786L105.164 191.121V189.546V189.555Z" fill="white" stroke="#101010" stroke-width="1.5" stroke-linejoin="round"/>
<path d="M126.111 219.373L119.077 215.318L126.481 211.068C126.666 211.243 126.86 211.398 127.045 211.505L132.056 214.394C132.396 214.588 132.805 214.948 133.136 215.308L126.101 219.364L126.111 219.373Z" fill="white" stroke="#101010" stroke-width="1.5" stroke-linejoin="round"/>
<path d="M197.437 295.564L106.156 242.88C105.601 242.559 105.164 241.791 105.164 241.159V189.555C105.164 188.923 105.611 188.67 106.156 188.981L111.108 191.86C111.653 192.181 112.305 192.91 112.568 193.494L120.974 212.575C121.227 213.159 121.879 213.878 122.433 214.199L127.444 217.088C127.989 217.409 128.699 218.109 129.01 218.654L134.858 228.788C135.179 229.332 135.607 229.303 135.821 228.7L139.771 217.759C139.985 217.166 140.608 216.932 141.152 217.253L146.153 220.151C146.698 220.472 147.311 221.212 147.525 221.815L153.771 239.894C153.976 240.497 154.647 241.1 155.26 241.256L160.027 242.423C160.64 242.579 161.341 243.172 161.574 243.765L167.548 258.587C167.782 259.171 168.424 259.91 168.969 260.231L174.106 263.246C174.651 263.567 175.351 264.277 175.672 264.821L181.52 274.955C181.841 275.5 182.541 276.21 183.086 276.521L188.097 279.41C188.641 279.73 189.352 280.431 189.663 280.975L197.845 295.146C198.167 295.7 197.972 295.885 197.427 295.564H197.437Z" fill="#E8E8E8" stroke="#101010" stroke-width="1.5" stroke-linecap="round" stroke-linejoin="round"/>
<path d="M188.087 302.099L185.44 303.636C184.896 303.957 184 303.957 183.456 303.636L92.1748 250.952C91.6299 250.632 91.1824 249.863 91.1824 249.231L91.1143 203.005C91.1143 202.373 91.5618 201.595 92.1067 201.284L94.7822 199.738C95.3271 199.417 96.2222 199.417 96.7768 199.738L101.787 202.626C102.342 202.947 102.984 203.667 103.247 204.25L107.031 212.916C107.284 213.499 107.936 214.229 108.481 214.55L113.443 217.438C113.988 217.759 114.698 218.459 115.01 219.014L119.728 227.164C120.049 227.708 120.614 227.747 120.983 227.232L123.143 224.324C123.523 223.818 124.272 223.147 124.827 222.826L127.473 221.289C128.018 220.969 128.913 220.969 129.458 221.289L134.459 224.188C135.003 224.509 135.646 225.238 135.879 225.831L141.999 241.198C142.232 241.791 142.865 242.52 143.419 242.841L148.43 245.73C148.975 246.051 149.578 246.8 149.763 247.403L156.087 268.099C156.272 268.702 156.924 269.324 157.537 269.48L171.644 273.059C172.257 273.214 172.928 273.827 173.133 274.43L177.044 285.624C177.248 286.227 177.871 286.966 178.416 287.287L183.426 290.176C183.971 290.497 184.623 291.226 184.876 291.8L188.632 300.465C188.885 301.049 188.641 301.778 188.096 302.099H188.087Z" fill="#101010" stroke="#101010" stroke-width="1.5" stroke-linecap="round" stroke-linejoin="round"/>
<path d="M142.447 250.389L135.451 246.314L142.622 242.17C142.865 242.453 143.147 242.696 143.41 242.842L148.42 245.73C148.693 245.886 148.975 246.148 149.218 246.45L142.447 250.379V250.389Z" fill="#D2FCF6" stroke="#101010" stroke-width="1.5" stroke-linecap="round" stroke-linejoin="round"/>
<path d="M172.393 273.467L163.452 278.632L149.452 273.244L156.739 269.042C156.982 269.256 157.264 269.422 157.537 269.49L171.644 273.069C171.897 273.137 172.17 273.283 172.403 273.467H172.393Z" fill="#D2FCF6" stroke="#101010" stroke-width="1.5" stroke-linecap="round" stroke-linejoin="round"/>
<path d="M177.452 294.786L170.447 290.75L177.637 286.607C177.881 286.889 178.153 287.141 178.416 287.287L183.426 290.176C183.699 290.331 183.991 290.584 184.244 290.866L177.452 294.786Z" fill="#D2FCF6" stroke="#101010" stroke-width="1.5" stroke-linecap="round" stroke-linejoin="round"/>
<path d="M91.1143 203.015C91.1143 202.383 91.5618 201.615 92.1067 201.294L94.7822 199.747C95.3271 199.426 96.2222 199.426 96.7768 199.747L101.787 202.636C102.05 202.792 102.342 203.035 102.595 203.317L95.7843 207.246L91.124 204.552V203.005L91.1143 203.015Z" fill="#D2FCF6" stroke="#101010" stroke-width="1.5" stroke-linecap="round" stroke-linejoin="round"/>
<path d="M128.446 228.807L122.414 225.326L123.143 224.343C123.523 223.838 124.272 223.167 124.826 222.846L127.473 221.309C128.018 220.988 128.913 220.988 129.458 221.309L134.459 224.207C134.721 224.363 135.003 224.606 135.256 224.888L128.456 228.817L128.446 228.807Z" fill="#D2FCF6" stroke="#101010" stroke-width="1.5" stroke-linecap="round" stroke-linejoin="round"/>
<path d="M114.28 218.129L107.45 222.077L100.455 218.041L107.664 213.879C107.927 214.17 108.219 214.423 108.481 214.579L113.443 217.467C113.706 217.623 114.008 217.866 114.29 218.138L114.28 218.129Z" fill="#D2FCF6" stroke="#101010" stroke-width="1.5" stroke-linecap="round" stroke-linejoin="round"/>
<path d="M183.456 303.646L92.1067 250.923C91.5618 250.602 91.1143 249.834 91.1143 249.202V203.015C91.1143 202.383 91.5618 202.12 92.1067 202.441L97.1173 205.33C97.6718 205.651 98.3237 206.37 98.5767 206.954L102.391 215.629C102.644 216.213 103.295 216.942 103.85 217.253L108.812 220.142C109.357 220.463 110.067 221.163 110.378 221.717L116.255 231.851C116.576 232.396 117.14 232.435 117.52 231.92L123.153 224.334C123.532 223.828 124.282 223.672 124.836 223.983L129.837 226.882C130.392 227.203 131.024 227.932 131.258 228.525L137.377 243.892C137.611 244.485 138.243 245.214 138.798 245.535L143.808 248.424C144.353 248.745 144.957 249.494 145.141 250.097L151.465 270.793C151.65 271.396 152.302 272.018 152.915 272.174L167.023 275.753C167.636 275.908 168.307 276.521 168.511 277.124L172.423 288.318C172.637 288.921 173.249 289.66 173.794 289.981L178.805 292.87C179.35 293.191 180.002 293.92 180.255 294.494L184.01 303.16C184.263 303.743 184.02 303.957 183.475 303.636L183.456 303.646Z" fill="#A3D1C8" stroke="#101010" stroke-width="1.5" stroke-linecap="round" stroke-linejoin="round"/>
<path d="M278.549 235.524L198.001 189.036L278.549 142.548L359.097 189.036L278.549 235.524Z" fill="#FFEEDA" stroke="#101010" stroke-width="1.5" stroke-linecap="round" stroke-linejoin="round"/>
<path d="M293.58 196.821V200.2C293.587 202.229 294.922 204.258 297.584 205.806C302.939 208.917 311.683 208.917 317.077 205.806C319.794 204.242 321.145 202.182 321.137 200.121V196.742" fill="#101010"/>
<path d="M293.58 196.821V200.2C293.587 202.229 294.922 204.258 297.584 205.806C302.939 208.917 311.683 208.917 317.077 205.806C319.794 204.242 321.145 202.182 321.137 200.121V196.742" stroke="#101010" stroke-width="1.5" stroke-linecap="round" stroke-linejoin="round"/>
<path d="M293.58 193.734V197.113C293.587 199.142 294.922 201.171 297.584 202.719C302.939 205.829 311.683 205.829 317.077 202.719C319.794 201.155 321.145 199.095 321.137 197.034V193.655" fill="#101010"/>
<path d="M293.58 193.734V197.113C293.587 199.142 294.922 201.171 297.584 202.719C302.939 205.829 311.683 205.829 317.077 202.719C319.794 201.155 321.145 199.095 321.137 197.034V193.655" stroke="#101010" stroke-width="1.5" stroke-linecap="round" stroke-linejoin="round"/>
<path d="M293.58 190.647V194.026C293.587 196.055 294.922 198.084 297.584 199.632C302.939 202.742 311.683 202.742 317.077 199.632C319.794 198.068 321.145 196.008 321.137 193.947V190.568" fill="#101010"/>
<path d="M293.58 190.647V194.026C293.587 196.055 294.922 198.084 297.584 199.632C302.939 202.742 311.683 202.742 317.077 199.632C319.794 198.068 321.145 196.008 321.137 193.947V190.568" stroke="#101010" stroke-width="1.5" stroke-linecap="round" stroke-linejoin="round"/>
<path d="M293.58 187.552V190.931C293.587 192.96 294.922 194.989 297.584 196.537C302.939 199.647 311.683 199.647 317.077 196.537C319.794 194.973 321.145 192.913 321.137 190.852V187.473" fill="#101010"/>
<path d="M293.58 187.552V190.931C293.587 192.96 294.922 194.989 297.584 196.537C302.939 199.647 311.683 199.647 317.077 196.537C319.794 194.973 321.145 192.913 321.137 190.852V187.473" stroke="#101010" stroke-width="1.5" stroke-linecap="round" stroke-linejoin="round"/>
<path d="M293.58 184.465V187.844C293.587 189.873 294.922 191.902 297.584 193.449C302.939 196.56 311.683 196.56 317.077 193.449C319.794 191.886 321.145 189.826 321.137 187.765V184.386" fill="#101010"/>
<path d="M293.58 184.465V187.844C293.587 189.873 294.922 191.902 297.584 193.449C302.939 196.56 311.683 196.56 317.077 193.449C319.794 191.886 321.145 189.826 321.137 187.765V184.386" stroke="#101010" stroke-width="1.5" stroke-linecap="round" stroke-linejoin="round"/>
<path d="M293.58 181.37V184.749C293.587 186.778 294.922 188.807 297.584 190.355C302.939 193.465 311.683 193.465 317.077 190.355C319.794 188.791 321.145 186.731 321.137 184.67V181.291" fill="#101010"/>
<path d="M293.58 181.37V184.749C293.587 186.778 294.922 188.807 297.584 190.355C302.939 193.465 311.683 193.465 317.077 190.355C319.794 188.791 321.145 186.731 321.137 184.67V181.291" stroke="#101010" stroke-width="1.5" stroke-linecap="round" stroke-linejoin="round"/>
<path d="M293.58 178.283V181.662C293.587 183.691 294.922 185.72 297.584 187.267C302.939 190.378 311.683 190.378 317.077 187.267C319.794 185.704 321.145 183.643 321.137 181.583V178.204" fill="#101010"/>
<path d="M293.58 178.283V181.662C293.587 183.691 294.922 185.72 297.584 187.267C302.939 190.378 311.683 190.378 317.077 187.267C319.794 185.704 321.145 183.643 321.137 181.583V178.204" stroke="#101010" stroke-width="1.5" stroke-linecap="round" stroke-linejoin="round"/>
<path d="M317.133 173.04C322.488 176.151 322.465 181.212 317.07 184.33C311.676 187.449 302.932 187.441 297.577 184.33C292.222 181.22 292.245 176.159 297.64 173.04C303.035 169.929 311.778 169.929 317.133 173.04Z" fill="white" stroke="#101010" stroke-width="1.5" stroke-linejoin="round"/>
<path d="M255.525 173.064V176.443C255.533 178.472 256.868 180.501 259.53 182.049C264.885 185.159 273.629 185.159 279.023 182.049C281.74 180.485 283.091 178.425 283.083 176.364V172.985" fill="#101010"/>
<path d="M255.525 173.064V176.443C255.533 178.472 256.868 180.501 259.53 182.049C264.885 185.159 273.629 185.159 279.023 182.049C281.74 180.485 283.091 178.425 283.083 176.364V172.985" stroke="#101010" stroke-width="1.5" stroke-linecap="round" stroke-linejoin="round"/>
<path d="M255.525 169.977V173.356C255.533 175.385 256.868 177.414 259.53 178.962C264.885 182.072 273.629 182.072 279.023 178.962C281.74 177.398 283.091 175.338 283.083 173.277V169.898" fill="#101010"/>
<path d="M255.525 169.977V173.356C255.533 175.385 256.868 177.414 259.53 178.962C264.885 182.072 273.629 182.072 279.023 178.962C281.74 177.398 283.091 175.338 283.083 173.277V169.898" stroke="#101010" stroke-width="1.5" stroke-linecap="round" stroke-linejoin="round"/>
<path d="M255.525 166.89V170.269C255.533 172.298 256.868 174.327 259.53 175.874C264.885 178.985 273.629 178.985 279.023 175.874C281.74 174.311 283.091 172.25 283.083 170.19V166.811" fill="#101010"/>
<path d="M255.525 166.89V170.269C255.533 172.298 256.868 174.327 259.53 175.874C264.885 178.985 273.629 178.985 279.023 175.874C281.74 174.311 283.091 172.25 283.083 170.19V166.811" stroke="#101010" stroke-width="1.5" stroke-linecap="round" stroke-linejoin="round"/>
<path d="M279.078 161.647C284.433 164.758 284.41 169.819 279.015 172.937C273.62 176.056 264.877 176.048 259.522 172.937C254.166 169.827 254.19 164.766 259.585 161.647C264.979 158.528 273.723 158.536 279.078 161.647Z" fill="white" stroke="#101010" stroke-width="1.5" stroke-linejoin="round"/>
<path d="M220.851 185.602V188.981C220.859 191.01 222.194 193.039 224.856 194.586C230.211 197.697 238.954 197.697 244.349 194.586C247.066 193.023 248.417 190.962 248.409 188.902V185.523" fill="#101010"/>
<path d="M220.851 185.602V188.981C220.859 191.01 222.194 193.039 224.856 194.586C230.211 197.697 238.954 197.697 244.349 194.586C247.066 193.023 248.417 190.962 248.409 188.902V185.523" stroke="#101010" stroke-width="1.5" stroke-linecap="round" stroke-linejoin="round"/>
<path d="M244.412 180.359C249.767 183.47 249.743 188.531 244.349 191.649C238.954 194.76 230.211 194.76 224.856 191.649C219.5 188.539 219.524 183.478 224.919 180.359C230.313 177.248 239.057 177.248 244.412 180.359Z" fill="white" stroke="#101010" stroke-width="1.5" stroke-linejoin="round"/>
<path d="M346.396 189.076C347.115 189.478 348.26 189.462 348.955 189.052C349.65 188.633 349.635 187.97 348.916 187.568C348.197 187.165 347.052 187.181 346.357 187.591C345.662 188.01 345.678 188.673 346.396 189.076Z" fill="#101010" stroke="#101010" stroke-width="1.5" stroke-linejoin="round"/>
<path d="M345.78 144.854L345.765 139.501C345.765 136.777 345.749 134.084 345.741 131.463L345.717 121.799C345.717 121.539 345.883 121.27 346.231 121.065C346.317 121.01 346.412 120.97 346.515 120.931C346.586 120.899 346.657 120.875 346.736 120.86C346.76 120.86 346.776 120.852 346.799 120.844C346.815 120.844 346.839 120.836 346.855 120.828C346.878 120.828 346.902 120.812 346.926 120.812C346.981 120.797 347.044 120.789 347.107 120.781C347.123 120.781 347.131 120.781 347.147 120.781C347.163 120.781 347.171 120.781 347.186 120.781C347.218 120.781 347.25 120.773 347.281 120.773C347.344 120.773 347.4 120.765 347.463 120.765C347.471 120.765 347.487 120.765 347.494 120.765C347.51 120.765 347.518 120.765 347.534 120.765C347.573 120.765 347.613 120.765 347.644 120.765C347.716 120.765 347.779 120.765 347.85 120.781C347.85 120.781 347.858 120.781 347.866 120.781C347.937 120.781 348.008 120.797 348.079 120.812C348.095 120.812 348.11 120.82 348.134 120.828C348.197 120.844 348.253 120.86 348.316 120.876C348.355 120.883 348.387 120.891 348.426 120.899C348.442 120.899 348.45 120.907 348.458 120.915C348.576 120.954 348.695 121.002 348.798 121.065C348.813 121.073 348.829 121.081 348.837 121.089C348.869 121.112 348.9 121.136 348.932 121.16C348.971 121.191 349.019 121.215 349.05 121.247C349.05 121.247 349.066 121.254 349.066 121.262C349.106 121.302 349.145 121.341 349.177 121.381C349.177 121.381 349.185 121.397 349.193 121.404C349.193 121.412 349.208 121.42 349.208 121.428C349.224 121.444 349.24 121.468 349.248 121.483C349.264 121.515 349.279 121.554 349.295 121.586C349.295 121.586 349.295 121.594 349.295 121.602C349.295 121.602 349.295 121.61 349.295 121.618C349.295 121.641 349.311 121.665 349.319 121.689C349.319 121.72 349.327 121.76 349.335 121.791V121.807L349.469 188.334C349.469 188.594 349.303 188.862 348.956 189.068C348.869 189.123 348.774 189.163 348.671 189.202C348.6 189.234 348.529 189.257 348.45 189.273C348.426 189.273 348.411 189.281 348.387 189.289C348.371 189.289 348.347 189.297 348.332 189.305C348.308 189.305 348.284 189.32 348.261 189.32C348.205 189.336 348.142 189.344 348.079 189.352C348.063 189.352 348.055 189.352 348.039 189.352C348.024 189.352 348.016 189.352 348 189.352C347.968 189.352 347.937 189.36 347.905 189.36C347.85 189.36 347.787 189.368 347.723 189.368C347.716 189.368 347.7 189.368 347.692 189.368C347.676 189.368 347.668 189.368 347.652 189.368C347.613 189.368 347.573 189.368 347.542 189.368C347.471 189.368 347.407 189.368 347.336 189.352C347.336 189.352 347.328 189.352 347.321 189.352C347.25 189.352 347.178 189.336 347.107 189.32C347.092 189.32 347.076 189.313 347.052 189.305C346.989 189.289 346.934 189.273 346.87 189.257C346.831 189.249 346.799 189.241 346.76 189.234C346.744 189.234 346.736 189.226 346.728 189.218C346.61 189.178 346.491 189.131 346.389 189.068C346.373 189.06 346.357 189.052 346.349 189.044C346.318 189.02 346.286 188.997 346.254 188.973C346.215 188.941 346.167 188.918 346.136 188.886C346.136 188.886 346.12 188.878 346.12 188.87C346.081 188.831 346.041 188.791 346.01 188.752C346.01 188.752 346.002 188.736 345.994 188.728C345.994 188.72 345.978 188.712 345.978 188.705C345.962 188.689 345.946 188.665 345.938 188.649C345.923 188.618 345.907 188.578 345.891 188.547C345.891 188.547 345.891 188.539 345.891 188.531C345.891 188.531 345.891 188.523 345.891 188.515C345.891 188.491 345.875 188.468 345.867 188.444C345.867 188.412 345.859 188.373 345.859 188.341C345.859 188.341 345.859 188.334 345.859 188.326C345.852 185.302 345.844 161.631 345.836 158.26L345.812 150.191C345.812 148.422 345.804 146.638 345.796 144.854H345.78Z" fill="white" stroke="#101010" stroke-width="1.5" stroke-linecap="round" stroke-linejoin="round"/>
<path d="M346.23 121.065C346.925 120.646 348.071 120.639 348.789 121.041C349.508 121.444 349.524 122.107 348.829 122.526C348.134 122.944 346.989 122.952 346.27 122.549C345.551 122.147 345.535 121.483 346.23 121.065ZM347.407 121.862C347.478 121.902 347.581 121.902 347.652 121.862C347.715 121.823 347.715 121.76 347.652 121.72C347.581 121.681 347.478 121.681 347.407 121.72C347.344 121.76 347.344 121.823 347.407 121.862Z" fill="#101010" stroke="#101010" stroke-width="1.5" stroke-linejoin="round"/>
<path d="M207.527 189.076C208.245 189.478 209.391 189.462 210.086 189.052C210.781 188.633 210.765 187.97 210.046 187.568C209.328 187.165 208.182 187.181 207.487 187.591C206.792 188.01 206.808 188.673 207.527 189.076Z" fill="#101010" stroke="#101010" stroke-width="1.5" stroke-linejoin="round"/>
<path d="M206.91 144.854L206.895 139.501C206.895 136.777 206.879 134.084 206.871 131.463L206.847 121.799C206.847 121.539 207.013 121.27 207.361 121.065C207.447 121.01 207.542 120.97 207.645 120.931C207.716 120.899 207.787 120.875 207.866 120.86C207.89 120.86 207.906 120.852 207.929 120.844C207.945 120.844 207.969 120.836 207.985 120.828C208.008 120.828 208.032 120.812 208.056 120.812C208.111 120.797 208.174 120.789 208.237 120.781C208.253 120.781 208.261 120.781 208.277 120.781C208.293 120.781 208.3 120.781 208.316 120.781C208.348 120.781 208.379 120.773 208.411 120.773C208.474 120.773 208.53 120.765 208.593 120.765C208.601 120.765 208.616 120.765 208.624 120.765C208.64 120.765 208.648 120.765 208.664 120.765C208.703 120.765 208.743 120.765 208.774 120.765C208.846 120.765 208.909 120.765 208.98 120.781C208.98 120.781 208.988 120.781 208.996 120.781C209.067 120.781 209.138 120.797 209.209 120.812C209.225 120.812 209.24 120.82 209.264 120.828C209.327 120.844 209.383 120.86 209.446 120.876C209.485 120.883 209.517 120.891 209.556 120.899C209.572 120.899 209.58 120.907 209.588 120.915C209.706 120.954 209.825 121.002 209.928 121.065C209.943 121.073 209.959 121.081 209.967 121.089C209.999 121.112 210.03 121.136 210.062 121.16C210.101 121.191 210.149 121.215 210.18 121.247C210.18 121.247 210.196 121.254 210.196 121.262C210.236 121.302 210.275 121.341 210.307 121.381C210.307 121.381 210.315 121.397 210.322 121.404C210.322 121.412 210.338 121.42 210.338 121.428C210.354 121.444 210.37 121.468 210.378 121.483C210.394 121.515 210.409 121.554 210.425 121.586C210.425 121.586 210.425 121.594 210.425 121.602C210.425 121.602 210.425 121.61 210.425 121.618C210.425 121.641 210.441 121.665 210.449 121.689C210.449 121.72 210.457 121.76 210.465 121.791V121.807L210.599 188.334C210.599 188.594 210.433 188.862 210.086 189.068C209.999 189.123 209.904 189.163 209.801 189.202C209.73 189.234 209.659 189.257 209.58 189.273C209.556 189.273 209.541 189.281 209.517 189.289C209.501 189.289 209.477 189.297 209.462 189.305C209.438 189.305 209.414 189.32 209.39 189.32C209.335 189.336 209.272 189.344 209.209 189.352C209.193 189.352 209.185 189.352 209.169 189.352C209.154 189.352 209.146 189.352 209.13 189.352C209.098 189.352 209.067 189.36 209.035 189.36C208.98 189.36 208.917 189.368 208.853 189.368C208.846 189.368 208.83 189.368 208.822 189.368C208.806 189.368 208.798 189.368 208.782 189.368C208.743 189.368 208.703 189.368 208.672 189.368C208.601 189.368 208.537 189.368 208.466 189.352C208.466 189.352 208.458 189.352 208.451 189.352C208.379 189.352 208.308 189.336 208.237 189.32C208.222 189.32 208.206 189.313 208.182 189.305C208.119 189.289 208.063 189.273 208 189.257C207.961 189.249 207.929 189.241 207.89 189.234C207.874 189.234 207.866 189.226 207.858 189.218C207.74 189.178 207.621 189.131 207.519 189.068C207.503 189.06 207.487 189.052 207.479 189.044C207.447 189.02 207.416 188.997 207.384 188.973C207.345 188.941 207.297 188.918 207.266 188.886C207.266 188.886 207.25 188.878 207.25 188.87C207.211 188.831 207.171 188.791 207.139 188.752C207.139 188.752 207.131 188.736 207.124 188.728C207.124 188.72 207.108 188.712 207.108 188.705C207.092 188.689 207.076 188.665 207.068 188.649C207.053 188.618 207.037 188.578 207.021 188.547C207.021 188.547 207.021 188.539 207.021 188.531C207.021 188.531 207.021 188.523 207.021 188.515C207.021 188.491 207.005 188.468 206.997 188.444C206.997 188.412 206.989 188.373 206.989 188.341C206.989 188.341 206.989 188.334 206.989 188.326C206.981 185.302 206.974 161.631 206.966 158.26L206.942 150.191C206.942 148.422 206.934 146.638 206.926 144.854H206.91Z" fill="white" stroke="#101010" stroke-width="1.5" stroke-linecap="round" stroke-linejoin="round"/>
<path d="M207.361 121.065C208.056 120.646 209.201 120.639 209.92 121.041C210.639 121.444 210.654 122.107 209.959 122.526C209.264 122.944 208.119 122.952 207.4 122.549C206.681 122.147 206.666 121.483 207.361 121.065ZM208.538 121.862C208.609 121.902 208.711 121.902 208.782 121.862C208.846 121.823 208.846 121.76 208.782 121.72C208.711 121.681 208.609 121.681 208.538 121.72C208.474 121.76 208.474 121.823 208.538 121.862Z" fill="#101010" stroke="#101010" stroke-width="1.5" stroke-linejoin="round"/>
<path d="M277.53 229.5C278.249 229.902 279.394 229.887 280.089 229.476C280.784 229.058 280.768 228.394 280.05 227.992C279.331 227.589 278.186 227.605 277.491 228.015C276.796 228.434 276.811 229.097 277.53 229.5Z" fill="#101010" stroke="#101010" stroke-width="1.5" stroke-linejoin="round"/>
<path d="M276.922 185.27L276.906 179.917C276.906 177.193 276.89 174.501 276.882 171.88L276.858 162.216C276.858 161.955 277.024 161.687 277.372 161.481C277.459 161.426 277.553 161.387 277.656 161.347C277.727 161.316 277.798 161.292 277.877 161.276C277.901 161.276 277.917 161.268 277.94 161.26C277.956 161.26 277.98 161.252 277.996 161.244C278.019 161.244 278.043 161.229 278.067 161.229C278.122 161.213 278.185 161.205 278.249 161.197C278.264 161.197 278.272 161.197 278.288 161.197C278.304 161.197 278.312 161.197 278.327 161.197C278.359 161.197 278.391 161.189 278.422 161.189C278.485 161.189 278.541 161.181 278.604 161.181C278.612 161.181 278.628 161.181 278.636 161.181C278.651 161.181 278.659 161.181 278.675 161.181C278.715 161.181 278.754 161.181 278.786 161.181C278.857 161.181 278.92 161.181 278.991 161.197C278.991 161.197 278.999 161.197 279.007 161.197C279.078 161.197 279.149 161.213 279.22 161.229C279.236 161.229 279.252 161.237 279.275 161.244C279.338 161.26 279.394 161.276 279.457 161.292C279.497 161.3 279.528 161.308 279.568 161.316C279.583 161.316 279.591 161.323 279.599 161.331C279.718 161.371 279.836 161.418 279.939 161.481C279.955 161.489 279.97 161.497 279.978 161.505C280.01 161.529 280.041 161.552 280.073 161.576C280.113 161.608 280.16 161.631 280.192 161.663C280.192 161.663 280.207 161.671 280.207 161.679C280.247 161.718 280.286 161.758 280.318 161.797C280.318 161.797 280.326 161.813 280.334 161.821C280.334 161.829 280.35 161.837 280.35 161.844C280.365 161.86 280.381 161.884 280.389 161.9C280.405 161.931 280.421 161.971 280.436 162.002C280.436 162.002 280.436 162.01 280.436 162.018C280.436 162.018 280.436 162.026 280.436 162.034C280.436 162.058 280.452 162.081 280.46 162.105C280.46 162.137 280.468 162.176 280.476 162.208V162.223L280.61 228.75C280.61 229.01 280.444 229.279 280.097 229.484C280.01 229.539 279.915 229.579 279.812 229.618C279.741 229.65 279.67 229.674 279.591 229.689C279.568 229.689 279.552 229.697 279.528 229.705C279.512 229.705 279.489 229.713 279.473 229.721C279.449 229.721 279.425 229.737 279.402 229.737C279.346 229.753 279.283 229.76 279.22 229.768C279.204 229.768 279.196 229.768 279.18 229.768C279.165 229.768 279.157 229.768 279.141 229.768C279.109 229.768 279.078 229.776 279.046 229.776C278.991 229.776 278.928 229.784 278.865 229.784C278.857 229.784 278.841 229.784 278.833 229.784C278.817 229.784 278.809 229.784 278.793 229.784C278.754 229.784 278.714 229.784 278.683 229.784C278.612 229.784 278.549 229.784 278.478 229.768C278.478 229.768 278.47 229.768 278.462 229.768C278.391 229.768 278.32 229.753 278.249 229.737C278.233 229.737 278.217 229.729 278.193 229.721C278.13 229.705 278.075 229.689 278.012 229.674C277.972 229.666 277.94 229.658 277.901 229.65C277.885 229.65 277.877 229.642 277.869 229.634C277.751 229.595 277.632 229.547 277.53 229.484C277.514 229.476 277.498 229.468 277.49 229.46C277.459 229.437 277.427 229.413 277.396 229.389C277.356 229.358 277.309 229.334 277.277 229.303C277.277 229.303 277.261 229.295 277.261 229.287C277.222 229.247 277.182 229.208 277.151 229.168C277.151 229.168 277.143 229.152 277.135 229.145C277.135 229.137 277.119 229.129 277.119 229.121C277.103 229.105 277.087 229.081 277.08 229.066C277.064 229.034 277.048 228.995 277.032 228.963C277.032 228.963 277.032 228.955 277.032 228.947C277.032 228.947 277.032 228.939 277.032 228.931C277.032 228.908 277.016 228.884 277.008 228.86C277.008 228.829 277.001 228.789 277.001 228.758C277.001 228.758 277.001 228.75 277.001 228.742C276.993 225.718 276.985 202.048 276.977 198.676L276.953 190.607C276.953 188.839 276.945 187.054 276.937 185.27H276.922Z" fill="white" stroke="#101010" stroke-width="1.5" stroke-linecap="round" stroke-linejoin="round"/>
<path d="M277.364 161.481C278.059 161.063 279.205 161.055 279.923 161.458C280.642 161.86 280.658 162.523 279.963 162.942C279.268 163.36 278.122 163.368 277.404 162.966C276.685 162.563 276.669 161.9 277.364 161.481ZM278.549 162.287C278.62 162.326 278.723 162.326 278.794 162.287C278.857 162.247 278.857 162.184 278.794 162.144C278.723 162.105 278.62 162.105 278.549 162.144C278.486 162.184 278.486 162.247 278.549 162.287Z" fill="#101010" stroke="#101010" stroke-width="1.5" stroke-linejoin="round"/>
<path d="M278.549 171.556L198.001 125.076L278.549 78.5878L359.097 125.076L278.549 171.556Z" fill="#E8F628" stroke="#101010" stroke-width="1.5" stroke-linejoin="round"/>
<path d="M338.688 125.099L328.625 119.202L318.57 104.84L328.696 130.823L338.688 125.099Z" fill="#FFEEDA" stroke="#101010" stroke-width="1.5" stroke-linecap="round" stroke-linejoin="round"/>
<path d="M328.625 119.202L318.57 113.304L308.579 119.028L318.57 104.84L328.625 119.202Z" fill="#FFEEDA" stroke="#101010" stroke-width="1.5" stroke-linecap="round" stroke-linejoin="round"/>
<path d="M318.57 113.304L308.658 84.2961L298.524 113.13L308.579 119.028L318.57 113.304Z" fill="#FFEEDA" stroke="#101010" stroke-width="1.5" stroke-linecap="round" stroke-linejoin="round"/>
<path d="M308.658 84.2961L298.453 94.3548L288.469 107.232L298.524 113.13L308.658 84.2961Z" fill="#FFEEDA" stroke="#101010" stroke-width="1.5" stroke-linecap="round" stroke-linejoin="round"/>
<path d="M298.453 94.3548L288.39 95.6102L278.407 101.334L288.469 107.232L298.453 94.3548Z" fill="#FFEEDA" stroke="#101010" stroke-width="1.5" stroke-linecap="round" stroke-linejoin="round"/>
<path d="M288.39 95.6101L278.336 89.7123L268.352 95.4364L278.407 101.334L288.39 95.6101Z" fill="#FFEEDA" stroke="#101010" stroke-width="1.5" stroke-linecap="round" stroke-linejoin="round"/>
<path d="M328.696 130.823L318.57 104.84L308.658 130.65L318.712 136.548L328.696 130.823Z" fill="#FFEEDA" stroke="#101010" stroke-width="1.5" stroke-linecap="round" stroke-linejoin="round"/>
<path d="M318.57 104.84L308.579 119.028L298.595 124.752L308.658 130.65L318.57 104.84Z" fill="#FFEEDA" stroke="#101010" stroke-width="1.5" stroke-linecap="round" stroke-linejoin="round"/>
<path d="M308.579 119.028L298.524 113.13L288.541 118.854L298.595 124.752L308.579 119.028Z" fill="#FFEEDA" stroke="#101010" stroke-width="1.5" stroke-linecap="round" stroke-linejoin="round"/>
<path d="M298.524 113.13L288.469 107.232L278.375 106.261L288.54 118.854L298.524 113.13Z" fill="#FFEEDA" stroke="#101010" stroke-width="1.5" stroke-linecap="round" stroke-linejoin="round"/>
<path d="M288.47 107.232L278.407 101.334L268.423 107.058L278.375 106.261L288.47 107.232Z" fill="#FFEEDA" stroke="#101010" stroke-width="1.5" stroke-linecap="round" stroke-linejoin="round"/>
<path d="M278.407 101.334L268.352 95.4365L258.361 101.161L268.423 107.058L278.407 101.334Z" fill="#FFEEDA" stroke="#101010" stroke-width="1.5" stroke-linecap="round" stroke-linejoin="round"/>
<path d="M318.713 136.548L308.658 130.65L298.667 136.374L308.729 142.272L318.713 136.548Z" fill="#FFEEDA" stroke="#101010" stroke-width="1.5" stroke-linecap="round" stroke-linejoin="round"/>
<path d="M308.658 130.65L298.595 124.752L288.612 130.476L298.666 136.374L308.658 130.65Z" fill="#FFEEDA" stroke="#101010" stroke-width="1.5" stroke-linecap="round" stroke-linejoin="round"/>
<path d="M298.595 124.752L288.54 118.854L278.549 124.578L288.611 130.476L298.595 124.752Z" fill="#FFEEDA" stroke="#101010" stroke-width="1.5" stroke-linecap="round" stroke-linejoin="round"/>
<path d="M288.54 118.854L278.375 106.261L268.494 118.68L278.549 124.578L288.54 118.854Z" fill="#FFEEDA" stroke="#101010" stroke-width="1.5" stroke-linecap="round" stroke-linejoin="round"/>
<path d="M278.375 106.261L268.423 107.058L258.432 112.79L268.494 118.68L278.375 106.261Z" fill="#FFEEDA" stroke="#101010" stroke-width="1.5" stroke-linecap="round" stroke-linejoin="round"/>
<path d="M268.423 107.058L258.361 101.161L248.59 101.508L258.432 112.79L268.423 107.058Z" fill="#FFEEDA" stroke="#101010" stroke-width="1.5" stroke-linecap="round" stroke-linejoin="round"/>
<path d="M308.729 142.272L298.666 136.374L288.683 142.106L298.453 144.032L308.729 142.272Z" fill="#FFEEDA" stroke="#101010" stroke-width="1.5" stroke-linecap="round" stroke-linejoin="round"/>
<path d="M298.666 136.374L288.612 130.476L276.961 132.237L288.683 142.106L298.666 136.374Z" fill="#FFEEDA" stroke="#101010" stroke-width="1.5" stroke-linecap="round" stroke-linejoin="round"/>
<path d="M288.612 130.476L278.549 124.578L268.565 130.31L276.961 132.237L288.612 130.476Z" fill="#FFEEDA" stroke="#101010" stroke-width="1.5" stroke-linecap="round" stroke-linejoin="round"/>
<path d="M278.549 124.578L268.494 118.68L258.511 124.412L268.565 130.31L278.549 124.578Z" fill="#FFEEDA" stroke="#101010" stroke-width="1.5" stroke-linecap="round" stroke-linejoin="round"/>
<path d="M268.494 118.68L258.431 112.79L248.448 118.515L258.51 124.412L268.494 118.68Z" fill="#FFEEDA" stroke="#101010" stroke-width="1.5" stroke-linecap="round" stroke-linejoin="round"/>
<path d="M258.431 112.79L248.59 101.508L238.393 112.617L248.448 118.515L258.431 112.79Z" fill="#FFEEDA" stroke="#101010" stroke-width="1.5" stroke-linecap="round" stroke-linejoin="round"/>
<path d="M298.453 144.032L288.682 142.106L278.691 147.83L288.754 153.728L298.453 144.032Z" fill="#FFEEDA" stroke="#101010" stroke-width="1.5" stroke-linecap="round" stroke-linejoin="round"/>
<path d="M288.682 142.106L276.961 132.237L268.636 141.932L278.691 147.83L288.682 142.106Z" fill="#FFEEDA" stroke="#101010" stroke-width="1.5" stroke-linecap="round" stroke-linejoin="round"/>
<path d="M276.962 132.237L268.566 130.31L258.582 136.034L268.637 141.932L276.962 132.237Z" fill="#FFEEDA" stroke="#101010" stroke-width="1.5" stroke-linecap="round" stroke-linejoin="round"/>
<path d="M268.566 130.31L258.511 124.412L248.52 130.137L258.582 136.034L268.566 130.31Z" fill="#FFEEDA" stroke="#101010" stroke-width="1.5" stroke-linecap="round" stroke-linejoin="round"/>
<path d="M258.511 124.412L248.448 118.515L236.987 106.972L248.519 130.137L258.511 124.412Z" fill="#FFEEDA" stroke="#101010" stroke-width="1.5" stroke-linecap="round" stroke-linejoin="round"/>
<path d="M248.448 118.515L238.393 112.617L228.402 118.341L236.987 106.972L248.448 118.515Z" fill="#FFEEDA" stroke="#101010" stroke-width="1.5" stroke-linecap="round" stroke-linejoin="round"/>
<path d="M288.754 153.728L278.691 147.83L268.708 153.554L278.77 159.452L288.754 153.728Z" fill="#FFEEDA" stroke="#101010" stroke-width="1.5" stroke-linecap="round" stroke-linejoin="round"/>
<path d="M278.691 147.83L268.636 141.932L258.653 147.656L268.708 153.554L278.691 147.83Z" fill="#FFEEDA" stroke="#101010" stroke-width="1.5" stroke-linecap="round" stroke-linejoin="round"/>
<path d="M268.637 141.932L258.582 136.034L248.59 135.861L258.653 147.656L268.637 141.932Z" fill="#FFEEDA" stroke="#101010" stroke-width="1.5" stroke-linecap="round" stroke-linejoin="round"/>
<path d="M258.582 136.034L248.519 130.137L238.536 135.861H248.59L258.582 136.034Z" fill="#FFEEDA" stroke="#101010" stroke-width="1.5" stroke-linecap="round" stroke-linejoin="round"/>
<path d="M248.519 130.137L236.988 106.972L228.473 129.963L238.536 135.861L248.519 130.137Z" fill="#FFEEDA" stroke="#101010" stroke-width="1.5" stroke-linecap="round" stroke-linejoin="round"/>
<path d="M236.988 106.972L228.402 118.341L218.418 124.065L228.473 129.963L236.988 106.972Z" fill="#FFEEDA" stroke="#101010" stroke-width="1.5" stroke-linecap="round" stroke-linejoin="round"/>
<path d="M346.396 124.776C347.115 125.178 348.26 125.163 348.955 124.752C349.65 124.334 349.635 123.67 348.916 123.268C348.197 122.865 347.052 122.881 346.357 123.291C345.662 123.71 345.678 124.373 346.396 124.776Z" fill="#101010" stroke="#101010" stroke-width="1.5" stroke-linejoin="round"/>
<path d="M345.78 80.5539L345.765 75.2009C345.765 72.477 345.749 69.7846 345.741 67.1634L345.717 57.4994C345.717 57.2389 345.883 56.9705 346.231 56.7652C346.317 56.7099 346.412 56.6704 346.515 56.631C346.586 56.5994 346.657 56.5757 346.736 56.5599C346.76 56.5599 346.776 56.552 346.799 56.5441C346.815 56.5441 346.839 56.5362 346.855 56.5283C346.878 56.5283 346.902 56.5125 346.926 56.5125C346.981 56.4967 347.044 56.4889 347.107 56.481C347.123 56.481 347.131 56.481 347.147 56.481C347.163 56.481 347.171 56.481 347.186 56.481C347.218 56.481 347.25 56.4731 347.281 56.4731C347.344 56.4731 347.4 56.4651 347.463 56.4651C347.471 56.4651 347.487 56.4651 347.494 56.4651C347.51 56.4651 347.518 56.4651 347.534 56.4651C347.573 56.4651 347.613 56.4651 347.644 56.4651C347.716 56.4651 347.779 56.4652 347.85 56.481C347.85 56.481 347.858 56.481 347.866 56.481C347.937 56.481 348.008 56.4967 348.079 56.5125C348.095 56.5125 348.11 56.5204 348.134 56.5283C348.197 56.5441 348.253 56.5599 348.316 56.5757C348.355 56.5836 348.387 56.5915 348.426 56.5994C348.442 56.5994 348.45 56.6073 348.458 56.6152C348.576 56.6546 348.695 56.702 348.798 56.7652C348.813 56.7731 348.829 56.781 348.837 56.7889C348.869 56.8125 348.9 56.8362 348.932 56.8599C348.971 56.8915 349.019 56.9152 349.05 56.9468C349.05 56.9468 349.066 56.9547 349.066 56.9626C349.106 57.002 349.145 57.0415 349.177 57.081C349.177 57.081 349.185 57.0968 349.193 57.1047C349.193 57.1126 349.208 57.1205 349.208 57.1284C349.224 57.1442 349.24 57.1678 349.248 57.1836C349.264 57.2152 349.279 57.2547 349.295 57.2863C349.295 57.2863 349.295 57.2942 349.295 57.3021C349.295 57.3021 349.295 57.31 349.295 57.3179C349.295 57.3415 349.311 57.3652 349.319 57.3889C349.319 57.4205 349.327 57.46 349.335 57.4916V57.5073L349.469 124.034C349.469 124.294 349.303 124.563 348.956 124.768C348.869 124.823 348.774 124.863 348.671 124.902C348.6 124.934 348.529 124.957 348.45 124.973C348.426 124.973 348.411 124.981 348.387 124.989C348.371 124.989 348.347 124.997 348.332 125.005C348.308 125.005 348.284 125.021 348.261 125.021C348.205 125.036 348.142 125.044 348.079 125.052C348.063 125.052 348.055 125.052 348.039 125.052C348.024 125.052 348.016 125.052 348 125.052C347.968 125.052 347.937 125.06 347.905 125.06C347.85 125.06 347.787 125.068 347.723 125.068C347.716 125.068 347.7 125.068 347.692 125.068C347.676 125.068 347.668 125.068 347.652 125.068C347.613 125.068 347.573 125.068 347.542 125.068C347.471 125.068 347.407 125.068 347.336 125.052C347.336 125.052 347.328 125.052 347.321 125.052C347.25 125.052 347.178 125.036 347.107 125.021C347.092 125.021 347.076 125.013 347.052 125.005C346.989 124.989 346.934 124.973 346.87 124.957C346.831 124.95 346.799 124.942 346.76 124.934C346.744 124.934 346.736 124.926 346.728 124.918C346.61 124.879 346.491 124.831 346.389 124.768C346.373 124.76 346.357 124.752 346.349 124.744C346.318 124.721 346.286 124.697 346.254 124.673C346.215 124.642 346.167 124.618 346.136 124.586C346.136 124.586 346.12 124.578 346.12 124.571C346.081 124.531 346.041 124.492 346.01 124.452C346.01 124.452 346.002 124.436 345.994 124.428C345.994 124.421 345.978 124.413 345.978 124.405C345.962 124.389 345.946 124.365 345.938 124.35C345.923 124.318 345.907 124.278 345.891 124.247C345.891 124.247 345.891 124.239 345.891 124.231C345.891 124.231 345.891 124.223 345.891 124.215C345.891 124.192 345.875 124.168 345.867 124.144C345.867 124.113 345.859 124.073 345.859 124.042C345.859 124.042 345.859 124.034 345.859 124.026C345.852 121.002 345.844 97.3316 345.836 93.9603L345.812 85.8912C345.812 84.1226 345.804 82.3383 345.796 80.5539H345.78Z" fill="white" stroke="#101010" stroke-width="1.5" stroke-linecap="round" stroke-linejoin="round"/>
<path d="M346.23 56.765C346.925 56.3466 348.071 56.3387 348.789 56.7413C349.508 57.144 349.524 57.8072 348.829 58.2257C348.134 58.6441 346.989 58.652 346.27 58.2493C345.551 57.8467 345.535 57.1835 346.23 56.765ZM347.407 57.5624C347.478 57.6019 347.581 57.6019 347.652 57.5624C347.715 57.523 347.715 57.4598 347.652 57.4203C347.581 57.3809 347.478 57.3809 347.407 57.4203C347.344 57.4598 347.344 57.523 347.407 57.5624Z" fill="#101010" stroke="#101010" stroke-width="1.5" stroke-linejoin="round"/>
<path d="M277.53 165.2C278.249 165.603 279.394 165.587 280.089 165.176C280.784 164.758 280.768 164.095 280.05 163.692C279.331 163.289 278.186 163.305 277.491 163.716C276.796 164.134 276.811 164.797 277.53 165.2Z" fill="#101010" stroke="#101010" stroke-width="1.5" stroke-linejoin="round"/>
<path d="M276.922 120.978L276.906 115.625C276.906 112.901 276.89 110.209 276.882 107.588L276.858 97.9236C276.858 97.6631 277.024 97.3947 277.372 97.1894C277.459 97.1341 277.553 97.0946 277.656 97.0551C277.727 97.0236 277.798 96.9999 277.877 96.9841C277.901 96.9841 277.917 96.9762 277.94 96.9683C277.956 96.9683 277.98 96.9604 277.996 96.9525C278.019 96.9525 278.043 96.9367 278.067 96.9367C278.122 96.9209 278.185 96.913 278.249 96.9051C278.264 96.9051 278.272 96.9051 278.288 96.9051C278.304 96.9051 278.312 96.9051 278.327 96.9051C278.359 96.9051 278.391 96.8972 278.422 96.8972C278.485 96.8972 278.541 96.8893 278.604 96.8893C278.612 96.8893 278.628 96.8893 278.636 96.8893C278.651 96.8893 278.659 96.8893 278.675 96.8893C278.715 96.8893 278.754 96.8893 278.786 96.8893C278.857 96.8893 278.92 96.8893 278.991 96.9051C278.991 96.9051 278.999 96.9051 279.007 96.9051C279.078 96.9051 279.149 96.9209 279.22 96.9367C279.236 96.9367 279.252 96.9446 279.275 96.9525C279.338 96.9683 279.394 96.9841 279.457 96.9999C279.497 97.0078 279.528 97.0157 279.568 97.0236C279.583 97.0236 279.591 97.0315 279.599 97.0394C279.718 97.0788 279.836 97.1262 279.939 97.1894C279.955 97.1973 279.97 97.2052 279.978 97.2131C280.01 97.2367 280.041 97.2604 280.073 97.2841C280.113 97.3157 280.16 97.3394 280.192 97.3709C280.192 97.3709 280.207 97.3789 280.207 97.3868C280.247 97.4262 280.286 97.4657 280.318 97.5052C280.318 97.5052 280.326 97.521 280.334 97.5289C280.334 97.5368 280.35 97.5447 280.35 97.5526C280.365 97.5683 280.381 97.592 280.389 97.6078C280.405 97.6394 280.421 97.6789 280.436 97.7105C280.436 97.7105 280.436 97.7184 280.436 97.7263C280.436 97.7263 280.436 97.7341 280.436 97.742C280.436 97.7657 280.452 97.7894 280.46 97.8131C280.46 97.8447 280.468 97.8841 280.476 97.9157V97.9315L280.61 164.458C280.61 164.718 280.444 164.987 280.097 165.192C280.01 165.247 279.915 165.287 279.812 165.326C279.741 165.358 279.67 165.382 279.591 165.397C279.568 165.397 279.552 165.405 279.528 165.413C279.512 165.413 279.489 165.421 279.473 165.429C279.449 165.429 279.425 165.445 279.402 165.445C279.346 165.461 279.283 165.468 279.22 165.476C279.204 165.476 279.196 165.476 279.18 165.476C279.165 165.476 279.157 165.476 279.141 165.476C279.109 165.476 279.078 165.484 279.046 165.484C278.991 165.484 278.928 165.492 278.865 165.492C278.857 165.492 278.841 165.492 278.833 165.492C278.817 165.492 278.809 165.492 278.793 165.492C278.754 165.492 278.714 165.492 278.683 165.492C278.612 165.492 278.549 165.492 278.478 165.476C278.478 165.476 278.47 165.476 278.462 165.476C278.391 165.476 278.32 165.461 278.249 165.445C278.233 165.445 278.217 165.437 278.193 165.429C278.13 165.413 278.075 165.397 278.012 165.382C277.972 165.374 277.94 165.366 277.901 165.358C277.885 165.358 277.877 165.35 277.869 165.342C277.751 165.303 277.632 165.255 277.53 165.192C277.514 165.184 277.498 165.176 277.49 165.168C277.459 165.145 277.427 165.121 277.396 165.097C277.356 165.066 277.309 165.042 277.277 165.011C277.277 165.011 277.261 165.003 277.261 164.995C277.222 164.955 277.182 164.916 277.151 164.876C277.151 164.876 277.143 164.861 277.135 164.853C277.135 164.845 277.119 164.837 277.119 164.829C277.103 164.813 277.087 164.789 277.08 164.774C277.064 164.742 277.048 164.703 277.032 164.671C277.032 164.671 277.032 164.663 277.032 164.655C277.032 164.655 277.032 164.647 277.032 164.639C277.032 164.616 277.016 164.592 277.008 164.568C277.008 164.537 277.001 164.497 277.001 164.466C277.001 164.466 277.001 164.458 277.001 164.45C276.993 161.426 276.985 137.756 276.977 134.384L276.953 126.315C276.953 124.547 276.945 122.762 276.937 120.978H276.922Z" fill="white" stroke="#101010" stroke-width="1.5" stroke-linecap="round" stroke-linejoin="round"/>
<path d="M277.364 97.1892C278.059 96.7707 279.205 96.7629 279.923 97.1655C280.642 97.5682 280.658 98.2314 279.963 98.6498C279.268 99.0683 278.122 99.0762 277.404 98.6735C276.685 98.2709 276.669 97.6077 277.364 97.1892ZM278.549 97.9866C278.62 98.0261 278.723 98.0261 278.794 97.9866C278.857 97.9472 278.857 97.884 278.794 97.8445C278.723 97.805 278.62 97.805 278.549 97.8445C278.486 97.884 278.486 97.9472 278.549 97.9866Z" fill="#101010" stroke="#101010" stroke-width="1.5" stroke-linejoin="round"/>
<path d="M207.527 124.776C208.245 125.178 209.391 125.163 210.086 124.752C210.781 124.334 210.765 123.67 210.046 123.268C209.328 122.865 208.182 122.881 207.487 123.291C206.792 123.71 206.808 124.373 207.527 124.776Z" fill="#101010" stroke="#101010" stroke-width="1.5" stroke-linejoin="round"/>
<path d="M206.91 80.5539L206.895 75.2009C206.895 72.477 206.879 69.7846 206.871 67.1634L206.847 57.4994C206.847 57.2389 207.013 56.9705 207.361 56.7652C207.447 56.7099 207.542 56.6704 207.645 56.631C207.716 56.5994 207.787 56.5757 207.866 56.5599C207.89 56.5599 207.906 56.552 207.929 56.5441C207.945 56.5441 207.969 56.5362 207.985 56.5283C208.008 56.5283 208.032 56.5125 208.056 56.5125C208.111 56.4967 208.174 56.4889 208.237 56.481C208.253 56.481 208.261 56.481 208.277 56.481C208.293 56.481 208.3 56.481 208.316 56.481C208.348 56.481 208.379 56.4731 208.411 56.4731C208.474 56.4731 208.53 56.4651 208.593 56.4651C208.601 56.4651 208.616 56.4651 208.624 56.4651C208.64 56.4651 208.648 56.4651 208.664 56.4651C208.703 56.4651 208.743 56.4651 208.774 56.4651C208.846 56.4651 208.909 56.4652 208.98 56.481C208.98 56.481 208.988 56.481 208.996 56.481C209.067 56.481 209.138 56.4967 209.209 56.5125C209.225 56.5125 209.24 56.5204 209.264 56.5283C209.327 56.5441 209.383 56.5599 209.446 56.5757C209.485 56.5836 209.517 56.5915 209.556 56.5994C209.572 56.5994 209.58 56.6073 209.588 56.6152C209.706 56.6546 209.825 56.702 209.928 56.7652C209.943 56.7731 209.959 56.781 209.967 56.7889C209.999 56.8125 210.03 56.8362 210.062 56.8599C210.101 56.8915 210.149 56.9152 210.18 56.9468C210.18 56.9468 210.196 56.9547 210.196 56.9626C210.236 57.002 210.275 57.0415 210.307 57.081C210.307 57.081 210.315 57.0968 210.322 57.1047C210.322 57.1126 210.338 57.1205 210.338 57.1284C210.354 57.1442 210.37 57.1678 210.378 57.1836C210.394 57.2152 210.409 57.2547 210.425 57.2863C210.425 57.2863 210.425 57.2942 210.425 57.3021C210.425 57.3021 210.425 57.31 210.425 57.3179C210.425 57.3415 210.441 57.3652 210.449 57.3889C210.449 57.4205 210.457 57.46 210.465 57.4916V57.5073L210.599 124.034C210.599 124.294 210.433 124.563 210.086 124.768C209.999 124.823 209.904 124.863 209.801 124.902C209.73 124.934 209.659 124.957 209.58 124.973C209.556 124.973 209.541 124.981 209.517 124.989C209.501 124.989 209.477 124.997 209.462 125.005C209.438 125.005 209.414 125.021 209.39 125.021C209.335 125.036 209.272 125.044 209.209 125.052C209.193 125.052 209.185 125.052 209.169 125.052C209.154 125.052 209.146 125.052 209.13 125.052C209.098 125.052 209.067 125.06 209.035 125.06C208.98 125.06 208.917 125.068 208.853 125.068C208.846 125.068 208.83 125.068 208.822 125.068C208.806 125.068 208.798 125.068 208.782 125.068C208.743 125.068 208.703 125.068 208.672 125.068C208.601 125.068 208.537 125.068 208.466 125.052C208.466 125.052 208.458 125.052 208.451 125.052C208.379 125.052 208.308 125.036 208.237 125.021C208.222 125.021 208.206 125.013 208.182 125.005C208.119 124.989 208.063 124.973 208 124.957C207.961 124.95 207.929 124.942 207.89 124.934C207.874 124.934 207.866 124.926 207.858 124.918C207.74 124.879 207.621 124.831 207.519 124.768C207.503 124.76 207.487 124.752 207.479 124.744C207.447 124.721 207.416 124.697 207.384 124.673C207.345 124.642 207.297 124.618 207.266 124.586C207.266 124.586 207.25 124.578 207.25 124.571C207.211 124.531 207.171 124.492 207.139 124.452C207.139 124.452 207.131 124.436 207.124 124.428C207.124 124.421 207.108 124.413 207.108 124.405C207.092 124.389 207.076 124.365 207.068 124.35C207.053 124.318 207.037 124.278 207.021 124.247C207.021 124.247 207.021 124.239 207.021 124.231C207.021 124.231 207.021 124.223 207.021 124.215C207.021 124.192 207.005 124.168 206.997 124.144C206.997 124.113 206.989 124.073 206.989 124.042C206.989 124.042 206.989 124.034 206.989 124.026C206.981 121.002 206.974 97.3316 206.966 93.9603L206.942 85.8912C206.942 84.1226 206.934 82.3383 206.926 80.5539H206.91Z" fill="white" stroke="#101010" stroke-width="1.5" stroke-linecap="round" stroke-linejoin="round"/>
<path d="M207.361 56.7649C208.056 56.3465 209.201 56.3386 209.92 56.7413C210.639 57.1439 210.654 57.8071 209.959 58.2256C209.264 58.644 208.119 58.6519 207.4 58.2493C206.681 57.8466 206.666 57.1834 207.361 56.7649ZM208.538 57.5624C208.609 57.6019 208.711 57.6019 208.782 57.5624C208.846 57.5229 208.846 57.4597 208.782 57.4203C208.711 57.3808 208.609 57.3808 208.538 57.4203C208.474 57.4597 208.474 57.5229 208.538 57.5624Z" fill="#101010" stroke="#101010" stroke-width="1.5" stroke-linejoin="round"/>
<path d="M278.731 95.9654L198.183 49.4775L278.731 2.98962L359.279 49.4775L278.731 95.9654Z" fill="#FFEEDA" stroke="#101010" stroke-width="1.5" stroke-linecap="round" stroke-linejoin="round"/>
<path d="M278.731 108.582V95.9655L359.279 49.4776V62.0944L278.731 108.582Z" fill="#E6CAAA" stroke="#101010" stroke-width="1.5" stroke-linejoin="round"/>
<path d="M278.731 108.582V95.9655L198.183 49.4776V62.0944L278.731 108.582Z" fill="#E6CAAA" stroke="#101010" stroke-width="1.5" stroke-linejoin="round"/>
<path d="M213.821 44.9298H206.981V45.143C206.981 45.4825 206.981 45.9325 206.981 46.3826C206.981 46.8326 206.981 47.2826 206.981 47.6221C206.981 47.7011 206.981 47.7721 206.981 47.8353H206.989V48.1906C206.974 48.5854 207.226 49.0512 207.905 49.4381C208.577 49.8249 209.477 50.0302 210.394 50.0302C211.31 50.0302 212.218 49.8249 212.882 49.4381C213.561 49.0433 213.806 48.5775 213.806 48.1827V44.9298H213.821Z" fill="#101010" stroke="#101010" stroke-width="1.5" stroke-linejoin="round"/>
<path d="M212.889 45.8141C213.561 45.4272 213.814 44.9693 213.814 44.5824C213.814 44.1955 213.561 43.7376 212.889 43.3428C212.218 42.956 211.318 42.7507 210.401 42.7507C209.485 42.7507 208.577 42.956 207.913 43.3428C207.242 43.7297 206.981 44.1876 206.981 44.5745C206.981 44.9614 207.242 45.4193 207.913 45.8141C208.585 46.2009 209.485 46.4062 210.401 46.4062C211.318 46.4062 212.226 46.2009 212.889 45.8141Z" fill="#FFEEDA" stroke="#101010" stroke-width="1.5" stroke-linejoin="round"/>
<path d="M352.052 44.9298H345.212V45.143C345.212 45.4825 345.212 45.9325 345.212 46.3826C345.212 46.8326 345.212 47.2826 345.212 47.6221C345.212 47.7011 345.212 47.7721 345.212 47.8353H345.22V48.1906C345.204 48.5854 345.457 49.0512 346.136 49.4381C346.807 49.8249 347.708 50.0302 348.624 50.0302C349.54 50.0302 350.449 49.8249 351.112 49.4381C351.791 49.0433 352.036 48.5775 352.036 48.1827V44.9298H352.052Z" fill="#101010" stroke="#101010" stroke-width="1.5" stroke-linejoin="round"/>
<path d="M351.112 45.8141C351.783 45.4272 352.036 44.9693 352.036 44.5824C352.036 44.1955 351.783 43.7376 351.112 43.3428C350.441 42.956 349.54 42.7507 348.624 42.7507C347.708 42.7507 346.8 42.956 346.136 43.3428C345.465 43.7297 345.204 44.1876 345.204 44.5745C345.204 44.9614 345.465 45.4193 346.136 45.8141C346.807 46.2009 347.708 46.4062 348.624 46.4062C349.54 46.4062 350.449 46.2009 351.112 45.8141Z" fill="#FFEEDA" stroke="#101010" stroke-width="1.5" stroke-linejoin="round"/>
<path d="M281.977 3.18701H275.137V3.40018C275.137 3.73968 275.137 4.18972 275.137 4.63976C275.137 5.08979 275.137 5.53982 275.137 5.87932C275.137 5.95828 275.137 6.02934 275.137 6.0925H275.145V6.44779C275.129 6.84256 275.382 7.30839 276.061 7.69526C276.732 8.08213 277.633 8.28741 278.549 8.28741C279.465 8.28741 280.373 8.08213 281.037 7.69526C281.716 7.30049 281.961 6.83467 281.961 6.4399V3.18701H281.977Z" fill="#101010" stroke="#101010" stroke-width="1.5" stroke-linejoin="round"/>
<path d="M281.037 4.06339C281.708 3.67652 281.961 3.21859 281.961 2.83172C281.961 2.44485 281.708 1.98692 281.037 1.59215C280.366 1.20528 279.465 1 278.549 1C277.633 1 276.724 1.20528 276.061 1.59215C275.39 1.97903 275.129 2.43695 275.129 2.82383C275.129 3.2107 275.39 3.66863 276.061 4.06339C276.732 4.45027 277.633 4.65555 278.549 4.65555C279.465 4.65555 280.374 4.45027 281.037 4.06339Z" fill="#FFEEDA" stroke="#101010" stroke-width="1.5" stroke-linejoin="round"/>
<path d="M281.977 84.2803H275.137V84.4935C275.137 84.833 275.137 85.283 275.137 85.7331C275.137 86.1831 275.137 86.6332 275.137 86.9727C275.137 87.0516 275.137 87.1227 275.137 87.1858H275.145V87.5411C275.129 87.9359 275.382 88.4017 276.061 88.7886C276.732 89.1755 277.633 89.3807 278.549 89.3807C279.465 89.3807 280.373 89.1755 281.037 88.7886C281.716 88.3938 281.961 87.928 281.961 87.5332V84.2803H281.977Z" fill="#101010" stroke="#101010" stroke-width="1.5" stroke-linejoin="round"/>
<path d="M281.037 85.1646C281.708 84.7777 281.961 84.3198 281.961 83.9329C281.961 83.5461 281.708 83.0881 281.037 82.6933C280.366 82.3065 279.465 82.1012 278.549 82.1012C277.633 82.1012 276.724 82.3065 276.061 82.6933C275.39 83.0802 275.129 83.5382 275.129 83.925C275.129 84.3119 275.39 84.7698 276.061 85.1646C276.732 85.5515 277.633 85.7568 278.549 85.7568C279.465 85.7568 280.374 85.5515 281.037 85.1646Z" fill="#FFEEDA" stroke="#101010" stroke-width="1.5" stroke-linejoin="round"/>
<path d="M330.097 200.573C329.095 201.157 328.696 201.847 328.696 202.44C328.696 203.034 329.085 203.724 330.097 204.308C331.099 204.891 332.442 205.193 333.813 205.193C335.185 205.193 336.528 204.891 337.53 204.308C338.532 203.724 338.931 203.034 338.931 202.44C338.931 201.847 338.542 201.157 337.53 200.573C336.528 199.99 335.185 199.688 333.813 199.688C332.442 199.688 331.099 199.99 330.097 200.573Z" fill="#C69960" stroke="#101010" stroke-width="1.5" stroke-linejoin="round"/>
<path d="M239.416 208.168C238.414 207.585 237.071 207.283 235.699 207.283C234.327 207.283 232.985 207.585 231.983 208.168C230.98 208.752 230.582 209.442 230.582 210.036C230.582 210.629 230.971 211.32 231.983 211.903C232.985 212.487 234.327 212.788 235.699 212.788C237.071 212.788 238.414 212.487 239.416 211.903C240.418 211.32 240.817 210.629 240.817 210.036C240.817 209.442 240.428 208.752 239.416 208.168Z" fill="#C69960" stroke="#101010" stroke-width="1.5" stroke-linejoin="round"/>
<path d="M317.888 162.579C316.886 161.995 315.543 161.694 314.171 161.694C312.799 161.694 311.457 161.995 310.455 162.579C309.453 163.162 309.054 163.853 309.054 164.446C309.054 165.039 309.443 165.73 310.455 166.313C311.457 166.897 312.799 167.198 314.171 167.198C315.543 167.198 316.886 166.897 317.888 166.313C318.89 165.73 319.289 165.039 319.289 164.446C319.289 163.853 318.9 163.162 317.888 162.579Z" fill="#C69960" stroke="#101010" stroke-width="1.5" stroke-linejoin="round"/>
</svg>
