<svg width="65" height="65" viewBox="0 0 65 65" fill="none" xmlns="http://www.w3.org/2000/svg">
<circle cx="32.743" cy="32.3888" r="31.9987" fill="#FFEEDA"/>
<path d="M46.8077 38.2965V18.803C46.7818 17.172 45.5132 15.8591 43.921 15.8591H24.0636C19.7789 15.9254 16.3356 19.5191 16.3356 23.9217C16.3356 25.407 16.7239 26.68 17.3194 27.7939C17.8242 28.7222 18.6139 29.5974 19.3906 30.2472C19.6106 30.4328 19.5071 30.3533 20.1802 30.7776C21.1122 31.3611 22.1737 31.6528 22.1737 31.6528L22.1607 43.3091C22.1866 43.8661 22.2384 44.3965 22.3808 44.8872C22.8209 46.5315 23.9342 47.7913 25.4487 48.4013C26.083 48.6533 26.795 48.8257 27.5587 48.8389L43.4162 48.892C46.5747 48.892 49.1378 46.2663 49.1378 43.0174C49.1507 41.0946 48.2187 39.3707 46.8077 38.2965Z" fill="#FFEEDA"/>
<path d="M47.1945 43.1632C47.1298 45.245 45.46 46.9158 43.4148 46.9158L32.5029 46.876C33.3702 45.8417 33.9009 44.5025 33.9009 43.0438C33.9009 40.7498 32.5677 39.1719 32.5677 39.1719H43.4278C45.5118 39.1719 47.2075 40.909 47.2075 43.0438L47.1945 43.1632Z" fill="#EBC28E"/>
<path d="M20.4261 28.6028C19.1705 27.3828 18.2902 25.8047 18.2902 23.9349V23.736C18.3938 20.5401 20.9569 17.9675 24.0766 17.8747H43.934C44.4518 17.9012 44.866 18.2725 44.866 18.8162V36.0288C45.3191 36.1084 45.5391 36.1747 45.9793 36.3338C46.3288 36.4665 46.8077 36.7449 46.8077 36.7449V18.8162C46.7818 17.1851 45.5132 15.8723 43.921 15.8723H24.0636C19.7789 15.9386 16.3356 19.5323 16.3356 23.9349C16.3356 26.4943 17.4747 28.6823 19.3388 30.2206C19.4682 30.3267 19.5847 30.4593 19.9213 30.4593C20.5038 30.4593 20.918 29.9819 20.8922 29.4647C20.8792 29.0271 20.698 28.868 20.4261 28.6028Z" fill="#101010"/>
<path d="M43.4159 37.156H27.8433C26.7948 37.1692 25.9533 38.0312 25.9533 39.1053V41.3994C25.9792 42.4603 26.8595 43.362 27.908 43.362H29.0601V41.3994H27.908V39.1584C27.908 39.1584 28.1928 39.1584 28.5423 39.1584C30.5099 39.1584 31.9598 41.0281 31.9598 43.0305C31.9598 44.8075 30.3805 47.0751 27.7397 46.8894C25.3967 46.7303 24.1281 44.5953 24.1281 43.0305V23.5901C24.1281 22.7149 23.4291 21.9988 22.5747 21.9988H21.0214V23.9879H22.1735V43.0438C22.1087 46.916 24.866 48.8653 27.7397 48.8653L43.4289 48.9184C46.5874 48.9184 49.1505 46.2927 49.1505 43.0438C49.1505 39.7949 46.5745 37.156 43.4159 37.156ZM47.1958 43.1631C47.1311 45.2451 45.4612 46.916 43.4159 46.916L32.5034 46.8762C33.3707 45.8418 33.9015 44.5025 33.9015 43.0438C33.9015 40.7497 32.5682 39.1716 32.5682 39.1716H43.4289C45.513 39.1716 47.2088 40.9088 47.2088 43.0438L47.1958 43.1631Z" fill="#101010"/>
<path d="M39.2208 24.346H27.4805V22.3569H39.2208C39.7515 22.3569 40.1916 22.7945 40.1916 23.3514C40.1916 23.8951 39.7645 24.346 39.2208 24.346Z" fill="#101010"/>
<path d="M39.2208 33.7075H27.4805V31.7185H39.2208C39.7515 31.7185 40.1916 32.1561 40.1916 32.713C40.1916 33.2567 39.7645 33.7075 39.2208 33.7075Z" fill="#101010"/>
<path d="M41.2919 29.0261H27.4805V27.0371H41.2789C41.8096 27.0371 42.2497 27.4747 42.2497 28.0316C42.2627 28.5753 41.8226 29.0261 41.2919 29.0261Z" fill="#101010"/>
</svg>
