<svg width="64" height="65" viewBox="0 0 64 65" fill="none" xmlns="http://www.w3.org/2000/svg">
<path d="M32.0034 64.4417C49.6758 64.4417 64.0021 50.1153 64.0021 32.4429C64.0021 14.7704 49.6758 0.444092 32.0034 0.444092C14.3309 0.444092 0.00457764 14.7704 0.00457764 32.4429C0.00457764 50.1153 14.3309 64.4417 32.0034 64.4417Z" fill="#FFEDD9"/>
<path d="M31.7319 9.48499L32.0032 25.3735L17.8502 31.5648L31.7319 9.48499Z" fill="#FFD2A7"/>
<path d="M32.2755 9.48499L32.003 25.3735L46.1559 31.5648L32.2755 9.48499Z" fill="#FFF7F2"/>
<path d="M31.875 40.0356L32.0033 25.7036L17.7034 31.8776L31.875 40.0356Z" fill="#E1B884"/>
<path d="M46.2601 31.9016L32.003 25.7036L32.1312 40.0356L46.2601 31.9016Z" fill="#FFEDD9"/>
<path d="M32.003 40.9121C31.8654 40.9121 31.7265 40.8761 31.6036 40.8052L17.0592 32.4321C16.8694 32.3226 16.7318 32.1409 16.681 31.9271C16.6289 31.7147 16.6663 31.4889 16.7853 31.3045L31.3297 8.62876C31.4766 8.39896 31.7318 8.26001 32.0044 8.26001C32.2769 8.26001 32.5321 8.39896 32.6791 8.62876L47.2235 31.3045C47.3424 31.4889 47.3798 31.7147 47.3277 31.9271C47.2756 32.1395 47.1393 32.3226 46.9496 32.4321L32.4052 40.8052C32.281 40.8761 32.1433 40.9121 32.0057 40.9121H32.003ZM18.5876 31.4621L32.003 39.1859L45.4185 31.4621L32.003 10.5474L18.5876 31.4621Z" fill="black"/>
<path d="M32.0036 40.9121C31.5614 40.9121 31.202 40.5527 31.202 40.1105V9.06165C31.202 8.61941 31.5614 8.26001 32.0036 8.26001C32.4458 8.26001 32.8052 8.61941 32.8052 9.06165V40.1105C32.8052 40.5527 32.4458 40.9121 32.0036 40.9121Z" fill="black"/>
<path d="M31.8939 55.6782L32.0034 44.84L18.1324 36.8076L31.8939 55.6782Z" fill="#FFD2A7"/>
<path d="M46.1562 36.9402L32.2798 55.4554L32.1689 44.7441L46.1562 36.9402Z" fill="#FFE4D0"/>
<path d="M32.0032 56.6256C31.7506 56.6256 31.5128 56.5067 31.3619 56.305L16.8174 36.8999C16.589 36.5953 16.6063 36.1718 16.8589 35.8872C17.1114 35.6026 17.5296 35.5345 17.8596 35.7255L32.0018 43.9143L46.1441 35.7255C46.4741 35.5345 46.8923 35.6026 47.1448 35.8872C47.3973 36.1718 47.4147 36.5953 47.1862 36.8999L32.6418 56.305C32.4908 56.5067 32.253 56.6256 32.0005 56.6256H32.0032ZM20.4555 39.0804L32.0032 54.4879L43.5508 39.0804L32.4053 45.5349C32.1568 45.6792 31.8509 45.6792 31.6023 45.5349L20.4569 39.0804H20.4555Z" fill="black"/>
<path d="M32.0034 56.6257C31.5612 56.6257 31.2018 56.2662 31.2018 55.824V44.8402C31.2018 44.398 31.5612 44.0386 32.0034 44.0386C32.4457 44.0386 32.8051 44.398 32.8051 44.8402V55.824C32.8051 56.2662 32.4457 56.6257 32.0034 56.6257Z" fill="black"/>
<path d="M46.5475 32.539C46.4406 32.539 46.3311 32.5176 46.2269 32.4722L32.0044 26.2501L17.782 32.4722C17.3759 32.6498 16.9042 32.4641 16.7265 32.0593C16.5488 31.6545 16.7345 31.1815 17.1394 31.0038L31.6838 24.6401C31.8882 24.5506 32.122 24.5506 32.3264 24.6401L46.8709 31.0038C47.277 31.1815 47.4614 31.6545 47.2837 32.0593C47.1514 32.3599 46.8575 32.5403 46.5489 32.5403L46.5475 32.539Z" fill="black"/>
</svg>
