<svg width="65" height="65" viewBox="0 0 65 65" fill="none" xmlns="http://www.w3.org/2000/svg">
<circle cx="32.7286" cy="32.3888" r="31.9987" fill="#101010"/>
<path d="M20.4119 28.6028C19.1562 27.3828 18.276 25.8047 18.276 23.9349V23.736C18.3795 20.5401 20.9426 17.9675 24.0623 17.8747H43.9197C44.4375 17.9012 44.8517 18.2725 44.8517 18.8162V36.0288C45.3048 36.1084 45.5249 36.1747 45.965 36.3338C46.3145 36.4665 46.7934 36.7449 46.7934 36.7449V18.8162C46.7676 17.1851 45.499 15.8723 43.9067 15.8723H24.0494C19.7646 15.9386 16.3213 19.5323 16.3213 23.9349C16.3213 26.4943 17.4604 28.6823 19.3245 30.2206C19.4539 30.3267 19.5704 30.4593 19.907 30.4593C20.4895 30.4593 20.9038 29.9819 20.8779 29.4647C20.8649 29.0271 20.6837 28.868 20.4119 28.6028Z" fill="#FFF8F3"/>
<path d="M43.4015 37.156H27.8289C26.7804 37.1692 25.9389 38.0312 25.9389 39.1053V41.3994C25.9648 42.4603 26.8451 43.362 27.8936 43.362H29.0457V41.3994H27.8936V39.1584C27.8936 39.1584 28.1784 39.1584 28.5279 39.1584C30.4955 39.1584 31.9453 41.0281 31.9453 43.0305C31.9453 44.8075 30.3661 47.0751 27.7253 46.8894C25.3823 46.7303 24.1137 44.5953 24.1137 43.0305V23.5901C24.1137 22.7149 23.4147 21.9988 22.5603 21.9988H21.007V23.9879H22.159V43.0438C22.0943 46.916 24.8516 48.8653 27.7253 48.8653L43.4145 48.9184C46.573 48.9184 49.1361 46.2927 49.1361 43.0438C49.1361 39.7949 46.5601 37.156 43.4015 37.156ZM47.1814 43.1631C47.1167 45.2451 45.4468 46.916 43.4015 46.916L32.489 46.8762C33.3563 45.8418 33.8871 44.5025 33.8871 43.0438C33.8871 40.7497 32.5538 39.1716 32.5538 39.1716H43.4145C45.4986 39.1716 47.1944 40.9088 47.1944 43.0438L47.1814 43.1631Z" fill="#FFF8F3"/>
<path d="M39.2064 24.346H27.4661V22.3569H39.2064C39.7371 22.3569 40.1772 22.7945 40.1772 23.3514C40.1772 23.8951 39.75 24.346 39.2064 24.346Z" fill="#FFF8F3"/>
<path d="M39.2064 33.7075H27.4661V31.7185H39.2064C39.7371 31.7185 40.1772 32.1561 40.1772 32.713C40.1772 33.2567 39.75 33.7075 39.2064 33.7075Z" fill="#FFF8F3"/>
<path d="M41.2775 29.0261H27.4661V27.0371H41.2645C41.7952 27.0371 42.2353 27.4747 42.2353 28.0316C42.2483 28.5753 41.8082 29.0261 41.2775 29.0261Z" fill="#FFF8F3"/>
</svg>
