<svg width="64" height="64" viewBox="0 0 64 64" fill="none" xmlns="http://www.w3.org/2000/svg">
<path d="M32.0034 64.0029C49.6773 64.0029 64.0048 49.6754 64.0048 32.0015C64.0048 14.3275 49.6773 0 32.0034 0C14.3294 0 0.00189209 14.3275 0.00189209 32.0015C0.00189209 49.6754 14.3294 64.0029 32.0034 64.0029Z" fill="url(#paint0_linear_10974_283)"/>
<path fill-rule="evenodd" clip-rule="evenodd" d="M34.5109 2.89698L50.9779 9.72275C52.535 10.3655 53.7752 11.6057 54.4179 13.1628L61.2437 29.6297C61.8865 31.1868 61.8865 32.943 61.2437 34.5001L54.4179 50.9671C53.7752 52.5241 52.535 53.7644 50.9779 54.4071L34.5109 61.2329C32.9539 61.8756 31.1976 61.8756 29.6406 61.2329L13.1736 54.4071C11.6165 53.7644 10.3763 52.5241 9.73357 50.9671L2.89875 34.5092C2.256 32.9521 2.256 31.1959 2.89875 29.6388L9.72452 13.1718C10.3673 11.6148 11.6075 10.3745 13.1646 9.7318L29.6406 2.89698C31.1976 2.25423 32.9539 2.25423 34.5109 2.89698Z" fill="#FFEEDA"/>
<path d="M34.5109 2.89698L50.9869 9.72275C52.544 10.3655 53.7842 11.6057 54.427 13.1628L61.2528 29.6388C61.8955 31.1959 61.8955 32.9521 61.2528 34.5092L54.427 50.9852C53.7842 52.5422 52.544 53.7825 50.9869 54.4252L34.5109 61.251C32.9539 61.8937 31.1976 61.8937 29.6406 61.251L13.1646 54.4252C11.6075 53.7825 10.3673 52.5422 9.72452 50.9852L2.89875 34.5092C2.256 32.9521 2.256 31.1959 2.89875 29.6388L9.72452 13.1628C10.3673 11.6057 11.6075 10.3655 13.1646 9.72275L29.6406 2.89698C31.1976 2.25423 32.9539 2.25423 34.5109 2.89698ZM30.3014 4.49026L13.8254 11.316C12.6848 11.7868 11.7795 12.692 11.3087 13.8327L4.48298 30.3087C4.01223 31.4493 4.01223 32.7258 4.48298 33.8664L11.3087 50.3424C11.7795 51.4831 12.6848 52.3884 13.8254 52.8591L30.3014 59.6849C31.4421 60.1556 32.7185 60.1556 33.8591 59.6849L50.3351 52.8591C51.4758 52.3884 52.3811 51.4831 52.8518 50.3424L59.6776 33.8664C60.1483 32.7258 60.1483 31.4493 59.6776 30.3087L52.8518 13.8327C52.3811 12.692 51.4758 11.7868 50.3351 11.316L33.8591 4.49026C32.7185 4.01952 31.433 4.01952 30.3014 4.49026Z" fill="#190602"/>
<path d="M45.9989 37.786V18.9563C45.9718 17.3812 44.7225 16.1138 43.1383 16.1138H23.4847C19.248 16.1862 15.8261 19.6443 15.8261 23.9082C15.8261 25.3476 16.2063 26.5697 16.8038 27.647C17.3017 28.5432 18.0802 29.3851 18.8588 30.0188C19.067 30.1908 18.9674 30.1274 19.6373 30.5348C20.5607 31.0961 21.6108 31.3767 21.6108 31.3767L21.6018 42.6383C21.6199 43.1724 21.6832 43.6794 21.819 44.1592C22.2626 45.7434 23.358 46.9655 24.8517 47.554C25.4763 47.7984 26.1825 47.9704 26.9338 47.9704L42.6313 48.0247C45.7636 48.0247 48.2983 45.4809 48.2983 42.3486C48.3164 40.4838 47.4021 38.8181 45.9989 37.786Z" fill="#FFEEDA"/>
<path d="M46.3791 42.4846C46.3158 44.4943 44.6682 46.1057 42.6403 46.1057L31.8314 46.0604C32.6914 45.0646 33.2164 43.7701 33.2164 42.3578C33.2164 40.1399 31.8947 38.61 31.8947 38.61H42.6403C44.7044 38.61 46.3791 40.2847 46.3791 42.3578V42.4846Z" fill="#EBC28E"/>
<path d="M19.8817 28.4165C18.6415 27.2396 17.7634 25.7187 17.7634 23.8991V23.709C17.863 20.622 20.4068 18.1416 23.4847 18.042H43.1383C43.6543 18.0601 44.0707 18.4313 44.0707 18.9563V35.5772C44.5233 35.6587 44.7406 35.713 45.1751 35.8759C45.5191 36.0027 45.9989 36.2742 45.9989 36.2742V18.9563C45.9718 17.3812 44.7225 16.1138 43.1383 16.1138H23.4847C19.248 16.1862 15.8261 19.6443 15.8261 23.9082C15.8261 26.3796 16.9487 28.4889 18.8045 29.9735C18.9312 30.0731 19.0489 30.1998 19.3838 30.1998C19.9632 30.1998 20.3706 29.7472 20.3434 29.2403C20.3253 28.8238 20.1533 28.6699 19.8817 28.4165Z" fill="#190602"/>
<path d="M42.6404 36.6817H27.2235C26.1915 36.6907 25.3496 37.5326 25.3496 38.5646V40.7735C25.3768 41.7965 26.2549 42.6746 27.2869 42.6746H28.4366V40.7735H27.2869V38.6099C27.2869 38.6099 27.5766 38.6099 27.9115 38.6099C29.8579 38.6099 31.2882 40.4204 31.2882 42.3577C31.2882 44.0687 29.7311 46.2685 27.1149 46.0875C24.7883 45.9336 23.5391 43.8695 23.5391 42.3577V23.5733C23.5391 22.7223 22.851 22.0343 22.0001 22.0343H20.4611V23.9535H21.6018V42.3668C21.5475 46.1146 24.2723 47.9976 27.1058 47.9976L42.6313 48.0428C45.7636 48.0428 48.2983 45.499 48.2983 42.3668C48.2983 39.2345 45.7726 36.6817 42.6404 36.6817ZM46.3791 42.4845C46.3158 44.4942 44.6682 46.1056 42.6404 46.1056L31.8314 46.0603C32.6914 45.0645 33.2164 43.77 33.2164 42.3577C33.2164 40.1398 31.8947 38.6099 31.8947 38.6099H42.6404C44.7044 38.6099 46.3791 40.2846 46.3791 42.3577V42.4845Z" fill="#190602"/>
<path d="M38.4942 22.3785H26.8704V24.2977H38.4942C39.0192 24.2977 39.4537 23.8722 39.4537 23.3381C39.4537 22.8131 39.0283 22.3785 38.4942 22.3785Z" fill="#190602"/>
<path d="M38.4942 31.431H26.8704V33.3502H38.4942C39.0192 33.3502 39.4537 32.9247 39.4537 32.3906C39.4537 31.8565 39.0283 31.431 38.4942 31.431Z" fill="#190602"/>
<path d="M40.5401 26.9047H26.8704V28.8238H40.5401C41.0651 28.8238 41.4997 28.3984 41.4997 27.8643C41.4997 27.3301 41.0651 26.9047 40.5401 26.9047Z" fill="#190602"/>
<defs>
<linearGradient id="paint0_linear_10974_283" x1="25.6056" y1="0.00706137" x2="38.4063" y2="64.0105" gradientUnits="userSpaceOnUse">
<stop stop-color="#FFDCB1"/>
<stop offset="1" stop-color="#EBC28E"/>
</linearGradient>
</defs>
</svg>
