<svg width="32" height="32" viewBox="0 0 32 32" fill="none" xmlns="http://www.w3.org/2000/svg">
<g clip-path="url(#clip0_3543_354)">
<path d="M15.9999 31.7107C24.6768 31.7107 31.7107 24.6768 31.7107 15.9999C31.7107 7.32305 24.6768 0.289062 15.9999 0.289062C7.32305 0.289062 0.289062 7.32305 0.289062 15.9999C0.289062 24.6768 7.32305 31.7107 15.9999 31.7107Z" stroke="black" stroke-width="0.578313"/>
<path fill-rule="evenodd" clip-rule="evenodd" d="M15.5672 5.46781L8.56445 19.2462L15.9239 26.0111L23.2907 19.7091L16.0583 5.46789C15.9894 5.33228 15.8236 5.27818 15.688 5.34705C15.636 5.37348 15.5937 5.41577 15.5672 5.46781Z" stroke="black" stroke-width="0.826162"/>
<path d="M11.7319 12.9988L15.8411 14.9918L19.9925 12.9988" stroke="black" stroke-width="0.826162"/>
<path d="M8.78027 19.4217L11.5605 17.9712L14.4152 19.9034L20.5868 18.3824L23.1843 19.8181L15.9277 26.011L8.78027 19.4217Z" fill="black" stroke="black" stroke-width="0.553621"/>
<path d="M15.6867 14.8179L14.7769 20.034L15.9277 26.011" stroke="black" stroke-width="0.826162"/>
<path d="M14.7769 20.0339L15.9277 26.0109" stroke="#FFF3D1" stroke-width="0.826162"/>
</g>
<defs>
<clipPath id="clip0_3543_354">
<rect width="32" height="32" fill="white"/>
</clipPath>
</defs>
</svg>
