<svg width="32" height="32" viewBox="0 0 32 32" fill="none" xmlns="http://www.w3.org/2000/svg">
<path d="M15.9997 0.604492H16.0003C24.5033 0.604492 31.3962 7.4975 31.3962 16.0005V16.0011C31.3962 24.504 24.5033 31.397 16.0003 31.397H15.9997C7.49677 31.397 0.60376 24.504 0.60376 16.0011V16.0005C0.60376 7.4975 7.49677 0.604492 15.9997 0.604492Z" fill="white" stroke="#111111" stroke-width="0.567168"/>
<path d="M16.0002 0.320801H15.9996C7.34004 0.320801 0.320068 7.34078 0.320068 16.0004V16.001C0.320068 24.6605 7.34004 31.6805 15.9996 31.6805H16.0002C24.6598 31.6805 31.6797 24.6605 31.6797 16.001V16.0004C31.6797 7.34078 24.6598 0.320801 16.0002 0.320801Z" fill="url(#paint0_radial_3543_613)" fill-opacity="0.7"/>
<path d="M16.0002 0.320801H15.9996C7.34004 0.320801 0.320068 7.34078 0.320068 16.0004V16.001C0.320068 24.6605 7.34004 31.6805 15.9996 31.6805H16.0002C24.6598 31.6805 31.6797 24.6605 31.6797 16.001V16.0004C31.6797 7.34078 24.6598 0.320801 16.0002 0.320801Z" stroke="url(#paint1_linear_3543_613)" stroke-width="0.574348"/>
<path fill-rule="evenodd" clip-rule="evenodd" d="M13.491 3.09961C7.43565 4.26599 2.86157 9.59343 2.86157 15.9893C2.86157 22.3851 7.43565 27.7126 13.491 28.8789V27.6487C8.10599 26.5008 4.06711 21.7167 4.06711 15.9893C4.06711 10.2619 8.10599 5.47779 13.491 4.32989V3.09961ZM18.5086 4.33471V3.10397C24.5528 4.2792 29.1155 9.60139 29.1155 15.9893C29.1155 22.3772 24.5528 27.6993 18.5086 28.8746V27.6438C23.8823 26.4874 27.91 21.7087 27.91 15.9893C27.91 10.2698 23.8823 5.49114 18.5086 4.33471Z" fill="black"/>
<path d="M17.8589 15.5507C18.8605 15.7416 19.6374 16.1097 20.1896 16.6552C20.7417 17.1869 21.0178 17.8686 21.0178 18.7003V20.0093C21.0178 21.0046 20.6583 21.8091 19.9392 22.4226C19.2201 23.0225 18.2762 23.3225 17.1078 23.3225H16.7032V25.4086H15.3164V23.3225H14.8927C14.1223 23.3225 13.4417 23.1521 12.851 22.8112C12.2604 22.4567 11.7981 21.9659 11.4642 21.3386C11.1432 20.6978 10.9827 19.9615 10.9827 19.1298H12.3695C12.3695 19.9752 12.6006 20.6637 13.0629 21.1955C13.538 21.7136 14.1608 21.9726 14.9312 21.9726H17.0692C17.8268 21.9726 18.4367 21.7954 18.899 21.4409C19.3613 21.0728 19.5924 20.5956 19.5924 20.0093V18.7003C19.5924 18.2368 19.4191 17.8413 19.0724 17.5142C18.7385 17.1869 18.2762 16.9756 17.6856 16.8801L14.2185 16.2665C13.2426 16.0893 12.485 15.7211 11.9457 15.1621C11.4064 14.6031 11.1367 13.9009 11.1367 13.0556V11.9512C11.1367 10.9558 11.4834 10.1651 12.1769 9.57875C12.8831 8.97883 13.8141 8.67891 14.9697 8.67891H15.3164V6.59277H16.7032V8.67891H17.1463C18.2377 8.67891 19.1173 9.03335 19.785 9.74238C20.4527 10.4378 20.7867 11.3581 20.7867 12.5034H19.3998C19.3998 11.7535 19.1943 11.1535 18.7835 10.7036C18.3726 10.2537 17.8268 10.0287 17.1463 10.0287H14.9697C14.2378 10.0287 13.6536 10.2059 13.217 10.5605C12.7804 10.9013 12.5621 11.3649 12.5621 11.9512V13.0556C12.5621 13.5328 12.7226 13.935 13.0436 14.2623C13.3775 14.5895 13.8333 14.8076 14.4112 14.9167L17.8589 15.5507Z" fill="black"/>
<defs>
<radialGradient id="paint0_radial_3543_613" cx="0" cy="0" r="1" gradientUnits="userSpaceOnUse" gradientTransform="translate(16.0336 4.89972) rotate(90) scale(33.0599 23.2708)">
<stop offset="0.03125" stop-color="#FAFAFA"/>
<stop offset="1" stop-color="#E3E3E3"/>
</radialGradient>
<linearGradient id="paint1_linear_3543_613" x1="15.9999" y1="0.0249519" x2="15.9999" y2="31.9764" gradientUnits="userSpaceOnUse">
<stop stop-color="#F4F4F4"/>
<stop offset="1" stop-color="#BEBEBE"/>
</linearGradient>
</defs>
</svg>
