<svg width="30" height="12" viewBox="0 0 30 12" fill="none" xmlns="http://www.w3.org/2000/svg">
<path d="M5.54467 1.54872C5.20312 1.95407 4.65658 2.27381 4.11004 2.22813C4.04171 1.68003 4.30929 1.09767 4.62242 0.73798C4.96396 0.321197 5.56181 0.0243037 6.04565 0.00146484C6.1026 0.572401 5.88058 1.13192 5.54467 1.54872ZM6.04002 2.33661C5.24868 2.29094 4.57111 2.78765 4.1954 2.78765C3.81393 2.78765 3.23898 2.35944 2.6127 2.37087C1.79859 2.38228 1.04139 2.84474 0.625793 3.58122C-0.228185 5.0543 0.40376 7.23532 1.22927 8.43421C1.63349 9.02802 2.1174 9.6789 2.75502 9.656C3.3585 9.63322 3.59767 9.26205 4.32631 9.26205C5.0607 9.26205 5.27146 9.656 5.90899 9.64461C6.56942 9.63322 6.98505 9.0508 7.38929 8.45711C7.85036 7.78333 8.03833 7.12682 8.04972 7.09253C8.03833 7.08115 6.77442 6.59583 6.76303 5.13427C6.75164 3.91235 7.75937 3.33004 7.80492 3.29579C7.2356 2.4508 6.3474 2.35944 6.04002 2.33661ZM10.6116 0.680889V9.58179H11.9893V6.53877H13.8965C15.6386 6.53877 16.8627 5.33976 16.8627 3.60412C16.8627 1.86844 15.6614 0.680889 13.942 0.680889H10.6116ZM11.9893 1.8456H13.5777C14.7733 1.8456 15.4565 2.48505 15.4565 3.60975C15.4565 4.73455 14.7733 5.37968 13.5721 5.37968H11.9893V1.8456ZM19.379 9.65037C20.2445 9.65037 21.0472 9.21073 21.4115 8.51418H21.4399V9.58179H22.7152V5.15129C22.7152 3.86668 21.6905 3.03887 20.1134 3.03887C18.6503 3.03887 17.5686 3.87819 17.5288 5.0314H18.7699C18.8723 4.48339 19.379 4.1236 20.0736 4.1236C20.9162 4.1236 21.3887 4.51755 21.3887 5.24264V5.73371L19.6694 5.83645C18.0696 5.93357 17.2043 6.59008 17.2043 7.73202C17.2043 8.88523 18.0981 9.65037 19.379 9.65037ZM19.7491 8.59414C19.0147 8.59414 18.5479 8.24011 18.5479 7.69773C18.5479 7.13821 18.9976 6.81271 19.8572 6.7614L21.3887 6.66429V7.16674C21.3887 8.00033 20.6828 8.59414 19.7491 8.59414ZM24.4174 12.0026C25.7611 12.0026 26.393 11.4887 26.9453 9.93007L29.3648 3.1245H27.9644L26.3418 8.3829H26.3134L24.6908 3.1245H23.2504L25.5846 9.60469L25.4593 9.99864C25.2487 10.6667 24.9072 10.9236 24.2979 10.9236C24.1898 10.9236 23.9791 10.9121 23.8937 10.9007V11.9683C23.9734 11.9912 24.3151 12.0026 24.4174 12.0026Z" fill="black"/>
</svg>
