<svg width="13" height="12" viewBox="0 0 13 12" fill="none" xmlns="http://www.w3.org/2000/svg">
<path fill-rule="evenodd" clip-rule="evenodd" d="M4.37449 8.97507V4.85986H5.33168V8.97507H4.37449Z" fill="#949EB5"/>
<path fill-rule="evenodd" clip-rule="evenodd" d="M7.20361 8.97507V4.85986H8.1608V8.97507H7.20361Z" fill="#949EB5"/>
<path fill-rule="evenodd" clip-rule="evenodd" d="M10.0324 9.54664V4.85986H10.9895V9.54664H10.0324Z" fill="#252830"/>
<path fill-rule="evenodd" clip-rule="evenodd" d="M1.5451 9.54664V4.85986H2.5023V9.54664H1.5451Z" fill="#252830"/>
<path fill-rule="evenodd" clip-rule="evenodd" d="M6.22777 0.984643C6.17363 0.949933 6.10432 0.949933 6.05017 0.984643L1.42758 3.95008C1.3842 3.97791 1.36687 4.00706 1.3586 4.03157C1.34901 4.06001 1.34738 4.09653 1.35858 4.13474C1.36979 4.17295 1.39087 4.20281 1.4143 4.22157C1.4345 4.23774 1.46482 4.25291 1.51636 4.25291H10.7616C10.8131 4.25291 10.8434 4.23774 10.8637 4.22157C10.8871 4.20281 10.9081 4.17295 10.9193 4.13474C10.9306 4.09653 10.9289 4.06001 10.9193 4.03157C10.9111 4.00706 10.8938 3.97792 10.8504 3.95008L6.22777 0.984643ZM5.53334 0.179017C5.90242 -0.0577191 6.37552 -0.0577191 6.74461 0.179017L11.3672 3.14447C12.3098 3.74918 11.8815 5.21005 10.7616 5.21005H1.51636C0.396416 5.21005 -0.0318741 3.74918 0.910766 3.14446L5.53334 0.179017Z" fill="#252830"/>
<path fill-rule="evenodd" clip-rule="evenodd" d="M1.33863 9.33263C1.55171 9.08341 1.86317 8.93994 2.19107 8.93994H10.3434C10.6713 8.93994 10.9827 9.08341 11.1958 9.33263L11.8968 10.1524C12.519 10.8802 12.0018 12.0028 11.0443 12.0028H1.49022C0.532654 12.0028 0.0154942 10.8802 0.637758 10.1524L1.33863 9.33263ZM2.19107 9.89714C2.14305 9.89714 2.09735 9.91819 2.06611 9.95464L1.36525 10.7744C1.27402 10.8811 1.34984 11.0457 1.49022 11.0457H11.0443C11.1846 11.0457 11.2604 10.8811 11.1692 10.7744L10.4683 9.95464C10.4371 9.91819 10.3915 9.89714 10.3434 9.89714H2.19107Z" fill="#252830"/>
</svg>
