<svg width="40" height="41" viewBox="0 0 40 41" fill="none" xmlns="http://www.w3.org/2000/svg">
<g id="Binance-Icon2-Logo.wine 1">
<rect y="0.439453" width="40.0039" height="40.0039" rx="8" fill="#333333"/>
<path id="Vector" d="M12.6945 20.4416L9.68659 23.4494L6.67114 20.4416L9.67901 17.4337L12.6945 20.4416ZM20.0058 13.1302L25.1654 18.2898L28.1732 15.282L20.0058 7.10693L11.8307 15.282L14.8386 18.2898L20.0058 13.1302ZM30.325 17.4337L27.3171 20.4416L30.325 23.4494L33.3328 20.4416L30.325 17.4337ZM20.0058 27.7529L14.8462 22.5933L11.8383 25.6012L20.0058 33.7762L28.1732 25.6012L25.1654 22.5933L20.0058 27.7529ZM20.0058 23.4494L23.0136 20.4416L20.0058 17.4337L16.9903 20.4416L20.0058 23.4494Z" fill="#F0B90B"/>
</g>
</svg>
