<svg width="41" height="41" viewBox="0 0 41 41" fill="none" xmlns="http://www.w3.org/2000/svg">
<g id="bitget-token-new-bgb-logo 1">
<g clip-path="url(#clip0_4590_2083)">
<rect x="0.333313" y="0.443359" width="40" height="40" rx="8" fill="#00F0FF"/>
<path id="rect1" d="M31.6224 0.443359H9.04425C4.23333 0.443359 0.333313 4.34338 0.333313 9.1543V31.7324C0.333313 36.5433 4.23333 40.4434 9.04425 40.4434H31.6224C36.4333 40.4434 40.3333 36.5433 40.3333 31.7324V9.1543C40.3333 4.34338 36.4333 0.443359 31.6224 0.443359Z" fill="#00F0FF"/>
<path id="path1" d="M18.7929 16.2107H26.2615L33.9019 23.8023C34.3989 24.2961 34.4015 25.0994 33.907 25.5957L24.1086 35.4436H16.4149L18.7409 33.1823L27.2809 24.6962L18.8493 16.21" fill="#1B1B1B"/>
<path id="path2" d="M21.8625 24.677H14.3939L6.75351 17.0853C6.25649 16.5915 6.25395 15.7883 6.74843 15.2919L16.5468 5.44336H24.2405L21.9145 7.70468L13.3745 16.1908L21.8061 24.677" fill="#1B1B1B"/>
</g>
</g>
<defs>
<clipPath id="clip0_4590_2083">
<rect x="0.333313" y="0.443359" width="40" height="40" rx="8" fill="white"/>
</clipPath>
</defs>
</svg>
