<svg width="41" height="41" viewBox="0 0 41 41" fill="none" xmlns="http://www.w3.org/2000/svg">
<g id="bithumb-logo 1">
<rect x="0.666656" y="0.439453" width="40" height="40" rx="8" fill="white"/>
<g id="Layer_x0020_1">
<g id="_1939728173808">
<g id="Group">
<path id="Vector" d="M9.42066 17.5336C8.91554 18.6986 9.46266 20.0604 10.6277 20.5524C10.9504 20.6927 11.302 20.7491 11.6667 20.7347H12.4814L14.7983 12.6323H10.8389L9.42066 17.5336Z" fill="#D62817"/>
<path id="Vector_2" d="M31.2982 15.7658C30.2316 13.6313 28.3635 12.6067 25.7239 12.6067H20.8094L18.5069 20.7511H22.0032C22.5647 20.6671 23.113 20.9623 23.3374 21.4818C23.5906 22.2677 23.5618 23.1243 23.2678 23.9114C23.0435 24.8665 22.5803 25.7508 21.9192 26.4815C21.4273 27.001 20.7542 27.2961 20.0379 27.2817C19.4476 27.3513 18.8861 27.0154 18.6617 26.4671C18.4373 25.6248 18.4937 24.7261 18.8165 23.9114L23.0998 8.80205C23.3806 8.00176 23.269 7.13069 22.7915 6.42879C22.314 5.76889 21.5281 5.40414 20.7134 5.44614H15.9537L10.3061 25.3416C7.21657 36.224 18.1554 35.4237 18.1554 35.4237C18.1554 35.4237 28.1115 35.6481 31.3966 24.1058C32.3517 20.7079 32.3229 17.8991 31.2982 15.7658Z" fill="#EC7000"/>
<path id="Vector_3" d="M31.3966 24.0638C32.3661 20.6935 32.3373 17.8991 31.2983 15.779C30.2316 13.6589 28.3635 12.6475 25.7239 12.6475H22.0164L19.714 20.7499H21.9888C22.5503 20.6659 23.0975 20.961 23.323 21.4662C23.5762 22.2521 23.5474 23.0955 23.2534 23.867" fill="url(#paint0_linear_4587_614)"/>
</g>
</g>
</g>
</g>
<defs>
<linearGradient id="paint0_linear_4587_614" x1="27.9416" y1="22.2232" x2="25.192" y2="17.7299" gradientUnits="userSpaceOnUse">
<stop stop-color="#D62616" stop-opacity="0"/>
<stop offset="1" stop-color="#D62616"/>
</linearGradient>
</defs>
</svg>
