<svg width="24" height="24" viewBox="0 0 24 24" fill="none" xmlns="http://www.w3.org/2000/svg">
<g clip-path="url(#clip0_3994_4502)">
<mask id="mask0_3994_4502" style="mask-type:luminance" maskUnits="userSpaceOnUse" x="0" y="0" width="24" height="25">
<path d="M24 0.000488281H0V24.0005H24V0.000488281Z" fill="white"/>
</mask>
<g mask="url(#mask0_3994_4502)">
<path d="M23.635 14.9005C22.03 21.3305 15.52 25.2405 9.09 23.6405C2.665 22.0355 -1.25 15.5255 0.354998 9.09551C1.955 2.66551 8.47 -1.24449 14.895 0.355511C21.325 1.95551 25.235 8.47051 23.635 14.9005Z" fill="black"/>
<path d="M23.635 14.9005C22.03 21.3305 15.52 25.2405 9.09 23.6405C2.665 22.0355 -1.25 15.5255 0.354998 9.09551C1.955 2.66551 8.47 -1.24449 14.895 0.355511C21.325 1.95551 25.235 8.47051 23.635 14.9005Z" fill="url(#paint0_linear_3994_4502)" fill-opacity="0.2"/>
<path d="M7.865 6.45049L12.11 4.00049L16.36 6.45049L14.795 7.35549L12.11 5.81049L9.43 7.35549L7.865 6.45049ZM16.36 9.54049L14.795 8.63549L12.11 10.1805L9.43 8.63549L7.865 9.54049V11.3505L10.55 12.8955V15.9855L12.11 16.8905L13.675 15.9855V12.8955L16.36 11.3505V9.54049ZM16.36 14.4405V12.6305L14.795 13.5355V15.3455L16.36 14.4405ZM17.465 15.0805L14.78 16.6255V18.4355L19.03 15.9855V11.0855L17.465 11.9905V15.0805ZM15.905 7.99549L17.465 8.89549V10.7105L19.03 9.80549V7.99549L17.465 7.09049L15.905 7.99549ZM10.55 17.2805V19.0905L12.11 20.0005L13.675 19.0905V17.2805L12.11 18.1855L10.55 17.2805ZM7.865 14.4405L9.43 15.3455V13.5355L7.865 12.6305V14.4405ZM10.55 7.99549L12.11 8.89549L13.675 7.99549L12.11 7.09049L10.55 7.99549ZM6.755 8.89549L8.32 7.99549L6.755 7.09049L5.2 7.99549V9.80549L6.755 10.7105V8.89549ZM6.755 11.9905L5.2 11.0855V15.9855L9.44 18.4355V16.6255L6.755 15.0805V11.9905Z" fill="#F3BA2F"/>
</g>
</g>
<defs>
<linearGradient id="paint0_linear_3994_4502" x1="11.9972" y1="-0.000343594" x2="11.9972" y2="23.9994" gradientUnits="userSpaceOnUse">
<stop stop-opacity="0"/>
<stop offset="1" stop-color="#F3BA2F"/>
</linearGradient>
<clipPath id="clip0_3994_4502">
<rect width="24" height="24" fill="white" transform="translate(0 0.000488281)"/>
</clipPath>
</defs>
</svg>
