<svg width="40" height="41" viewBox="0 0 40 41" fill="none" xmlns="http://www.w3.org/2000/svg">
<g id="Group 14160">
<rect id="Rectangle 163" y="0.443359" width="39.9976" height="39.9976" rx="8" fill="#17181E"/>
<g id="Layer_x0020_1_0">
<g id="Bybit_x0020_Logo.cdr">
<path id="Vector" d="M26.382 23.1523V15.4409H27.9327V23.1523H26.382Z" fill="#F6A500"/>
<path id="Vector_2" d="M8.31701 25.4433H4.99408V17.7319H8.18409C9.7348 17.7319 10.6364 18.576 10.6364 19.8985C10.6364 20.7536 10.056 21.3074 9.65505 21.4913C10.1335 21.7084 10.7472 22.1957 10.7472 23.2236C10.7472 24.6636 9.73258 25.4433 8.31701 25.4433ZM8.06004 19.0744H6.54257V20.8511H8.06004C8.71798 20.8511 9.08572 20.4944 9.08572 19.9627C9.08572 19.4333 8.71798 19.0744 8.06004 19.0744ZM8.15973 22.2046H6.54257V24.1009H8.15973C8.86197 24.1009 9.19648 23.6689 9.19648 23.1483C9.19648 22.6277 8.86197 22.2068 8.15973 22.2068V22.2046Z" fill="white"/>
<path id="Vector_3" d="M15.4766 22.2799V25.4433H13.937V22.2799L11.5511 17.7319H13.2347L14.7167 20.84L16.1788 17.7319H17.8624L15.4766 22.2799Z" fill="white"/>
<path id="Vector_4" d="M22.2574 25.4433H18.9344V17.7319H22.1245C23.6752 17.7319 24.5768 18.576 24.5768 19.8985C24.5768 20.7536 23.9964 21.3074 23.5954 21.4913C24.0739 21.7084 24.6876 22.1957 24.6876 23.2236C24.6876 24.6636 23.6729 25.4433 22.2574 25.4433ZM22.0004 19.0744H20.4829V20.8511H22.0004C22.6583 20.8511 23.0261 20.4944 23.0261 19.9627C23.0261 19.4333 22.6583 19.0744 22.0004 19.0744ZM22.1001 22.2046H20.4829V24.1009H22.1001C22.8023 24.1009 23.1368 23.6689 23.1368 23.1483C23.1368 22.6277 22.8023 22.2068 22.1001 22.2068V22.2046Z" fill="white"/>
<path id="Vector_5" d="M32.928 19.0744V25.4433H31.3796V19.0744H29.3038V17.7319H35.0038V19.0744H32.928Z" fill="white"/>
</g>
</g>
</g>
</svg>
