<svg width="31" height="12" viewBox="0 0 31 12" fill="none" xmlns="http://www.w3.org/2000/svg">
<path d="M14.5455 5.85232V9.36138H13.4208V0.683105H16.3451C17.0573 0.683105 17.7322 0.947221 18.257 1.43774C18.7819 1.89051 19.0444 2.56968 19.0444 3.28658C19.0444 4.00344 18.7819 4.64494 18.257 5.13543C17.7322 5.62592 17.0949 5.89001 16.3451 5.89001L14.5455 5.85232ZM14.5455 1.73958V4.75814H16.42C16.8324 4.75814 17.2448 4.60725 17.5072 4.30534C18.1071 3.73935 18.1071 2.79607 17.5448 2.2301L17.5072 2.19237C17.2073 1.89051 16.8324 1.70185 16.42 1.73958H14.5455Z" fill="#5F6368"/>
<path d="M21.6312 3.24805C22.456 3.24805 23.0934 3.47443 23.5807 3.92717C24.0682 4.37997 24.2931 4.98366 24.2931 5.73836V9.3605H23.2434V8.53041H23.2058C22.7559 9.20961 22.1186 9.54921 21.3688 9.54921C20.7314 9.54921 20.1691 9.3605 19.7192 8.98321C19.3069 8.60592 19.0444 8.07774 19.0444 7.51174C19.0444 6.90805 19.2693 6.41744 19.7192 6.04015C20.1691 5.66286 20.8064 5.51196 21.5562 5.51196C22.2311 5.51196 22.7559 5.62516 23.1684 5.88926V5.62516C23.1684 5.24787 23.0184 4.87046 22.7185 4.64406C22.4186 4.37997 22.0437 4.22908 21.6312 4.22908C20.9939 4.22908 20.5066 4.49317 20.1691 5.02147L19.1944 4.41779C19.7942 3.62539 20.5816 3.24805 21.6312 3.24805ZM20.2067 7.54943C20.2067 7.85134 20.3565 8.11543 20.5816 8.26632C20.844 8.45503 21.1439 8.56823 21.4438 8.56823C21.8937 8.56823 22.3436 8.37952 22.6809 8.03992C23.0559 7.70032 23.2434 7.28534 23.2434 6.83254C22.9059 6.56845 22.4186 6.41744 21.7812 6.41744C21.3313 6.41744 20.9564 6.53063 20.6564 6.75703C20.3565 6.94574 20.2067 7.20983 20.2067 7.54943Z" fill="#5F6368"/>
<path d="M30.3665 3.4375L26.655 12.0026H25.5303L26.9174 9.02182L24.4805 3.47523H25.6802L27.4423 7.73894H27.4798L29.2044 3.47523H30.3665V3.4375Z" fill="#5F6368"/>
<path d="M10.0843 5.09728C10.0843 4.75768 10.0468 4.41821 10.0093 4.07861H5.32296V6.00288H7.98479C7.87235 6.60657 7.53489 7.17257 7.01011 7.51217V8.75724H8.62214C9.55937 7.88946 10.0843 6.60657 10.0843 5.09728Z" fill="#4285F4"/>
<path d="M5.32293 9.96462C6.67262 9.96462 7.79731 9.51182 8.6221 8.75711L7.01008 7.51204C6.56018 7.81382 5.99784 8.00253 5.32293 8.00253C4.04823 8.00253 2.92355 7.13475 2.54868 5.92725H0.899101V7.21013C1.76137 8.90813 3.44845 9.96462 5.32293 9.96462Z" fill="#34A853"/>
<path d="M2.54866 5.92743C2.32371 5.32374 2.32371 4.64455 2.54866 4.00304V2.72021H0.899082C0.186756 4.11624 0.186756 5.77642 0.899082 7.21032L2.54866 5.92743Z" fill="#FBBC04"/>
<path d="M5.32307 1.96554C6.03543 1.96554 6.71021 2.22966 7.23511 2.72017L8.65969 1.28637C7.76002 0.45628 6.56033 -0.0342344 5.36064 0.00349457C3.48604 0.00349457 1.76151 1.05998 0.936714 2.7579L2.58629 4.04084C2.9237 2.83337 4.04838 1.96554 5.32307 1.96554Z" fill="#EA4335"/>
</svg>
