<svg width="41" height="41" viewBox="0 0 41 41" fill="none" xmlns="http://www.w3.org/2000/svg">
<g id="htx-token-ht-logo 1">
<rect x="0.666656" y="0.443359" width="39.999" height="39.999" rx="8" fill="white"/>
<g id="Group 14161">
<path id="Vector" d="M23.8121 14.4967C23.8121 10.065 21.6813 6.24687 20.0491 4.9969C20.0491 4.9969 19.9358 4.92872 19.9358 5.11053C19.7998 13.6785 15.4701 16.0194 13.0673 19.1329C7.55881 26.36 12.6819 34.2689 17.8956 35.7234C20.8199 36.5416 17.2156 34.2689 16.7622 29.4963C16.2182 23.701 23.8121 19.292 23.8121 14.4967Z" fill="#282E5B"/>
<path id="Vector_2" d="M26.6684 17.4282C26.6457 17.4055 26.6004 17.4055 26.555 17.4282C26.555 17.4282 26.555 17.4282 26.5324 17.4509C26.4417 18.5191 25.2629 20.8372 23.7895 22.9508C18.7797 30.1324 21.636 33.5869 23.2454 35.4505C24.1748 36.5413 23.2454 35.4505 25.5803 34.3369C25.7616 34.246 30.114 31.9278 30.59 26.678C31.066 21.5644 27.8245 18.36 26.6684 17.4282Z" fill="#059BDC"/>
</g>
</g>
</svg>
