<svg width="40" height="41" viewBox="0 0 40 41" fill="none" xmlns="http://www.w3.org/2000/svg">
<g id="kucoin 1">
<g clip-path="url(#clip0_4589_2034)">
<rect y="0.443359" width="40.0024" height="40.0024" rx="8" fill="#23AF91"/>
<path id="Vector" d="M20.0012 40.4458C31.0476 40.4458 40.0024 31.4909 40.0024 20.4446C40.0024 9.39821 31.0476 0.443359 20.0012 0.443359C8.95485 0.443359 0 9.39821 0 20.4446C0 31.4909 8.95485 40.4458 20.0012 40.4458Z" fill="#23AF91"/>
<path id="Vector_2" d="M16.6417 20.4484L22.5639 26.3745L26.3025 22.636C26.9705 22.0344 27.994 22.0617 28.6307 22.6985C29.2675 23.3353 29.2948 24.3588 28.6932 25.0268L23.7593 29.9568C23.0952 30.6091 22.0327 30.6091 21.3725 29.9568L14.2548 22.8352V27.066C14.2548 27.9996 13.497 28.7575 12.5633 28.7575C11.6297 28.7575 10.8718 27.9996 10.8718 27.066V13.8191C10.8718 12.8854 11.6297 12.1275 12.5633 12.1275C13.497 12.1275 14.2548 12.8854 14.2548 13.8191V18.0498L21.3725 10.9322C22.0366 10.2798 23.0991 10.2798 23.7593 10.9322L28.6971 15.8661C29.2987 16.5341 29.2714 17.5576 28.6346 18.1943C27.9979 18.8311 26.9744 18.8584 26.3064 18.2568L22.5679 14.5183L16.6417 20.4484ZM22.5718 18.7529C21.8881 18.7529 21.2709 19.1631 21.0053 19.796C20.7435 20.4288 20.8881 21.1554 21.3725 21.6398C21.8569 22.1242 22.5835 22.2688 23.2163 22.0071C23.8492 21.7453 24.2633 21.1281 24.2633 20.4445C24.2633 19.9952 24.0836 19.5655 23.7671 19.2452C23.4507 18.9326 23.021 18.7529 22.5718 18.7529Z" fill="white"/>
</g>
</g>
<defs>
<clipPath id="clip0_4589_2034">
<rect y="0.443359" width="40.0024" height="40.0024" rx="8" fill="white"/>
</clipPath>
</defs>
</svg>
