<svg width="32" height="32" viewBox="0 0 32 32" fill="none" xmlns="http://www.w3.org/2000/svg">
<circle cx="16" cy="15.9999" r="15.9999" fill="white"/>
<path d="M23.0326 18.954V9.20687C23.0196 8.3913 22.3853 7.73486 21.5892 7.73486H11.6602C9.51771 7.76802 7.79599 9.56493 7.79599 11.7663C7.79599 12.5089 7.99017 13.1455 8.28791 13.7025C8.54034 14.1666 8.93518 14.6042 9.32353 14.9291C9.43357 15.022 9.38179 14.9822 9.71837 15.1944C10.1844 15.4861 10.7152 15.632 10.7152 15.632L10.7087 21.4603C10.7216 21.7388 10.7475 22.0041 10.8187 22.2494C11.0388 23.0716 11.5954 23.7015 12.3527 24.0065C12.6699 24.1325 13.0259 24.2187 13.4078 24.2253L21.3368 24.2519C22.9161 24.2519 24.1977 22.939 24.1977 21.3145C24.2041 20.353 23.7381 19.491 23.0326 18.954Z" fill="#FFEEDA"/>
<path d="M23.226 21.3873C23.1936 22.4283 22.3587 23.2637 21.3361 23.2637L15.8799 23.2438C16.3136 22.7266 16.579 22.057 16.579 21.3276C16.579 20.1806 15.9123 19.3916 15.9123 19.3916H21.3426C22.3846 19.3916 23.2325 20.2602 23.2325 21.3276L23.226 21.3873Z" fill="#EBC28E"/>
<path d="M9.84135 14.1071C9.2135 13.4971 8.77336 12.7081 8.77336 11.7731V11.6737C8.82514 10.0757 10.1067 8.78934 11.6666 8.74293H21.5957C21.8546 8.75619 22.0617 8.94185 22.0617 9.21371V17.8203C22.2882 17.8601 22.3983 17.8932 22.6183 17.9728C22.7931 18.0391 23.0326 18.1784 23.0326 18.1784V9.21371C23.0196 8.39813 22.3853 7.7417 21.5892 7.7417H11.6602C9.51771 7.77485 7.79599 9.57176 7.79599 11.7731C7.79599 13.0529 8.36558 14.1469 9.29764 14.9161C9.36237 14.9691 9.42062 15.0354 9.58891 15.0354C9.88018 15.0354 10.0873 14.7967 10.0744 14.5381C10.0679 14.3193 9.97727 14.2398 9.84135 14.1071Z" fill="#101010"/>
<path d="M21.3366 18.3835H13.55C13.0257 18.3902 12.605 18.8212 12.605 19.3582V20.5054C12.618 21.0358 13.0581 21.4867 13.5824 21.4867H14.1585V20.5054H13.5824V19.3848C13.5824 19.3848 13.7248 19.3848 13.8996 19.3848C14.8834 19.3848 15.6083 20.3197 15.6083 21.3209C15.6083 22.2094 14.8187 23.3433 13.4982 23.2504C12.3267 23.1709 11.6924 22.1033 11.6924 21.3209V11.6004C11.6924 11.1627 11.3429 10.8047 10.9157 10.8047H10.1389V11.7993H10.715V21.3276C10.6826 23.2637 12.0613 24.2384 13.4982 24.2384L21.3431 24.2649C22.9224 24.2649 24.204 22.9521 24.204 21.3276C24.204 19.703 22.9159 18.3835 21.3366 18.3835ZM23.2266 21.3872C23.1943 22.4282 22.3593 23.2637 21.3366 23.2637L15.8802 23.2438C16.3138 22.7266 16.5792 22.0569 16.5792 21.3276C16.5792 20.1804 15.9125 19.3914 15.9125 19.3914H21.3431C22.3852 19.3914 23.2331 20.26 23.2331 21.3276L23.2266 21.3872Z" fill="#101010"/>
<path d="M19.239 11.9784H13.3687V10.9839H19.239C19.5044 10.9839 19.7244 11.2027 19.7244 11.4812C19.7244 11.753 19.5109 11.9784 19.239 11.9784Z" fill="#101010"/>
<path d="M19.239 16.6596H13.3687V15.665H19.239C19.5044 15.665 19.7244 15.8838 19.7244 16.1623C19.7244 16.4342 19.5109 16.6596 19.239 16.6596Z" fill="#101010"/>
<path d="M20.2746 14.3183H13.3687V13.3237H20.2681C20.5335 13.3237 20.7535 13.5425 20.7535 13.821C20.76 14.0928 20.5399 14.3183 20.2746 14.3183Z" fill="#101010"/>
</svg>
