<svg width="20" height="12" viewBox="0 0 20 12" fill="none" xmlns="http://www.w3.org/2000/svg">
<path d="M12.2129 10.7209H7.01926V1.28223H12.2129V10.7209Z" fill="#FF5F00"/>
<path d="M7.34885 6.002C7.34813 5.09302 7.55189 4.19583 7.94463 3.37823C8.33737 2.56066 8.90899 1.84417 9.616 1.28301C8.74048 0.587123 7.68895 0.154391 6.58158 0.0342572C5.47432 -0.0858882 4.35599 0.111424 3.35436 0.603629C2.35261 1.09583 1.50818 1.86309 0.917275 2.81769C0.326373 3.77224 0.0129395 4.87581 0.0129395 6.002C0.0130585 7.12807 0.326492 8.23128 0.917395 9.18575C1.50818 10.1402 2.35261 10.9074 3.35412 11.3996C4.35563 11.8917 5.47384 12.0891 6.58098 11.9691C7.68812 11.8491 8.73965 11.4166 9.61528 10.7209C8.90839 10.1596 8.33702 9.4431 7.94439 8.62545C7.55177 7.80793 7.34813 6.91086 7.34885 6.002Z" fill="#EB001B"/>
<path d="M19.2192 6.002C19.2191 7.12819 18.9058 8.23164 18.3149 9.18623C17.724 10.1408 16.8796 10.9081 15.8778 11.4003C14.8762 11.8924 13.7579 12.0898 12.6506 11.9696C11.5432 11.8496 10.4917 11.4168 9.61618 10.7209C10.9966 9.62184 11.8832 7.91678 11.8832 6.002C11.8832 4.08723 10.9966 2.38203 9.61618 1.28301C10.4917 0.587123 11.5432 0.154391 12.6506 0.0342572C13.7579 -0.0858882 14.8762 0.111424 15.8778 0.603629C16.8796 1.09583 17.724 1.86309 18.3149 2.81769C18.9058 3.77224 19.2191 4.87581 19.2192 6.002Z" fill="#F79E1B"/>
</svg>
