<svg width="41" height="41" viewBox="0 0 41 41" fill="none" xmlns="http://www.w3.org/2000/svg">
<g id="Vector">
<path d="M8.33331 0.439453C3.91503 0.439453 0.333313 4.02118 0.333313 8.43945V32.4395C0.333313 36.8577 3.91504 40.4395 8.33331 40.4395H32.3333C36.7516 40.4395 40.3333 36.8577 40.3333 32.4395V8.43945C40.3333 4.02118 36.7516 0.439453 32.3333 0.439453H8.33331ZM8.98632 9.67965C8.98632 9.39896 9.21539 9.16989 9.49608 9.16989H16.0455C16.3262 9.16989 16.5553 9.39896 16.5553 9.67965V16.2291C16.5553 16.513 16.3262 16.7421 16.0455 16.7421H9.49608C9.21539 16.7421 8.98632 16.513 8.98632 16.2291V9.67965ZM16.5553 31.1993C16.5553 31.4799 16.3262 31.709 16.0455 31.709H9.49608C9.21539 31.709 8.98632 31.4799 8.98632 31.1993V24.6498C8.98632 24.3659 9.21539 24.1368 9.49608 24.1368H16.0455C16.3262 24.1368 16.5553 24.3659 16.5553 24.6498V31.1993ZM23.608 24.2239H17.0586C16.7779 24.2239 16.5456 23.9949 16.5456 23.7109V17.1615C16.5456 16.8808 16.7747 16.6485 17.0586 16.6485H23.608C23.8887 16.6485 24.121 16.8776 24.121 17.1615V23.7109C24.121 23.9916 23.892 24.2239 23.608 24.2239ZM31.69 31.1993C31.69 31.4799 31.4609 31.709 31.177 31.709H24.6276C24.3469 31.709 24.1178 31.4799 24.1178 31.1993V24.6498C24.1178 24.3659 24.3469 24.1368 24.6276 24.1368H31.177C31.4577 24.1368 31.69 24.3659 31.69 24.6498V31.1993ZM31.69 16.2259C31.69 16.5098 31.4609 16.7389 31.177 16.7389H24.6276C24.3469 16.7389 24.1178 16.5098 24.1178 16.2259V9.67643C24.1178 9.39574 24.3469 9.16667 24.6276 9.16667H31.177C31.4577 9.16667 31.69 9.39574 31.69 9.67643V16.2259Z" fill="white"/>
<path d="M8.33331 0.439453C3.91503 0.439453 0.333313 4.02118 0.333313 8.43945V32.4395C0.333313 36.8577 3.91504 40.4395 8.33331 40.4395H32.3333C36.7516 40.4395 40.3333 36.8577 40.3333 32.4395V8.43945C40.3333 4.02118 36.7516 0.439453 32.3333 0.439453H8.33331ZM8.98632 9.67965C8.98632 9.39896 9.21539 9.16989 9.49608 9.16989H16.0455C16.3262 9.16989 16.5553 9.39896 16.5553 9.67965V16.2291C16.5553 16.513 16.3262 16.7421 16.0455 16.7421H9.49608C9.21539 16.7421 8.98632 16.513 8.98632 16.2291V9.67965ZM16.5553 31.1993C16.5553 31.4799 16.3262 31.709 16.0455 31.709H9.49608C9.21539 31.709 8.98632 31.4799 8.98632 31.1993V24.6498C8.98632 24.3659 9.21539 24.1368 9.49608 24.1368H16.0455C16.3262 24.1368 16.5553 24.3659 16.5553 24.6498V31.1993ZM23.608 24.2239H17.0586C16.7779 24.2239 16.5456 23.9949 16.5456 23.7109V17.1615C16.5456 16.8808 16.7747 16.6485 17.0586 16.6485H23.608C23.8887 16.6485 24.121 16.8776 24.121 17.1615V23.7109C24.121 23.9916 23.892 24.2239 23.608 24.2239ZM31.69 31.1993C31.69 31.4799 31.4609 31.709 31.177 31.709H24.6276C24.3469 31.709 24.1178 31.4799 24.1178 31.1993V24.6498C24.1178 24.3659 24.3469 24.1368 24.6276 24.1368H31.177C31.4577 24.1368 31.69 24.3659 31.69 24.6498V31.1993ZM31.69 16.2259C31.69 16.5098 31.4609 16.7389 31.177 16.7389H24.6276C24.3469 16.7389 24.1178 16.5098 24.1178 16.2259V9.67643C24.1178 9.39574 24.3469 9.16667 24.6276 9.16667H31.177C31.4577 9.16667 31.69 9.39574 31.69 9.67643V16.2259Z" fill="black"/>
</g>
</svg>
