<svg width="24" height="24" viewBox="0 0 24 24" fill="none" xmlns="http://www.w3.org/2000/svg">
<g clip-path="url(#clip0_3924_407)">
<path d="M24 12C24 5.37258 18.6274 0 12 0C5.37258 0 0 5.37258 0 12C0 18.6274 5.37258 24 12 24C18.6274 24 24 18.6274 24 12Z" fill="#4DA2FF"/>
<mask id="mask0_3924_407" style="mask-type:luminance" maskUnits="userSpaceOnUse" x="0" y="0" width="24" height="24">
<path d="M24 12C24 5.37258 18.6274 0 12 0C5.37258 0 0 5.37258 0 12C0 18.6274 5.37258 24 12 24C18.6274 24 24 18.6274 24 12Z" fill="white"/>
</mask>
<g mask="url(#mask0_3924_407)">
<path fill-rule="evenodd" clip-rule="evenodd" d="M15.7 10.4601C16.335 11.2551 16.71 12.2601 16.71 13.3501C16.71 14.4601 16.32 15.4801 15.67 16.2751L15.615 16.3451L15.6 16.2601C15.59 16.1851 15.575 16.1101 15.555 16.0351C15.23 14.6051 14.17 13.3801 12.43 12.3901C11.255 11.7201 10.58 10.9201 10.405 10.0051C10.29 9.41509 10.375 8.82009 10.54 8.31009C10.7 7.80509 10.945 7.38009 11.155 7.12009L11.83 6.29509C11.95 6.15009 12.17 6.15009 12.29 6.29509L15.7 10.4601ZM16.775 9.63509L12.23 4.07509C12.14 3.97009 11.98 3.97009 11.895 4.07509L7.35 9.63509C6.51 10.6701 6 12.0101 6 13.4451C6 16.7851 8.71 19.5001 12.06 19.5001C15.41 19.5001 18.125 16.7851 18.125 13.4451C18.125 12.0101 17.61 10.6701 16.775 9.63509ZM8.435 10.4451L8.845 9.94509L8.855 10.0401C8.865 10.1101 8.875 10.1851 8.89 10.2601C9.155 11.6401 10.095 12.7901 11.665 13.6801C13.03 14.4551 13.825 15.3501 14.055 16.3301C14.15 16.7401 14.165 17.1401 14.125 17.4951C13.51 17.7951 12.795 17.9951 12.06 17.9951C9.495 17.9951 7.41 15.9151 7.41 13.3501C7.41 12.2501 7.795 11.2401 8.435 10.4451Z" fill="#F7F7F8"/>
</g>
</g>
<defs>
<clipPath id="clip0_3924_407">
<rect width="24" height="24" fill="white"/>
</clipPath>
</defs>
</svg>
