<svg width="41" height="12" viewBox="0 0 41 12" fill="none" xmlns="http://www.w3.org/2000/svg">
<path d="M23.2859 9.57672C22.0088 9.57672 21.3086 9.40283 20.2332 8.96402L19.8347 8.78363L19.3829 11.3913C20.1599 11.7092 21.5603 11.9823 23.0091 12.0038C26.4119 12.0038 28.6359 10.436 28.6626 8.02355C28.6893 6.69746 27.8123 5.6908 25.9601 4.8612C24.8364 4.32319 24.1361 3.96224 24.1361 3.4159C24.1361 2.93241 24.7347 2.41748 25.9851 2.41748C26.816 2.39762 27.6419 2.54928 28.4109 2.86289L28.711 2.99526L29.1628 0.475364L29.0844 0.491919C28.1539 0.160245 27.172 -0.00620842 26.1835 0.000176976C22.9824 0.000176976 20.7234 1.5797 20.7067 3.84304C20.6867 5.50691 22.3139 6.44404 23.5426 7.00206C24.8047 7.57324 25.2265 7.93253 25.2232 8.44586C25.2148 9.22561 24.2145 9.57672 23.2859 9.57672ZM37.3921 0.213763H34.8913C34.1127 0.213763 33.5308 0.420729 33.1891 1.17902L28.3792 11.8416H31.7819L32.4622 10.0966L36.6135 10.0999C36.7152 10.5072 37.0136 11.8416 37.0136 11.8416H40.0129L37.3921 0.213763ZM33.3941 7.71062L34.6845 4.46057C34.6679 4.49375 34.9513 3.78835 35.1147 3.35121L35.3364 4.3547L36.085 7.71062H33.3941ZM14.0779 11.7489H17.3189L19.3446 0.116081H16.1052V0.112763L14.0779 11.7489ZM8.20765 8.14276L7.87088 6.5269V6.5319L6.73384 1.19061C6.53878 0.450521 5.9686 0.231968 5.2617 0.205476H0.0416795L0 0.450522C1.17538 0.72371 2.23406 1.11942 3.18103 1.60453C3.32808 1.68991 3.43578 1.82892 3.48113 1.99197L6.28203 11.8251H9.70647L14.8098 0.213763H11.377L8.20765 8.14276Z" fill="#1C33C3"/>
</svg>
